<?xml version="1.0" encoding="utf-8"?>
<!-- Generator: Adobe Illustrator 15.1.0, SVG Export Plug-In . SVG Version: 6.00 Build 0)  -->
<!DOCTYPE svg PUBLIC "-//W3C//DTD SVG 1.1//EN" "http://www.w3.org/Graphics/SVG/1.1/DTD/svg11.dtd">
<svg version="1.1" id="Capa_1" xmlns="http://www.w3.org/2000/svg" xmlns:xlink="http://www.w3.org/1999/xlink" x="0px" y="0px"
	 width="512px" height="512px" viewBox="0 0 512 512" enable-background="new 0 0 512 512" xml:space="preserve">
<path fill="#003D55" d="M496.754,470.43h-15.246V66.919c0-30.786-22.797-55.839-50.818-55.839H290.938
	c-28.021,0-50.819,25.054-50.819,55.839v74.104c-4.086-0.956-8.293-1.627-12.705-1.627H87.663
	c-28.021,0-50.819,20.541-50.819,45.808v285.226H15.246C6.83,470.43,0,477.261,0,485.676s6.83,15.246,15.246,15.246h481.508
	c8.415,0,15.246-6.83,15.246-15.246S505.17,470.43,496.754,470.43z M77.498,185.204c0-1.494,3.567-5.152,10.165-5.152h139.752
	c6.596,0,10.165,3.648,10.165,5.152V470.43H77.498V185.204z M280.774,66.919c0-8.954,5.356-15.185,10.164-15.185H430.69
	c4.808,0,10.164,6.23,10.164,15.185v403.513h-160.08V66.919z"/>
<path fill="#00ADEF" d="M336.116,68.921H310.98c-8.121,0-14.717,6.585-14.717,14.717v25.135c0,8.122,6.586,14.717,14.717,14.717
	h25.136c8.121,0,14.717-6.586,14.717-14.717V83.638C350.833,75.506,344.237,68.921,336.116,68.921z"/>
<path fill="#00ADEF" d="M336.116,140.067H310.98c-8.121,0-14.717,6.586-14.717,14.717v25.135c0,8.121,6.586,14.717,14.717,14.717
	h25.136c8.121,0,14.717-6.585,14.717-14.717v-25.135C350.833,146.653,344.237,140.067,336.116,140.067z"/>
<path fill="#00ADEF" d="M336.116,211.213H310.98c-8.121,0-14.717,6.586-14.717,14.717v25.135c0,8.121,6.586,14.717,14.717,14.717
	h25.136c8.121,0,14.717-6.585,14.717-14.717V225.93C350.833,217.799,344.237,211.213,336.116,211.213z"/>
<path fill="#00ADEF" d="M410.647,68.921h-25.136c-8.121,0-14.717,6.585-14.717,14.717v25.135c0,8.122,6.586,14.717,14.717,14.717
	h25.136c8.121,0,14.717-6.586,14.717-14.717V83.638C425.364,75.506,418.778,68.921,410.647,68.921z"/>
<path fill="#00ADEF" d="M410.647,140.067h-25.136c-8.121,0-14.717,6.586-14.717,14.717v25.135c0,8.121,6.586,14.717,14.717,14.717
	h25.136c8.121,0,14.717-6.585,14.717-14.717v-25.135C425.364,146.653,418.778,140.067,410.647,140.067z"/>
<path fill="#00ADEF" d="M410.647,211.213h-25.136c-8.121,0-14.717,6.586-14.717,14.717v25.135c0,8.121,6.586,14.717,14.717,14.717
	h25.136c8.121,0,14.717-6.585,14.717-14.717V225.93C425.364,217.799,418.778,211.213,410.647,211.213z"/>
<path fill="#00ADEF" d="M336.116,282.359H310.98c-8.121,0-14.717,6.586-14.717,14.717v25.136c0,8.121,6.586,14.717,14.717,14.717
	h25.136c8.121,0,14.717-6.586,14.717-14.717v-25.136C350.833,288.945,344.237,282.359,336.116,282.359z"/>
<path fill="#00ADEF" d="M336.116,353.506H310.98c-8.121,0-14.717,6.586-14.717,14.717v25.136c0,8.121,6.586,14.717,14.717,14.717
	h25.136c8.121,0,14.717-6.586,14.717-14.717v-25.136C350.833,360.092,344.237,353.506,336.116,353.506z"/>
<path fill="#00ADEF" d="M410.647,282.359h-25.136c-8.121,0-14.717,6.586-14.717,14.717v25.136c0,8.121,6.586,14.717,14.717,14.717
	h25.136c8.121,0,14.717-6.586,14.717-14.717v-25.136C425.364,288.945,418.778,282.359,410.647,282.359z"/>
<path fill="#00ADEF" d="M410.647,353.506h-25.136c-8.121,0-14.717,6.586-14.717,14.717v25.136c0,8.121,6.586,14.717,14.717,14.717
	h25.136c8.121,0,14.717-6.586,14.717-14.717v-25.136C425.364,360.092,418.778,353.506,410.647,353.506z"/>
<path fill="#00ADEF" d="M132.84,211.213h-25.134c-8.121,0-14.717,6.586-14.717,14.717v25.135c0,8.121,6.586,14.717,14.717,14.717
	h25.135c8.121,0,14.717-6.585,14.717-14.717V225.93C147.558,217.799,140.961,211.213,132.84,211.213z"/>
<path fill="#00ADEF" d="M207.371,211.213h-25.135c-8.121,0-14.717,6.586-14.717,14.717v25.135c0,8.121,6.585,14.717,14.717,14.717
	h25.135c8.121,0,14.717-6.585,14.717-14.717V225.93C222.088,217.799,215.502,211.213,207.371,211.213z"/>
<path fill="#00ADEF" d="M132.84,282.359h-25.134c-8.121,0-14.717,6.586-14.717,14.717v25.136c0,8.121,6.586,14.717,14.717,14.717
	h25.135c8.121,0,14.717-6.586,14.717-14.717v-25.136C147.558,288.945,140.961,282.359,132.84,282.359z"/>
<path fill="#00ADEF" d="M132.84,353.506h-25.134c-8.121,0-14.717,6.586-14.717,14.717v25.136c0,8.121,6.586,14.717,14.717,14.717
	h25.135c8.121,0,14.717-6.586,14.717-14.717v-25.136C147.558,360.092,140.961,353.506,132.84,353.506z"/>
<path fill="#00ADEF" d="M207.371,282.359h-25.135c-8.121,0-14.717,6.586-14.717,14.717v25.136c0,8.121,6.585,14.717,14.717,14.717
	h25.135c8.121,0,14.717-6.586,14.717-14.717v-25.136C222.088,288.945,215.502,282.359,207.371,282.359z"/>
<path fill="#00ADEF" d="M207.371,353.506h-25.135c-8.121,0-14.717,6.586-14.717,14.717v25.136c0,8.121,6.585,14.717,14.717,14.717
	h25.135c8.121,0,14.717-6.586,14.717-14.717v-25.136C222.088,360.092,215.502,353.506,207.371,353.506z"/>
</svg>
