<?xml version="1.0" encoding="utf-8"?>
<!-- Generator: Adobe Illustrator 15.1.0, SVG Export Plug-In . SVG Version: 6.00 Build 0)  -->
<!DOCTYPE svg PUBLIC "-//W3C//DTD SVG 1.1//EN" "http://www.w3.org/Graphics/SVG/1.1/DTD/svg11.dtd">
<svg version="1.1" id="Capa_1" xmlns="http://www.w3.org/2000/svg" xmlns:xlink="http://www.w3.org/1999/xlink" x="0px" y="0px"
	 width="96px" height="96px" viewBox="208 208 96 96" enable-background="new 208 208 96 96" xml:space="preserve">
<g>
	<g>
		<g>
			<path fill="#00ADEF" d="M241.839,214.033c-0.339-0.339-0.808-0.533-1.287-0.533c-0.481,0-0.948,0.194-1.287,0.533
				c-0.338,0.338-0.533,0.808-0.533,1.287s0.195,0.948,0.533,1.287c0.339,0.339,0.806,0.533,1.287,0.533
				c0.479,0,0.948-0.194,1.287-0.533c0.338-0.338,0.533-0.808,0.533-1.287S242.178,214.372,241.839,214.033z"/>
		</g>
	</g>
	<g>
		<g>
			<path fill="#003D55" d="M300.858,213.5h-52.541c-1.005,0-1.82,0.815-1.82,1.82c0,1.005,0.815,1.82,1.82,1.82h50.719v14.898
				l-33.199,33.2c-0.711,0.711-0.711,1.863,0,2.573c0.355,0.356,0.821,0.533,1.287,0.533s0.932-0.177,1.287-0.533l30.625-30.625
				v38.926h-85.908V217.14h19.476c1.005,0,1.82-0.814,1.82-1.82c0-1.005-0.815-1.82-1.82-1.82h-21.295
				c-1.005,0-1.82,0.815-1.82,1.82v62.612c0,1.006,0.815,1.82,1.82,1.82h31.306v6.188h-10.557c-1.005,0-1.82,0.816-1.82,1.82v5.46
				h-10.346c-1.006,0-1.82,0.815-1.82,1.821c0,1.005,0.814,1.819,1.82,1.819h65.867c1.006,0,1.82-0.814,1.82-1.819
				c0-1.006-0.814-1.821-1.82-1.821h-3.83v-5.46c0-1.004-0.814-1.82-1.819-1.82h-10.558v-6.188h31.307
				c1.005,0,1.819-0.814,1.819-1.82V215.32C302.678,214.315,301.863,213.5,300.858,213.5z M246.255,279.752h19.658v6.188h-19.658
				V279.752z M278.289,289.581v3.639h-44.411v-3.639h10.556h23.298H278.289z"/>
		</g>
	</g>
	<g>
		<g>
			<path fill="#00ADEF" d="M241.77,229.502c-0.711-0.711-1.863-0.71-2.574,0l-16.109,16.109c-0.71,0.711-0.71,1.863,0,2.575
				c0.355,0.355,0.821,0.533,1.287,0.533s0.932-0.178,1.287-0.533l16.109-16.109C242.481,231.365,242.481,230.213,241.77,229.502z"
				/>
		</g>
	</g>
	<g>
		<g>
			<path fill="#00ADEF" d="M220.521,250.751c-0.339-0.338-0.809-0.533-1.288-0.533c-0.478,0-0.948,0.194-1.287,0.533
				c-0.338,0.339-0.533,0.807-0.533,1.288c0,0.479,0.195,0.948,0.533,1.287c0.339,0.338,0.809,0.533,1.287,0.533
				c0.479,0,0.949-0.194,1.288-0.533c0.338-0.339,0.533-0.808,0.533-1.287C221.054,251.56,220.859,251.091,220.521,250.751z"/>
		</g>
	</g>
	<g>
		<g>
			<path fill="#00ADEF" d="M252.39,238.07h-10.193c-1.005,0-1.82,0.815-1.82,1.82c0,1.005,0.815,1.821,1.82,1.821h3.276v13.469
				c0,1.005,0.815,1.82,1.821,1.82c1.005,0,1.82-0.814,1.82-1.82v-13.469h3.276c1.005,0,1.82-0.816,1.82-1.821
				C254.209,238.885,253.395,238.07,252.39,238.07z"/>
		</g>
	</g>
	<g>
		<g>
			<path fill="#00ADEF" d="M270.545,238.163c-0.953-0.317-1.984,0.198-2.301,1.152l-3.37,10.109l-3.37-10.109
				c-0.317-0.954-1.349-1.469-2.302-1.152c-0.953,0.318-1.47,1.349-1.151,2.303l5.096,15.29c0.248,0.743,0.944,1.244,1.728,1.244
				s1.479-0.501,1.727-1.244l5.097-15.29C272.016,239.512,271.5,238.481,270.545,238.163z"/>
		</g>
	</g>
</g>
</svg>
