<?xml version="1.0" encoding="utf-8"?>
<!-- Generator: Adobe Illustrator 23.0.0, SVG Export Plug-In . SVG Version: 6.00 Build 0)  -->
<svg version="1.1" id="Capa_1" xmlns="http://www.w3.org/2000/svg" xmlns:xlink="http://www.w3.org/1999/xlink" x="0px" y="0px"
	 viewBox="0 0 512 512" style="enable-background:new 0 0 512 512;" xml:space="preserve">
<style type="text/css">
	.st0{fill:#00ADEF;}
	.st1{fill:#003D55;}
</style>
<path id="XMLID_2164_" class="st0" d="M189.3,162.8c-2.1-0.7-4.2-1.5-6.3-2.3v-39.3c5.3,1.8,8.8,4.2,9,4.4c4.4,3.3,10.6,2.4,14-2
	c3.3-4.4,2.5-10.7-1.9-14c-0.5-0.4-8.8-6.5-21-9.1v-8.3c0-5.5-4.5-10-10-10s-10,4.5-10,10v8.2c-1.3,0.3-2.7,0.6-4,1
	c-13.1,3.9-22.9,15.1-25.6,29.2c-2.4,12.9,1.7,25.4,10.8,32.5c4.8,3.7,10.7,7.1,18.8,10.7v51.1c-6.8-0.5-11.1-2.2-18.5-7.1
	c-4.6-3-10.8-1.7-13.8,2.9c-3,4.6-1.7,10.8,2.9,13.8c11.5,7.5,19.4,9.8,29.5,10.4v8.5c0,5.5,4.5,10,10,10s10-4.5,10-10V244
	c18.7-4.6,30.7-20.5,33.4-36.2C219.8,187.5,209.1,169.8,189.3,162.8L189.3,162.8z M156.6,147.5c-3.2-2.5-4.6-7.6-3.5-13.1
	c0.9-4.8,4-10.6,10-13.2v30.4C160.6,150.4,158.4,149,156.6,147.5z M196.6,204.5c-1.2,7.1-5.8,14.7-13.6,18.4v-41.1
	C198.2,187.4,197.3,200.6,196.6,204.5z"/>
<path id="XMLID_2168_" class="st1" d="M462.6,374c-5.2-1.9-10.9,0.7-12.8,5.9c-17,46.1-61.6,77.1-110.8,77.1c-65.1,0-118-53-118-118
	s53-118,118-118c49.2,0,93.7,31,110.8,77.2c1.9,5.2,7.7,7.8,12.8,5.9c5.2-1.9,7.8-7.7,5.9-12.8c-9.7-26.2-26.9-48.6-49.8-64.9
	c-23.4-16.6-51-25.4-79.8-25.4c-10.9,0-21.5,1.3-31.7,3.7c2.4-10.3,3.7-20.9,3.7-31.7c0-76.1-61.9-138-138-138
	c-76.1,0-138,61.9-138,138s61.9,138,138,138c10.8,0,21.4-1.2,31.7-3.7c-2.4,10.2-3.7,20.8-3.7,31.7c0,76.1,61.9,138,138,138
	c28.8,0,56.4-8.8,79.8-25.4c22.9-16.2,40.1-38.6,49.8-64.8C470.5,381.7,467.8,375.9,462.6,374L462.6,374z M173,291
	c-65.1,0-118-53-118-118s53-118,118-118s118,53,118,118c0,13.5-2.3,26.7-6.7,39.3c-32.2,14-58,39.8-72,72
	C199.7,288.8,186.5,291,173,291z"/>
<path id="XMLID_2499_" class="st0" d="M296.9,392.3c-2.3,3-2.7,7.1-1,10.5s5.2,5.5,9,5.5H379c5.5,0,10-4.5,10-10s-4.5-10-10-10
	h-54.2c9.4-13.3,11.8-22.2,10.4-37.3h15.9c5.5,0,10-4.5,10-10s-4.5-10-10-10h-20.8c-3.5-5.3-9.5-16.3-9.4-25.2
	c0-5.7,2.5-9.9,7.6-12.8c7.9-4.4,20.5-4.5,27.7-0.2c5.7,3.5,10,8.3,11.2,12.6c1.5,5.3,7,8.4,12.4,6.9c5.3-1.5,8.4-7,6.9-12.4
	c-2.6-9.2-9.9-18-20-24.2c-13.4-8.2-33.6-8.2-47.9-0.1c-11.5,6.5-17.8,17.2-17.8,30.2c0,9.1,3.1,18.1,6.5,25.2H299
	c-5.5,0-10,4.5-10,10s4.5,10,10,10h16.1l0,0.2c1.3,11.5,0.6,15.8-8.7,28.3L296.9,392.3z"/>
<path id="XMLID_2504_" class="st1" d="M467.1,329c-2.6,0-5.2,1.1-7.1,2.9s-2.9,4.4-2.9,7.1c0,2.6,1.1,5.2,2.9,7.1
	c1.9,1.9,4.4,2.9,7.1,2.9s5.2-1.1,7.1-2.9c1.9-1.9,2.9-4.4,2.9-7.1s-1.1-5.2-2.9-7.1S469.7,329,467.1,329z"/>
<path id="XMLID_2511_" class="st1" d="M182.4,433.4c-43.3-18-78-50.5-98.6-92.3l10.1-4.2c3.4-1.4,5.8-4.6,6.1-8.3
	c0.4-3.7-1.3-7.3-4.4-9.3l-64.7-43.2c-2.8-1.9-6.3-2.2-9.4-0.9c-3.1,1.3-5.3,4-6,7.3L0.2,358.8c-0.7,3.6,0.6,7.3,3.5,9.7
	c2.9,2.3,6.8,2.9,10.2,1.5l10.7-4.4C51.8,423.1,98.8,468,157.9,492.5c1.2,0.5,2.5,0.8,3.8,0.8c1.3,0,2.6-0.3,3.8-0.8
	c2.5-1,4.4-3,5.4-5.4l16.9-40.7C189.9,441.4,187.5,435.5,182.4,433.4z M156.4,470c-52.9-24.6-94.4-67.3-117.5-121.3
	c-1.6-3.8-5.3-6.1-9.2-6.1c-1.3,0-2.6,0.2-3.8,0.8l-2.4,1l8.7-43.3l36.7,24.5l-2.3,1c-2.5,1-4.4,3-5.4,5.5c-1,2.5-1,5.3,0.1,7.7
	c20.6,47.9,57.5,86,104.4,108.1L156.4,470z"/>
<path id="XMLID_2514_" class="st0" d="M508.4,143.5c-2.9-2.3-6.8-2.9-10.2-1.5l-10.7,4.4C460.2,88.9,413.2,44,354.1,19.5
	c-2.4-1-5.2-1-7.7,0c-2.5,1-4.4,3-5.4,5.4l-16.9,40.7c-2.1,5.1,0.3,11,5.4,13.1c43.3,18,78,50.5,98.6,92.3l-10.1,4.2
	c-3.4,1.4-5.8,4.6-6.1,8.3c-0.4,3.7,1.3,7.3,4.4,9.3l64.7,43.2c1.7,1.1,3.6,1.7,5.5,1.7c1.3,0,2.6-0.3,3.8-0.8c3.1-1.3,5.3-4,6-7.3
	l15.3-76.3C512.5,149.6,511.2,145.8,508.4,143.5L508.4,143.5z M479.8,210.9l-36.7-24.5l2.3-1c2.5-1,4.4-3,5.4-5.5
	c1-2.5,1-5.3-0.1-7.7c-20.6-47.9-57.5-86-104.4-108.1l9.2-22.2c52.9,24.6,94.4,67.3,117.5,121.3c2.2,5,8,7.4,13,5.3l2.4-1
	L479.8,210.9z"/>
</svg>
