<?xml version="1.0" encoding="utf-8"?>
<!-- Generator: Adobe Illustrator 15.1.0, SVG Export Plug-In . SVG Version: 6.00 Build 0)  -->
<!DOCTYPE svg PUBLIC "-//W3C//DTD SVG 1.1//EN" "http://www.w3.org/Graphics/SVG/1.1/DTD/svg11.dtd">
<svg version="1.1" id="Capa_1" xmlns="http://www.w3.org/2000/svg" xmlns:xlink="http://www.w3.org/1999/xlink" x="0px" y="0px"
	 width="512px" height="512px" viewBox="0 0 512 512" enable-background="new 0 0 512 512" xml:space="preserve">
<path fill="#003D55" d="M487.953,288.967c-8.318-49.573-45.096-53.986-58.071-53.986c-2.81,0-4.385,0.208-4.385,0.208
	c-11.185-22.372-27.929-27.966-41.96-27.966c-14.034-0.002-25.156,5.594-25.156,5.594c-11.188-22.375-28.322-27.969-42.571-27.969
	c-14.249-0.002-25.589,5.591-25.589,5.591V131.25c0-22.468-16.84-33.701-33.693-33.701c-16.849,0-33.689,11.232-33.689,33.701
	c0,44.941,0,148.692,0,148.692c-77.75,18.969-6.911,135.698,15.55,170.815v43.102c0,9.503,9.457,18.142,18.959,18.142h177.962
	c9.503,0,15.597-8.639,15.597-18.142v-40.89C492.372,388.215,495.094,331.502,487.953,288.967z"/>
<g>
	<circle fill="#00ADEF" cx="256.049" cy="33.872" r="33.872"/>
	<circle fill="#00ADEF" cx="154.437" cy="131.42" r="33.872"/>
	<circle fill="#00ADEF" cx="154.437" cy="33.872" r="33.872"/>
	<circle fill="#00ADEF" cx="54.855" cy="131.42" r="33.872"/>
	<circle fill="#00ADEF" cx="54.855" cy="33.872" r="33.872"/>
	<circle fill="#00ADEF" cx="154.437" cy="228.968" r="33.872"/>
	<circle fill="#00ADEF" cx="54.855" cy="228.968" r="33.872"/>
</g>
</svg>
