<?xml version="1.0" encoding="utf-8"?>
<!-- Generator: Adobe Illustrator 15.1.0, SVG Export Plug-In . SVG Version: 6.00 Build 0)  -->
<!DOCTYPE svg PUBLIC "-//W3C//DTD SVG 1.1//EN" "http://www.w3.org/Graphics/SVG/1.1/DTD/svg11.dtd">
<svg version="1.1" id="Capa_1" xmlns="http://www.w3.org/2000/svg" xmlns:xlink="http://www.w3.org/1999/xlink" x="0px" y="0px"
	 width="96px" height="96px" viewBox="208 208 96 96" enable-background="new 208 208 96 96" xml:space="preserve">
<g>
	<g>
		<path fill="#00ADEF" d="M272.054,255.138c-0.006,0-0.013,0-0.019,0h-7.618v-7.637c0.011-1.541-1.229-2.797-2.771-2.808
			c-0.006,0-0.012,0-0.019,0h-11.006c-1.54,0-2.789,1.249-2.789,2.789v7.637h-7.618c-1.541-0.011-2.797,1.229-2.808,2.769
			c0,0.013,0,0.025,0,0.038v10.988c0,1.539,1.249,2.788,2.789,2.788h7.637v7.619c-0.01,1.539,1.23,2.796,2.771,2.807
			c0.006,0,0.012,0,0.018,0h10.988c1.54,0,2.789-1.249,2.789-2.788l0,0v-7.638h7.637c1.541,0.011,2.798-1.23,2.808-2.77
			c0-0.007,0-0.014,0-0.019v-10.988C274.843,256.387,273.595,255.138,272.054,255.138z M271.099,267.96h-8.554
			c-1.033,0-1.871,0.838-1.871,1.872v8.554h-9.097v-8.554c0-1.034-0.838-1.872-1.872-1.872h-8.555v-9.078h8.555
			c1.034,0,1.872-0.839,1.872-1.872v-8.573h9.079v8.554c0,1.033,0.838,1.872,1.871,1.872h8.572V267.96z"/>
	</g>
</g>
<g>
	<g>
		<path fill="#003D55" d="M288.694,230.692L288.694,230.692h-15.424v-6.588c0.098-3.007-2.262-5.522-5.269-5.62
			c-0.152-0.004-0.306-0.003-0.459,0.005h-22.835c-3.005-0.156-5.567,2.152-5.724,5.156c-0.008,0.153-0.01,0.306-0.005,0.459v6.551
			h-15.423c-5.953,0-12.916,3.388-12.916,12.916v40.712c0,9.527,6.963,12.915,12.916,12.915h65.138
			c5.952,0,12.915-3.388,12.915-12.915v-40.675C301.609,234.081,294.665,230.692,288.694,230.692z M242.723,224.104
			c0-0.543,0-2.003,2.002-2.003h22.817c2.003,0,2.003,1.441,2.003,2.003v6.551h-26.823V224.104z M297.866,284.282
			c0,8.273-6.401,9.172-9.172,9.172h-65.138c-2.752,0-9.172-0.898-9.172-9.172v-40.675c0-8.273,6.402-9.171,9.172-9.171h65.138
			c2.752,0,9.172,0.898,9.172,9.171V284.282L297.866,284.282z"/>
	</g>
</g>
</svg>
