<?xml version="1.0" encoding="utf-8"?>
<!-- Generator: Adobe Illustrator 15.1.0, SVG Export Plug-In . SVG Version: 6.00 Build 0)  -->
<!DOCTYPE svg PUBLIC "-//W3C//DTD SVG 1.1//EN" "http://www.w3.org/Graphics/SVG/1.1/DTD/svg11.dtd">
<svg version="1.1" id="Capa_1" xmlns="http://www.w3.org/2000/svg" xmlns:xlink="http://www.w3.org/1999/xlink" x="0px" y="0px"
	 width="96px" height="96px" viewBox="208 208 96 96" enable-background="new 208 208 96 96" xml:space="preserve">
<g>
	<g>
		<path fill="#003D55" d="M300.401,224.613H283.56v-12.249c0-0.846-0.686-1.531-1.531-1.531h-52.057
			c-0.845,0-1.531,0.686-1.531,1.531v21.435h-16.842c-0.846,0-1.531,0.686-1.531,1.531v62.774c0,0.846,0.686,1.531,1.531,1.531
			s1.531-0.686,1.531-1.531v-61.243h15.311v62.774c0,0.845,0.686,1.53,1.531,1.53h52.057c0.846,0,1.531-0.686,1.531-1.53v-71.96
			h15.311v70.429c0,0.846,0.686,1.531,1.531,1.531c0.845,0,1.53-0.686,1.53-1.531v-71.96
			C301.932,225.299,301.246,224.613,300.401,224.613z M254.469,298.104h-6.124v-13.78h6.124V298.104z M263.655,298.104h-6.124
			v-13.78h6.124V298.104z M280.497,298.104h-13.779v-15.311c0-0.846-0.686-1.531-1.531-1.531h-18.373
			c-0.845,0-1.531,0.686-1.531,1.531v15.311h-13.78v-84.209h48.994V298.104z"/>
	</g>
</g>
<g>
	<g>
		<path fill="#00ADEF" d="M245.283,216.958h-9.187c-0.846,0-1.531,0.685-1.531,1.531v9.187c0,0.845,0.686,1.531,1.531,1.531h9.187
			c0.845,0,1.531-0.686,1.531-1.531v-9.187C246.813,217.643,246.128,216.958,245.283,216.958z M243.751,226.144h-6.124v-6.124h6.124
			V226.144z"/>
	</g>
</g>
<g>
	<g>
		<path fill="#00ADEF" d="M260.593,216.958h-9.186c-0.846,0-1.531,0.685-1.531,1.531v9.187c0,0.845,0.685,1.531,1.531,1.531h9.186
			c0.846,0,1.531-0.686,1.531-1.531v-9.187C262.124,217.643,261.438,216.958,260.593,216.958z M259.063,226.144h-6.125v-6.124h6.125
			V226.144z"/>
	</g>
</g>
<g>
	<g>
		<path fill="#00ADEF" d="M275.904,216.958h-9.187c-0.846,0-1.531,0.685-1.531,1.531v9.187c0,0.845,0.686,1.531,1.531,1.531h9.187
			c0.845,0,1.53-0.686,1.53-1.531v-9.187C277.435,217.643,276.749,216.958,275.904,216.958z M274.373,226.144h-6.125v-6.124h6.125
			V226.144z"/>
	</g>
</g>
<g>
	<g>
		<path fill="#00ADEF" d="M245.283,232.269h-9.187c-0.846,0-1.531,0.686-1.531,1.531v9.187c0,0.846,0.686,1.531,1.531,1.531h9.187
			c0.845,0,1.531-0.686,1.531-1.531v-9.187C246.813,232.954,246.128,232.269,245.283,232.269z M243.751,241.455h-6.124v-6.125h6.124
			V241.455z"/>
	</g>
</g>
<g>
	<g>
		<path fill="#00ADEF" d="M260.593,232.269h-9.186c-0.846,0-1.531,0.686-1.531,1.531v9.187c0,0.846,0.685,1.531,1.531,1.531h9.186
			c0.846,0,1.531-0.686,1.531-1.531v-9.187C262.124,232.954,261.438,232.269,260.593,232.269z M259.063,241.455h-6.125v-6.125h6.125
			V241.455z"/>
	</g>
</g>
<g>
	<g>
		<path fill="#00ADEF" d="M275.904,232.269h-9.187c-0.846,0-1.531,0.686-1.531,1.531v9.187c0,0.846,0.686,1.531,1.531,1.531h9.187
			c0.845,0,1.53-0.686,1.53-1.531v-9.187C277.435,232.954,276.749,232.269,275.904,232.269z M274.373,241.455h-6.125v-6.125h6.125
			V241.455z"/>
	</g>
</g>
<g>
	<g>
		<path fill="#00ADEF" d="M245.283,247.579h-9.187c-0.846,0-1.531,0.686-1.531,1.531v9.187c0,0.846,0.686,1.531,1.531,1.531h9.187
			c0.845,0,1.531-0.686,1.531-1.531v-9.187C246.813,248.265,246.128,247.579,245.283,247.579z M243.751,256.766h-6.124v-6.125h6.124
			V256.766z"/>
	</g>
</g>
<g>
	<g>
		<path fill="#00ADEF" d="M260.593,247.579h-9.186c-0.846,0-1.531,0.686-1.531,1.531v9.187c0,0.846,0.685,1.531,1.531,1.531h9.186
			c0.846,0,1.531-0.686,1.531-1.531v-9.187C262.124,248.265,261.438,247.579,260.593,247.579z M259.063,256.766h-6.125v-6.125h6.125
			V256.766z"/>
	</g>
</g>
<g>
	<g>
		<path fill="#00ADEF" d="M275.904,247.579h-9.187c-0.846,0-1.531,0.686-1.531,1.531v9.187c0,0.846,0.686,1.531,1.531,1.531h9.187
			c0.845,0,1.53-0.686,1.53-1.531v-9.187C277.435,248.265,276.749,247.579,275.904,247.579z M274.373,256.766h-6.125v-6.125h6.125
			V256.766z"/>
	</g>
</g>
<g>
	<g>
		<path fill="#00ADEF" d="M245.283,262.89h-9.187c-0.846,0-1.531,0.686-1.531,1.531v9.187c0,0.846,0.686,1.531,1.531,1.531h9.187
			c0.845,0,1.531-0.686,1.531-1.531v-9.187C246.813,263.575,246.128,262.89,245.283,262.89z M243.751,272.076h-6.124v-6.124h6.124
			V272.076z"/>
	</g>
</g>
<g>
	<g>
		<path fill="#00ADEF" d="M260.593,262.89h-9.186c-0.846,0-1.531,0.686-1.531,1.531v9.187c0,0.846,0.685,1.531,1.531,1.531h9.186
			c0.846,0,1.531-0.686,1.531-1.531v-9.187C262.124,263.575,261.438,262.89,260.593,262.89z M259.063,272.076h-6.125v-6.124h6.125
			V272.076z"/>
	</g>
</g>
<g>
	<g>
		<path fill="#00ADEF" d="M275.904,262.89h-9.187c-0.846,0-1.531,0.686-1.531,1.531v9.187c0,0.846,0.686,1.531,1.531,1.531h9.187
			c0.845,0,1.53-0.686,1.53-1.531v-9.187C277.435,263.575,276.749,262.89,275.904,262.89z M274.373,272.076h-6.125v-6.124h6.125
			V272.076z"/>
	</g>
</g>
<g>
	<g>
		<path fill="#003D55" d="M219.254,239.924h-1.531c-0.845,0-1.531,0.686-1.531,1.531v1.531c0,0.846,0.686,1.531,1.531,1.531h1.531
			c0.846,0,1.531-0.686,1.531-1.531v-1.531C220.786,240.609,220.1,239.924,219.254,239.924z"/>
	</g>
</g>
<g>
	<g>
		<path fill="#003D55" d="M225.379,239.924h-1.531c-0.846,0-1.531,0.686-1.531,1.531v1.531c0,0.846,0.686,1.531,1.531,1.531h1.531
			c0.845,0,1.531-0.686,1.531-1.531v-1.531C226.91,240.609,226.224,239.924,225.379,239.924z"/>
	</g>
</g>
<g>
	<g>
		<path fill="#003D55" d="M219.254,246.048h-1.531c-0.845,0-1.531,0.686-1.531,1.531v1.531c0,0.845,0.686,1.531,1.531,1.531h1.531
			c0.846,0,1.531-0.686,1.531-1.531v-1.531C220.786,246.733,220.1,246.048,219.254,246.048z"/>
	</g>
</g>
<g>
	<g>
		<path fill="#003D55" d="M225.379,246.048h-1.531c-0.846,0-1.531,0.686-1.531,1.531v1.531c0,0.845,0.686,1.531,1.531,1.531h1.531
			c0.845,0,1.531-0.686,1.531-1.531v-1.531C226.91,246.733,226.224,246.048,225.379,246.048z"/>
	</g>
</g>
<g>
	<g>
		<path fill="#003D55" d="M219.254,252.172h-1.531c-0.845,0-1.531,0.686-1.531,1.531v1.531c0,0.846,0.686,1.531,1.531,1.531h1.531
			c0.846,0,1.531-0.686,1.531-1.531v-1.531C220.786,252.858,220.1,252.172,219.254,252.172z"/>
	</g>
</g>
<g>
	<g>
		<path fill="#003D55" d="M225.379,252.172h-1.531c-0.846,0-1.531,0.686-1.531,1.531v1.531c0,0.846,0.686,1.531,1.531,1.531h1.531
			c0.845,0,1.531-0.686,1.531-1.531v-1.531C226.91,252.858,226.224,252.172,225.379,252.172z"/>
	</g>
</g>
<g>
	<g>
		<path fill="#003D55" d="M219.254,258.297h-1.531c-0.845,0-1.531,0.686-1.531,1.531v1.53c0,0.846,0.686,1.531,1.531,1.531h1.531
			c0.846,0,1.531-0.686,1.531-1.531v-1.53C220.786,258.982,220.1,258.297,219.254,258.297z"/>
	</g>
</g>
<g>
	<g>
		<path fill="#003D55" d="M225.379,258.297h-1.531c-0.846,0-1.531,0.686-1.531,1.531v1.53c0,0.846,0.686,1.531,1.531,1.531h1.531
			c0.845,0,1.531-0.686,1.531-1.531v-1.53C226.91,258.982,226.224,258.297,225.379,258.297z"/>
	</g>
</g>
<g>
	<g>
		<path fill="#003D55" d="M219.254,264.421h-1.531c-0.845,0-1.531,0.686-1.531,1.531v1.531c0,0.845,0.686,1.53,1.531,1.53h1.531
			c0.846,0,1.531-0.686,1.531-1.53v-1.531C220.786,265.106,220.1,264.421,219.254,264.421z"/>
	</g>
</g>
<g>
	<g>
		<path fill="#003D55" d="M225.379,264.421h-1.531c-0.846,0-1.531,0.686-1.531,1.531v1.531c0,0.845,0.686,1.53,1.531,1.53h1.531
			c0.845,0,1.531-0.686,1.531-1.53v-1.531C226.91,265.106,226.224,264.421,225.379,264.421z"/>
	</g>
</g>
<g>
	<g>
		<path fill="#003D55" d="M219.254,270.545h-1.531c-0.845,0-1.531,0.686-1.531,1.531v1.531c0,0.846,0.686,1.531,1.531,1.531h1.531
			c0.846,0,1.531-0.686,1.531-1.531v-1.531C220.786,271.23,220.1,270.545,219.254,270.545z"/>
	</g>
</g>
<g>
	<g>
		<path fill="#003D55" d="M225.379,270.545h-1.531c-0.846,0-1.531,0.686-1.531,1.531v1.531c0,0.846,0.686,1.531,1.531,1.531h1.531
			c0.845,0,1.531-0.686,1.531-1.531v-1.531C226.91,271.23,226.224,270.545,225.379,270.545z"/>
	</g>
</g>
<g>
	<g>
		<path fill="#003D55" d="M219.254,276.67h-1.531c-0.845,0-1.531,0.686-1.531,1.53v1.531c0,0.846,0.686,1.531,1.531,1.531h1.531
			c0.846,0,1.531-0.686,1.531-1.531V278.2C220.786,277.355,220.1,276.67,219.254,276.67z"/>
	</g>
</g>
<g>
	<g>
		<path fill="#003D55" d="M225.379,276.67h-1.531c-0.846,0-1.531,0.686-1.531,1.53v1.531c0,0.846,0.686,1.531,1.531,1.531h1.531
			c0.845,0,1.531-0.686,1.531-1.531V278.2C226.91,277.355,226.224,276.67,225.379,276.67z"/>
	</g>
</g>
<g>
	<g>
		<path fill="#003D55" d="M219.254,282.794h-1.531c-0.845,0-1.531,0.686-1.531,1.53v1.531c0,0.846,0.686,1.531,1.531,1.531h1.531
			c0.846,0,1.531-0.686,1.531-1.531v-1.531C220.786,283.479,220.1,282.794,219.254,282.794z"/>
	</g>
</g>
<g>
	<g>
		<path fill="#003D55" d="M225.379,282.794h-1.531c-0.846,0-1.531,0.686-1.531,1.53v1.531c0,0.846,0.686,1.531,1.531,1.531h1.531
			c0.845,0,1.531-0.686,1.531-1.531v-1.531C226.91,283.479,226.224,282.794,225.379,282.794z"/>
	</g>
</g>
<g>
	<g>
		<path fill="#003D55" d="M219.254,288.918h-1.531c-0.845,0-1.531,0.686-1.531,1.531v1.531c0,0.845,0.686,1.53,1.531,1.53h1.531
			c0.846,0,1.531-0.686,1.531-1.53v-1.531C220.786,289.604,220.1,288.918,219.254,288.918z"/>
	</g>
</g>
<g>
	<g>
		<path fill="#003D55" d="M225.379,288.918h-1.531c-0.846,0-1.531,0.686-1.531,1.531v1.531c0,0.845,0.686,1.53,1.531,1.53h1.531
			c0.845,0,1.531-0.686,1.531-1.53v-1.531C226.91,289.604,226.224,288.918,225.379,288.918z"/>
	</g>
</g>
<g>
	<g>
		<path fill="#003D55" d="M294.276,230.737h-6.124c-0.846,0-1.531,0.686-1.531,1.531v6.124c0,0.846,0.686,1.531,1.531,1.531h6.124
			c0.846,0,1.531-0.686,1.531-1.531v-6.124C295.808,231.423,295.122,230.737,294.276,230.737z M292.745,236.862h-3.062v-3.063h3.062
			V236.862z"/>
	</g>
</g>
<g>
	<g>
		<path fill="#003D55" d="M294.276,242.986h-6.124c-0.846,0-1.531,0.686-1.531,1.531v6.124c0,0.846,0.686,1.531,1.531,1.531h6.124
			c0.846,0,1.531-0.686,1.531-1.531v-6.124C295.808,243.671,295.122,242.986,294.276,242.986z M292.745,249.11h-3.062v-3.063h3.062
			V249.11z"/>
	</g>
</g>
<g>
	<g>
		<path fill="#003D55" d="M294.276,255.234h-6.124c-0.846,0-1.531,0.686-1.531,1.531v6.124c0,0.846,0.686,1.531,1.531,1.531h6.124
			c0.846,0,1.531-0.686,1.531-1.531v-6.124C295.808,255.92,295.122,255.234,294.276,255.234z M292.745,261.358h-3.062v-3.062h3.062
			V261.358z"/>
	</g>
</g>
<g>
	<g>
		<path fill="#003D55" d="M294.276,267.483h-6.124c-0.846,0-1.531,0.685-1.531,1.53v6.125c0,0.845,0.686,1.531,1.531,1.531h6.124
			c0.846,0,1.531-0.687,1.531-1.531v-6.125C295.808,268.168,295.122,267.483,294.276,267.483z M292.745,273.607h-3.062v-3.063h3.062
			V273.607z"/>
	</g>
</g>
<g>
	<g>
		<path fill="#003D55" d="M294.276,279.731h-6.124c-0.846,0-1.531,0.686-1.531,1.531v6.124c0,0.846,0.686,1.531,1.531,1.531h6.124
			c0.846,0,1.531-0.686,1.531-1.531v-6.124C295.808,280.417,295.122,279.731,294.276,279.731z M292.745,285.855h-3.062v-3.062h3.062
			V285.855z"/>
	</g>
</g>
</svg>
