<?xml version="1.0" encoding="utf-8"?>
<!-- Generator: Adobe Illustrator 15.1.0, SVG Export Plug-In . SVG Version: 6.00 Build 0)  -->
<!DOCTYPE svg PUBLIC "-//W3C//DTD SVG 1.1//EN" "http://www.w3.org/Graphics/SVG/1.1/DTD/svg11.dtd">
<svg version="1.1" id="Layer_1" xmlns="http://www.w3.org/2000/svg" xmlns:xlink="http://www.w3.org/1999/xlink" x="0px" y="0px"
	 width="96px" height="96px" viewBox="208 208 96 96" enable-background="new 208 208 96 96" xml:space="preserve">
<path fill="#003D55" d="M266.521,235.003c0.26-0.368,0.465-0.77,0.61-1.195c0.651,0.11,1.272,0.358,1.821,0.729
	c1.102,0.745,2.393,1.157,3.723,1.191c0.419-0.002,0.838-0.041,1.25-0.115c1.738-0.297,3.289-1.272,4.309-2.712
	c0.545-0.86,1.428-1.451,2.431-1.628c1.004-0.176,2.035,0.077,2.841,0.699c1.451,1.004,3.242,1.391,4.977,1.075l-0.551-3.119
	c-1.002,0.177-2.033-0.076-2.84-0.698c-3.025-2.07-7.148-1.342-9.283,1.637c-0.546,0.86-1.43,1.451-2.432,1.628
	c-0.457,0.092-0.93,0.081-1.383-0.033c0.938-0.248,1.803-0.708,2.533-1.344c1.357-1.126,2.212-2.747,2.375-4.503
	c0.043-1.019,0.512-1.971,1.293-2.625c0.777-0.662,1.8-0.958,2.809-0.817c1.762,0.16,3.511-0.403,4.848-1.558l-2.041-2.424
	c-0.789,0.638-1.801,0.932-2.809,0.815c-3.654-0.279-6.863,2.412-7.223,6.06c-0.041,1.017-0.51,1.969-1.289,2.624
	c-0.78,0.654-1.799,0.951-2.809,0.816c-0.987-0.076-1.98,0.056-2.914,0.39c-0.436-0.756-1.072-1.377-1.838-1.796l7.079-14.142
	c0.245-0.493,0.219-1.077-0.072-1.545c-0.29-0.467-0.804-0.75-1.353-0.747c-1.115,0.01-2.187-0.437-2.965-1.235
	c-2.795-2.575-7.098-2.575-9.893,0c-0.785,0.792-1.854,1.236-2.969,1.236c-1.116,0-2.184-0.445-2.97-1.236
	c-2.798-2.574-7.101-2.574-9.899,0c-0.781,0.799-1.855,1.246-2.972,1.235c-0.549,0-1.059,0.283-1.347,0.75
	c-0.29,0.466-0.315,1.05-0.07,1.541l7.071,14.142c-1.198,0.64-2.062,1.766-2.367,3.089c-0.305,1.324-0.023,2.714,0.775,3.815
	c-14.518,3.899-24.619,17.047-24.645,32.08v28.5c0.005,4.371,3.546,7.912,7.917,7.917h57c4.37-0.005,7.912-3.546,7.918-7.917v-28.5
	C291.141,252.05,281.039,238.903,266.521,235.003z M243.866,212.903c0.786-0.792,1.855-1.237,2.972-1.237
	c1.116,0,2.186,0.445,2.972,1.237c2.796,2.573,7.098,2.573,9.896,0c0.784-0.792,1.853-1.237,2.968-1.237
	c1.113,0,2.182,0.445,2.967,1.237c0.756,0.667,1.627,1.194,2.569,1.553l-6.522,13.043h-13.876l-6.52-13.042
	C242.236,214.097,243.108,213.571,243.866,212.903z M246.833,233.833c-0.875,0-1.583-0.709-1.583-1.583
	c0-0.875,0.708-1.583,1.583-1.583h15.833c0.874,0,1.583,0.709,1.583,1.583c0,0.874-0.709,1.583-1.583,1.583H246.833z M288,295.583
	c0,2.623-2.127,4.75-4.75,4.75h-57c-2.624,0-4.75-2.127-4.75-4.75v-28.5c0.018-16.607,13.476-30.065,30.083-30.083h6.333
	c16.606,0.019,30.065,13.476,30.083,30.083V295.583z"/>
<path fill="#00ADEF" d="M244.13,278.63l19.001-19l2.239,2.238l-19,19.001L244.13,278.63z"/>
<path fill="#00ADEF" d="M261.084,271.833c-2.625,0-4.75,2.127-4.75,4.75s2.125,4.75,4.75,4.75c2.623,0,4.75-2.127,4.75-4.75
	S263.707,271.833,261.084,271.833z M261.084,278.166c-0.875,0-1.584-0.708-1.584-1.583c0-0.874,0.709-1.583,1.584-1.583
	c0.874,0,1.583,0.709,1.583,1.583C262.667,277.458,261.958,278.166,261.084,278.166z"/>
<path fill="#00ADEF" d="M248.417,268.666c2.623,0,4.75-2.126,4.75-4.75c0-2.623-2.127-4.75-4.75-4.75c-2.624,0-4.75,2.127-4.75,4.75
	C243.667,266.54,245.793,268.666,248.417,268.666z M248.417,262.333c0.874,0,1.583,0.709,1.583,1.583
	c0,0.875-0.709,1.584-1.583,1.584c-0.875,0-1.583-0.709-1.583-1.584C246.833,263.042,247.542,262.333,248.417,262.333z"/>
<path fill="#00ADEF" d="M254.75,248.083c-12.243,0-22.167,9.925-22.167,22.167s9.923,22.167,22.167,22.167
	c12.242,0,22.167-9.925,22.167-22.167C276.904,258.013,266.987,248.096,254.75,248.083z M254.75,289.25c-10.493,0-19-8.507-19-19
	c0-10.494,8.507-19,19-19s19,8.506,19,19C273.738,280.738,265.238,289.238,254.75,289.25z"/>
</svg>
