<?xml version="1.0" encoding="utf-8"?>
<!-- Generator: Adobe Illustrator 15.1.0, SVG Export Plug-In . SVG Version: 6.00 Build 0)  -->
<!DOCTYPE svg PUBLIC "-//W3C//DTD SVG 1.1//EN" "http://www.w3.org/Graphics/SVG/1.1/DTD/svg11.dtd">
<svg version="1.1" id="Capa_1" xmlns="http://www.w3.org/2000/svg" xmlns:xlink="http://www.w3.org/1999/xlink" x="0px" y="0px"
	 width="512px" height="512px" viewBox="0 0 512 512" enable-background="new 0 0 512 512" xml:space="preserve">
<circle fill="#00ADEF" cx="386" cy="210" r="20"/>
<path fill="#003D55" d="M432,40h-26V20c0-11.046-8.954-20-20-20s-20,8.954-20,20v20h-91V20c0-11.046-8.954-20-20-20s-20,8.954-20,20
	v20h-90V20c0-11.046-8.954-20-20-20s-20,8.954-20,20v20H80C35.888,40,0,75.888,0,120v312c0,44.112,35.888,80,80,80h153
	c11.046,0,20-8.954,20-20s-8.954-20-20-20H80c-22.056,0-40-17.944-40-40V120c0-22.056,17.944-40,40-40h25v20
	c0,11.046,8.954,20,20,20s20-8.954,20-20V80h90v20c0,11.046,8.954,20,20,20s20-8.954,20-20V80h91v20c0,11.046,8.954,20,20,20
	s20-8.954,20-20V80h26c22.056,0,40,17.944,40,40v114c0,11.046,8.954,20,20,20s20-8.954,20-20V120C512,75.888,476.112,40,432,40z"/>
<path fill="#003D55" d="M392.08,271.096c-66.719,0-121,54.28-121,121s54.281,121,121,121c66.721,0,121-54.28,121-121
	S458.801,271.096,392.08,271.096z M392.08,473.096c-44.662,0-81-36.336-81-81s36.338-81,81-81c44.664,0,81,36.336,81,81
	S436.744,473.096,392.08,473.096z"/>
<circle fill="#00ADEF" cx="299" cy="210" r="20"/>
<circle fill="#00ADEF" cx="212" cy="297" r="20"/>
<circle fill="#00ADEF" cx="125" cy="210" r="20"/>
<circle fill="#00ADEF" cx="125" cy="297" r="20"/>
<circle fill="#00ADEF" cx="125" cy="384" r="20"/>
<circle fill="#00ADEF" cx="212" cy="384" r="20"/>
<circle fill="#00ADEF" cx="212" cy="210" r="20"/>
<g>
	<path fill="#00ADEF" d="M333.713,365.952h21.837c4.756,0,8.317,1.131,10.687,3.394c2.367,2.262,3.552,5.48,3.552,9.656
		c0,4.292-1.29,7.646-3.871,10.063s-6.521,3.625-11.817,3.625h-7.192v15.775h-13.194V365.952z M346.907,384.077h3.22
		c2.532,0,4.311-0.439,5.336-1.319c1.024-0.88,1.536-2.006,1.536-3.379c0-1.334-0.444-2.465-1.334-3.393
		c-0.889-0.928-2.562-1.392-5.017-1.392h-3.741V384.077z"/>
	<path fill="#00ADEF" d="M397.752,401.448h-14.914l-2.072,7.018h-13.413l15.979-42.514h14.33l15.975,42.514h-13.757L397.752,401.448
		z M395.027,392.255l-4.692-15.282l-4.644,15.282H395.027z"/>
	<path fill="#00ADEF" d="M408.474,365.952h14.593l8.565,14.343l8.583-14.343h14.514l-16.53,24.708v17.806h-13.165V390.66
		L408.474,365.952z"/>
</g>
</svg>
