<?xml version="1.0" encoding="utf-8"?>
<!-- Generator: Adobe Illustrator 15.1.0, SVG Export Plug-In . SVG Version: 6.00 Build 0)  -->
<!DOCTYPE svg PUBLIC "-//W3C//DTD SVG 1.1//EN" "http://www.w3.org/Graphics/SVG/1.1/DTD/svg11.dtd">
<svg version="1.1" id="Capa_1" xmlns="http://www.w3.org/2000/svg" xmlns:xlink="http://www.w3.org/1999/xlink" x="0px" y="0px"
	 width="512px" height="512px" viewBox="0 0 512 512" enable-background="new 0 0 512 512" xml:space="preserve">
<path fill="#00ADEF" d="M454.748,0H155.644c-17.117,0-31.043,13.926-31.043,31.043v69.469
	c-56.74,16.238-98.391,68.577-98.391,130.462s41.65,114.224,98.391,130.461v119.523c0,17.117,13.926,31.043,31.043,31.043H400.07
	c2.899,0,5.68-1.151,7.731-3.202l74.787-74.788c2.05-2.05,3.202-4.831,3.202-7.731V31.043C485.791,13.926,471.865,0,454.748,0z
	 M155.644,21.867h299.104c5.059,0,9.176,4.116,9.176,9.176v32.998H146.468V31.043C146.468,25.983,150.584,21.867,155.644,21.867z
	 M48.077,230.973c0-62.752,51.052-113.803,113.803-113.803s113.804,51.051,113.804,113.803c0,62.751-51.052,113.804-113.804,113.804
	S48.077,293.725,48.077,230.973z M146.468,480.958V365.764c5.061,0.574,10.201,0.881,15.413,0.881
	c40.751,0,77.36-18.063,102.25-46.601h66.993c6.038,0,10.934-4.895,10.934-10.934c0-6.038-4.896-10.933-10.934-10.933h-51.421
	c9.511-16.609,15.604-35.41,17.332-55.441h34.088c6.038,0,10.934-4.895,10.934-10.934c0-6.038-4.896-10.934-10.934-10.934h-33.949
	c-1.479-19.986-7.311-38.78-16.543-55.439h50.49c6.039,0,10.934-4.895,10.934-10.934s-4.895-10.934-10.934-10.934h-65.574
	c-24.905-29.493-62.134-48.261-103.669-48.261c-5.212,0-10.353,0.306-15.414,0.881V85.908H463.92v329.437h-43.743
	c-17.118,0-31.042,13.927-31.042,31.042v43.746H155.644C150.584,490.133,146.468,486.018,146.468,480.958z M411.005,474.67v-28.282
	c0-5.06,4.116-9.175,9.175-9.175h28.281L411.005,474.67z"/>
<path fill="#003D55" d="M374.082,165.43h36.31c6.038,0,10.934-4.895,10.934-10.934s-4.896-10.934-10.934-10.934h-36.31
	c-6.039,0-10.934,4.895-10.934,10.934S368.043,165.43,374.082,165.43z"/>
<path fill="#003D55" d="M374.082,242.736h36.31c6.038,0,10.934-4.895,10.934-10.934c0-6.038-4.896-10.934-10.934-10.934h-36.31
	c-6.039,0-10.934,4.896-10.934,10.934C363.148,237.841,368.043,242.736,374.082,242.736z"/>
<path fill="#003D55" d="M374.082,320.044h36.31c6.038,0,10.934-4.895,10.934-10.934c0-6.038-4.896-10.933-10.934-10.933h-36.31
	c-6.039,0-10.934,4.895-10.934,10.933C363.148,315.149,368.043,320.044,374.082,320.044z"/>
<path fill="#003D55" d="M410.392,397.352c6.038,0,10.934-4.896,10.934-10.934c0-6.039-4.896-10.934-10.934-10.934H308.11
	c-6.039,0-10.934,4.895-10.934,10.934c0,6.038,4.895,10.934,10.934,10.934H410.392z"/>
<g>
	<path fill="#003D55" d="M75.715,200.939h31.62c6.887,0,12.044,1.638,15.474,4.913c3.429,3.275,5.144,7.937,5.144,13.983
		c0,6.215-1.869,11.072-5.606,14.571c-3.737,3.5-9.442,5.249-17.112,5.249H94.821V262.5H75.715V200.939z M94.821,227.185h4.661
		c3.667,0,6.242-0.636,7.727-1.911c1.483-1.273,2.226-2.904,2.226-4.892c0-1.932-0.645-3.569-1.932-4.913
		c-1.288-1.344-3.71-2.016-7.265-2.016h-5.417V227.185z"/>
	<path fill="#003D55" d="M168.445,252.338h-21.596l-3,10.162h-19.423l23.138-61.561h20.75l23.132,61.561h-19.92L168.445,252.338z
		 M164.5,239.026l-6.795-22.13l-6.724,22.13H164.5z"/>
	<path fill="#003D55" d="M183.971,200.939h21.13l12.403,20.768l12.428-20.768h21.017l-23.936,35.777V262.5h-19.064v-25.783
		L183.971,200.939z"/>
</g>
</svg>
