<?xml version="1.0" encoding="utf-8"?>
<!-- Generator: Adobe Illustrator 15.1.0, SVG Export Plug-In . SVG Version: 6.00 Build 0)  -->
<!DOCTYPE svg PUBLIC "-//W3C//DTD SVG 1.1//EN" "http://www.w3.org/Graphics/SVG/1.1/DTD/svg11.dtd">
<svg version="1.1" id="Capa_1" xmlns="http://www.w3.org/2000/svg" xmlns:xlink="http://www.w3.org/1999/xlink" x="0px" y="0px"
	 width="512px" height="512px" viewBox="0 0 512 512" enable-background="new 0 0 512 512" xml:space="preserve">
<g>
	<path fill="#003D55" d="M255.16,285.846c75.666,0,137.038-61.373,137.038-137.038S330.824,12.19,255.16,12.19
		S118.122,73.563,118.122,148.808C118.122,224.053,179.494,285.846,255.16,285.846z M255.16,47.921
		c55.487,0,100.887,45.399,100.887,100.887c0,55.488-45.4,100.886-100.887,100.886c-55.488,0-100.887-45.398-100.887-100.887
		S199.671,47.921,255.16,47.921z"/>
	<path fill="#003D55" d="M18.075,499.81h475.85c10.089,0,18.075-7.986,18.075-18.075c0-94.582-76.926-171.928-171.928-171.928
		H171.928C77.347,309.807,0,386.732,0,481.734C0,491.823,7.987,499.81,18.075,499.81z M171.928,345.957h168.145
		c68.938,0,125.688,51.284,134.516,117.701H37.412C46.239,397.662,102.989,345.957,171.928,345.957z"/>
</g>
</svg>
