<?xml version="1.0" encoding="utf-8"?>
<!-- Generator: Adobe Illustrator 15.1.0, SVG Export Plug-In . SVG Version: 6.00 Build 0)  -->
<!DOCTYPE svg PUBLIC "-//W3C//DTD SVG 1.1//EN" "http://www.w3.org/Graphics/SVG/1.1/DTD/svg11.dtd">
<svg version="1.1" id="Layer_1" xmlns="http://www.w3.org/2000/svg" xmlns:xlink="http://www.w3.org/1999/xlink" x="0px" y="0px"
	 width="512px" height="512px" viewBox="0 0 512 512" enable-background="new 0 0 512 512" xml:space="preserve">
<path fill="#003D55" d="M426.667,90.402V42.667C426.637,19.115,407.552,0.03,384,0H42.667C19.115,0.03,0.03,19.115,0,42.667V230.4
	c0.066,21.792,16.584,40.017,38.264,42.227l32.077,83.267c8.474,21.986,33.165,32.938,55.153,24.477l200.31-77.162
	c-13.842,36.153-9.901,76.71,10.628,109.526l4.903,7.841v82.893c0,4.715,3.818,8.533,8.533,8.533h153.6
	c4.716,0,8.533-3.818,8.533-8.533V221.792c-0.081-29.51-11.829-57.786-32.692-78.656L426.667,90.402z M426.667,141.436l25.897,67.23
	c5.076,13.197-1.502,28.004-14.695,33.084l-14.805,5.717c2.364-5.38,3.59-11.196,3.603-17.067V141.436z M17.066,230.4V42.667
	c0-14.135,11.465-25.6,25.6-25.6H384c14.136,0,25.6,11.465,25.6,25.6v54.238h-0.073l0.073,0.194V230.4
	c-0.064,1.489-0.26,2.965-0.58,4.42l-78.164-78.174c-17.57-17.165-45.582-17.297-63.31-0.312
	c-17.732,16.996-18.797,44.985-2.397,63.268L298.471,256H42.667C28.531,256,17.066,244.536,17.066,230.4z M126.387,273.066
	l-60.681,23.361l-8.977-23.361H126.387z M119.355,364.439c-13.192,5.086-28.008-1.491-33.092-14.685L71.868,312.32l101.862-39.254
	v-0.051h140.382l11.091,12.092L119.355,364.439z M494.934,494.934H358.4v-68.267h136.533V494.934L494.934,494.934z M494.934,409.6
	h-140.33l-3.701-5.912c-20.808-33.25-21.635-75.247-2.161-109.287c1.844-3.221,1.391-7.267-1.117-10.002l-69.931-76.288
	c-10.428-11.413-9.84-29.058,1.324-39.748c11.168-10.692,28.82-10.518,39.77,0.388l96.993,96.97l19.479-4.66l0,0l8.755-3.414
	c21.97-8.475,32.919-33.145,24.466-55.126l-28.884-75l27.645,27.701c17.664,17.66,27.625,41.592,27.692,66.571V409.6z"/>
<path fill="#00ADEF" d="M42.667,145.066H76.8v17.067H42.667V145.066z"/>
<path fill="#00ADEF" d="M42.667,196.267H76.8v17.067H42.667V196.267z"/>
<path fill="#00ADEF" d="M196.267,196.267H230.4v17.067h-34.133V196.267z"/>
<path fill="#00ADEF" d="M93.867,145.066H128v17.067H93.867V145.066z"/>
<path fill="#00ADEF" d="M145.066,145.066H179.2v17.067h-34.134V145.066z"/>
<path fill="#00ADEF" d="M196.267,145.066H230.4v17.067h-34.133V145.066z"/>
<path fill="#00ADEF" d="M358.4,42.667h17.065v25.6H358.4V42.667z"/>
<path fill="#00ADEF" d="M324.268,42.667h17.066v25.6h-17.066V42.667z"/>
<path fill="#00ADEF" d="M290.133,42.667H307.2v25.6h-17.067V42.667z"/>
<path fill="#00ADEF" d="M256,42.667h17.066v25.6H256V42.667z"/>
<path fill="#00ADEF" d="M375.467,443.733h17.066V460.8h-17.066V443.733z"/>
<g>
	<g>
		<defs>
			<rect id="SVGID_1_" x="42.667" y="42.667" width="73.505" height="73.167"/>
		</defs>
		<clipPath id="SVGID_2_">
			<use xlink:href="#SVGID_1_"  overflow="visible"/>
		</clipPath>
		<g transform="matrix(1 0 0 1 -1.391089e-006 -1.391089e-006)" clip-path="url(#SVGID_2_)">
			
				<image overflow="visible" enable-background="new    " width="1086" height="1081" xlink:href="3331873B.png"  transform="matrix(0.0677 0 0 0.0677 42.667 42.667)">
			</image>
		</g>
	</g>
</g>
</svg>
