<?xml version="1.0" encoding="utf-8"?>
<!-- Generator: Adobe Illustrator 15.1.0, SVG Export Plug-In . SVG Version: 6.00 Build 0)  -->
<!DOCTYPE svg PUBLIC "-//W3C//DTD SVG 1.1//EN" "http://www.w3.org/Graphics/SVG/1.1/DTD/svg11.dtd">
<svg version="1.1" id="Layer_1" xmlns="http://www.w3.org/2000/svg" xmlns:xlink="http://www.w3.org/1999/xlink" x="0px" y="0px"
	 width="512px" height="512px" viewBox="-208 -208 512 512" enable-background="new -208 -208 512 512" xml:space="preserve">
<title  class="active-path" style="">Rent</title>
<g>
	<path fill="#003D55" d="M255.537-66.143h-34.591L60.46-186.509c-7.388-5.529-17.528-5.529-24.904,0L-124.936-66.143h-34.596
		c-22.904,0.022-41.47,18.593-41.503,41.502v269.783c0.033,22.921,18.599,41.486,41.503,41.514h415.063
		c22.91-0.027,41.476-18.593,41.503-41.514V-24.641C297.013-47.55,278.441-66.121,255.537-66.143z M48.008-143.969l103.768,77.826
		H-55.754L48.008-143.969z M255.537,245.138h-415.059V-24.641h415.059l0.027,269.778H255.537z"/>
	<path fill="#00ADEF" d="M205.336,103.741L60.066-0.021c-7.212-5.158-16.911-5.158-24.128,0l-145.27,103.762l24.128,33.771
		l29.444-21.036v87.164c0,11.463,9.294,20.756,20.751,20.756h166.027c11.463,0,20.757-9.293,20.757-20.756v-87.164l29.443,21.036
		L205.336,103.741z M110.262,182.884H68.765V120.63H27.256v62.254h-41.508V86.842l62.259-44.469l62.254,44.469V182.884z"/>
	<g>
		<path fill="#003D55" d="M-118.014-3.889c11.458,0,20.751,9.294,20.751,20.751c0,11.463-9.294,20.751-20.751,20.751
			c-11.463,0-20.751-9.288-20.751-20.751C-138.765,5.405-129.477-3.889-118.014-3.889z"/>
		<path fill="#003D55" d="M-118.014,182.884c11.463,0,20.757,9.288,20.757,20.757c0,11.463-9.294,20.756-20.757,20.756
			c-11.468,0-20.757-9.293-20.757-20.756C-138.771,192.172-129.482,182.884-118.014,182.884z"/>
		<path fill="#003D55" d="M214.029-3.889c11.457,0,20.751,9.294,20.751,20.751c0,11.463-9.294,20.751-20.751,20.751
			c-11.458,0-20.752-9.288-20.752-20.751C193.277,5.405,202.571-3.889,214.029-3.889z"/>
		<path fill="#003D55" d="M214.029,182.884c11.463,0,20.757,9.288,20.757,20.757c0,11.463-9.294,20.756-20.757,20.756
			s-20.757-9.293-20.757-20.756C193.272,192.172,202.566,182.884,214.029,182.884z"/>
	</g>
</g>
</svg>
