<?xml version="1.0" encoding="utf-8"?>
<!-- Generator: Adobe Illustrator 15.1.0, SVG Export Plug-In . SVG Version: 6.00 Build 0)  -->
<!DOCTYPE svg PUBLIC "-//W3C//DTD SVG 1.1//EN" "http://www.w3.org/Graphics/SVG/1.1/DTD/svg11.dtd">
<svg version="1.1" id="Layer_1" xmlns="http://www.w3.org/2000/svg" xmlns:xlink="http://www.w3.org/1999/xlink" x="0px" y="0px"
	 width="96px" height="96px" viewBox="0 0 96 96" enable-background="new 0 0 96 96" xml:space="preserve">
<path fill="#00ADEF" d="M49.51,16.58h11.857c0.625,0,1.131-0.506,1.131-1.131s-0.506-1.13-1.131-1.13H49.51
	c-0.625,0-1.13,0.505-1.13,1.13S48.885,16.58,49.51,16.58z"/>
<path fill="#00ADEF" d="M49.51,21.37h11.857c0.625,0,1.131-0.506,1.131-1.13c0-0.625-0.506-1.13-1.131-1.13H49.51
	c-0.625,0-1.13,0.505-1.13,1.13C48.379,20.864,48.885,21.37,49.51,21.37z"/>
<path fill="#00ADEF" d="M25.094,48.536h0.438c0.625,0,1.131-0.507,1.131-1.131s-0.506-1.131-1.131-1.131h-0.438
	c-0.625,0-1.131,0.507-1.131,1.131S24.469,48.536,25.094,48.536z"/>
<path fill="#00ADEF" d="M33.211,46.274h-3.31c-0.624,0-1.13,0.507-1.13,1.131s0.507,1.131,1.13,1.131h3.31
	c0.625,0,1.131-0.507,1.131-1.131C34.34,46.781,33.834,46.274,33.211,46.274z"/>
<path fill="#00ADEF" d="M61.367,46.274H37.651c-0.624,0-1.13,0.507-1.13,1.131s0.506,1.131,1.13,1.131h23.716
	c0.625,0,1.131-0.507,1.131-1.131S61.992,46.274,61.367,46.274z"/>
<path fill="#00ADEF" d="M25.094,39.205h0.438c0.625,0,1.131-0.506,1.131-1.13s-0.506-1.13-1.131-1.13h-0.438
	c-0.625,0-1.131,0.506-1.131,1.13S24.469,39.205,25.094,39.205z"/>
<path fill="#00ADEF" d="M33.211,36.944h-3.31c-0.624,0-1.13,0.506-1.13,1.13s0.507,1.13,1.13,1.13h3.31
	c0.625,0,1.131-0.506,1.131-1.13S33.834,36.944,33.211,36.944z"/>
<path fill="#00ADEF" d="M61.367,36.944H37.651c-0.624,0-1.13,0.506-1.13,1.13s0.506,1.13,1.13,1.13h23.716
	c0.625,0,1.131-0.506,1.131-1.13S61.992,36.944,61.367,36.944z"/>
<path fill="#00ADEF" d="M25.094,59.751h0.438c0.625,0,1.131-0.506,1.131-1.13c0-0.625-0.506-1.131-1.131-1.131h-0.438
	c-0.625,0-1.131,0.506-1.131,1.131C23.963,59.245,24.469,59.751,25.094,59.751z"/>
<path fill="#00ADEF" d="M33.211,57.49h-3.31c-0.624,0-1.13,0.506-1.13,1.131c0,0.624,0.507,1.13,1.13,1.13h3.31
	c0.625,0,1.131-0.506,1.131-1.13C34.34,57.996,33.834,57.49,33.211,57.49z"/>
<path fill="#00ADEF" d="M27.877,69.919c0.912,0.001,1.649,0.74,1.651,1.652c0,0.625,0.505,1.131,1.13,1.131
	c0.624,0,1.131-0.506,1.131-1.131c-0.002-1.725-1.133-3.244-2.783-3.744v-0.566c0-0.623-0.506-1.129-1.131-1.129
	c-0.623,0-1.129,0.506-1.129,1.129v0.566c-1.857,0.561-3.023,2.396-2.74,4.316c0.283,1.918,1.931,3.341,3.871,3.341
	c0.912-0.007,1.655,0.729,1.662,1.641c0.004,0.912-0.729,1.656-1.643,1.662c-0.006,0-0.014,0-0.02,0c-0.008,0-0.014,0-0.021,0
	c-0.904-0.012-1.63-0.747-1.632-1.651c0-0.623-0.506-1.131-1.131-1.131c-0.623,0-1.129,0.508-1.129,1.131
	c0.002,1.726,1.131,3.246,2.781,3.746v0.691c0,0.623,0.506,1.13,1.131,1.13s1.129-0.507,1.129-1.13v-0.691
	c1.857-0.561,3.024-2.397,2.742-4.316c-0.283-1.92-1.932-3.342-3.873-3.342c-0.904-0.011-1.633-0.746-1.633-1.651
	S26.971,69.931,27.877,69.919z"/>
<path fill="#00ADEF" d="M37.956,69.919c0.912,0.001,1.651,0.74,1.652,1.652c0,0.625,0.506,1.131,1.13,1.131s1.132-0.506,1.132-1.131
	c-0.003-1.725-1.133-3.244-2.783-3.744v-0.566c0-0.623-0.506-1.129-1.131-1.129c-0.623,0-1.13,0.506-1.13,1.129v0.566
	c-1.856,0.561-3.022,2.396-2.739,4.316c0.283,1.918,1.931,3.341,3.871,3.341c0.911-0.007,1.654,0.729,1.66,1.641
	c0.006,0.912-0.729,1.656-1.641,1.662c-0.006,0-0.014,0-0.02,0c-0.007,0-0.014,0-0.021,0c-0.903-0.012-1.63-0.747-1.632-1.651
	c0-0.623-0.506-1.131-1.131-1.131c-0.623,0-1.129,0.508-1.129,1.131c0.002,1.726,1.131,3.246,2.781,3.746v0.691
	c0,0.623,0.506,1.13,1.131,1.13c0.623,0,1.129-0.507,1.129-1.13v-0.691c1.858-0.561,3.024-2.397,2.741-4.316
	c-0.282-1.92-1.932-3.342-3.872-3.342c-0.595,0.006-1.146-0.308-1.445-0.821c-0.299-0.513-0.299-1.147,0-1.661
	C36.81,70.228,37.361,69.913,37.956,69.919z"/>
<path fill="#00ADEF" d="M25.094,30.95h18.662c0.625,0,1.131-0.506,1.131-1.131V15.45c0-0.625-0.506-1.13-1.131-1.13H25.094
	c-0.625,0-1.131,0.505-1.131,1.13v14.369C23.963,30.444,24.469,30.95,25.094,30.95z M26.225,16.58h16.402v12.108H26.225V16.58z"/>
<path fill="#00ADEF" d="M49.51,30.95h11.857c0.625,0,1.131-0.506,1.131-1.131s-0.506-1.131-1.131-1.131H49.51
	c-0.625,0-1.13,0.507-1.13,1.131C48.379,30.444,48.885,30.95,49.51,30.95z"/>
<path fill="#00ADEF" d="M49.51,26.16h11.857c0.625,0,1.131-0.506,1.131-1.13c0-0.625-0.506-1.131-1.131-1.131H49.51
	c-0.625,0-1.13,0.507-1.13,1.131C48.379,25.653,48.885,26.16,49.51,26.16z"/>
<path fill="#003D55" d="M68.232,49.142V3.368c0-0.43-0.246-0.821-0.633-1.006c-0.387-0.186-0.848-0.133-1.184,0.135l-5.35,4.28
	l-5.354-4.28c-0.408-0.327-0.986-0.327-1.395,0l-5.354,4.28l-5.35-4.28c-0.407-0.327-0.987-0.327-1.396,0l-5.353,4.28l-5.351-4.28
	c-0.408-0.327-0.988-0.327-1.396,0l-5.349,4.28l-5.351-4.28c-0.334-0.27-0.793-0.322-1.182-0.137
	c-0.387,0.186-0.634,0.578-0.633,1.008v87.751c0,0.431,0.246,0.821,0.632,1.007c0.388,0.188,0.847,0.135,1.183-0.134l5.352-4.281
	l5.354,4.281c0.407,0.325,0.987,0.325,1.396,0l5.353-4.281l5.352,4.281c0.408,0.325,0.986,0.325,1.396,0l5.396-4.317
	c6.898,8.174,18.457,10.644,28.094,6.002s14.91-15.219,12.818-25.709S78.914,49.733,68.232,49.142z M42.922,89.688l-5.353-4.28
	c-0.407-0.326-0.987-0.326-1.396,0l-5.353,4.28l-5.351-4.28c-0.409-0.326-0.988-0.326-1.396,0l-4.234,3.388V5.692l4.233,3.388
	c0.408,0.327,0.988,0.327,1.396,0L30.82,4.8l5.351,4.28c0.408,0.327,0.988,0.327,1.396,0l5.352-4.28l5.352,4.28
	c0.408,0.327,0.988,0.327,1.396,0l5.352-4.28l5.352,4.28c0.408,0.327,0.99,0.327,1.396,0L66,5.692v43.433
	c-6.291,0.249-12.219,3.022-16.441,7.695H37.406c-0.616,0-1.116,0.501-1.116,1.116c0,0.617,0.5,1.117,1.116,1.117h10.36
	c-5.68,8.035-5.723,18.767-0.11,26.849L42.922,89.688z M66.93,93.774c-11.719,0-21.218-9.5-21.218-21.217
	c0-11.721,9.5-21.22,21.218-21.22s21.219,9.499,21.219,21.22C88.135,84.269,78.643,93.763,66.93,93.774z"/>
<path fill="#00ADEF" d="M68.51,58.72c-0.199-0.348-0.572-0.561-0.975-0.561s-0.771,0.213-0.977,0.561l-8.188,13.977
	c-2.695,4.609-1.549,10.503,2.676,13.767c4.227,3.265,10.219,2.882,13.994-0.891c3.416-3.417,4.098-8.708,1.656-12.876L68.51,58.72z
	 M73.445,83.974c-2.971,2.974-7.691,3.273-11.02,0.705c-3.326-2.57-4.229-7.213-2.104-10.84l7.213-12.313l7.211,12.313
	C76.668,77.119,76.133,81.283,73.445,83.974z"/>
<path fill="#00ADEF" d="M72.938,76.813c-0.613-0.123-1.209,0.272-1.332,0.886c-0.291,1.44-1.324,2.622-2.715,3.104
	c-0.387,0.127-0.674,0.453-0.754,0.852c-0.078,0.398,0.064,0.809,0.371,1.074c0.307,0.268,0.734,0.348,1.115,0.211
	c2.15-0.742,3.746-2.564,4.197-4.793C73.945,77.534,73.549,76.937,72.938,76.813z"/>
</svg>
