<?xml version="1.0" encoding="utf-8"?>
<!-- Generator: Adobe Illustrator 15.1.0, SVG Export Plug-In . SVG Version: 6.00 Build 0)  -->
<!DOCTYPE svg PUBLIC "-//W3C//DTD SVG 1.1//EN" "http://www.w3.org/Graphics/SVG/1.1/DTD/svg11.dtd">
<svg version="1.1" id="Outline" xmlns="http://www.w3.org/2000/svg" xmlns:xlink="http://www.w3.org/1999/xlink" x="0px" y="0px"
	 width="96px" height="96px" viewBox="208 208 96 96" enable-background="new 208 208 96 96" xml:space="preserve">
<path fill="#003D55" d="M298.085,260.676h-13.569l8.012-30.711c0.671-2.575-0.872-5.206-3.446-5.877
	c-2.522-0.658-5.11,0.81-5.841,3.313l-9.705,33.276h-35.07l-9.706-33.276c-0.745-2.554-3.42-4.02-5.974-3.275
	c-2.501,0.73-3.969,3.317-3.312,5.839l8.011,30.712h-13.569c-2.582,0.003-4.673,2.095-4.676,4.677v9.353
	c0.007,6.022,4.888,10.902,10.911,10.91h4.676c0.002,3.443,2.794,6.233,6.238,6.232c3.44-0.002,6.229-2.791,6.231-6.232h37.409
	c0,3.443,2.79,6.235,6.233,6.235c3.444,0,6.235-2.792,6.235-6.235h4.676c6.023-0.008,10.904-4.888,10.911-10.91v-9.353
	C302.758,262.771,300.666,260.679,298.085,260.676z M286.232,228.271c0.263-0.901,1.207-1.419,2.108-1.156
	c0.884,0.258,1.401,1.171,1.17,2.061l-8.217,31.5h-4.512L286.232,228.271z M222.49,229.176c-0.236-0.908,0.308-1.837,1.217-2.074
	c0.89-0.231,1.803,0.287,2.061,1.169l9.451,32.404h-4.511L222.49,229.176z M231.061,288.732c-1.721-0.002-3.116-1.396-3.118-3.117
	h6.235C234.176,287.336,232.782,288.73,231.061,288.732z M220.15,282.498c-4.302-0.005-7.789-3.491-7.793-7.793v-9.353
	c0.001-0.86,0.698-1.559,1.559-1.56h56.113v18.705H220.15z M280.938,288.732c-1.72-0.002-3.114-1.396-3.116-3.117h6.233
	C284.054,287.336,282.66,288.73,280.938,288.732z M299.644,274.705c-0.005,4.302-3.491,7.788-7.794,7.793h-18.704v-18.705h24.939
	c0.859,0.001,1.558,0.699,1.559,1.56V274.705z"/>
<path fill="#00ADEF" d="M224.826,268.47h-3.118c-1.721,0.002-3.115,1.396-3.117,3.117v3.118c0.002,1.72,1.396,3.115,3.117,3.117
	h3.118c1.721-0.002,3.115-1.397,3.117-3.117v-3.118C227.941,269.866,226.547,268.472,224.826,268.47z M224.826,274.705h-3.118
	v-3.118h3.118V274.705z"/>
<path fill="#00ADEF" d="M290.291,274.705h3.117v3.117h-3.117V274.705z"/>
<path fill="#00ADEF" d="M284.056,274.705h3.118v3.117h-3.118V274.705z"/>
<path fill="#00ADEF" d="M277.822,274.705h3.116v3.117h-3.116V274.705z"/>
<path fill="#00ADEF" d="M290.291,268.47h3.117v3.117h-3.117V268.47z"/>
<path fill="#00ADEF" d="M284.056,268.47h3.118v3.117h-3.118V268.47z"/>
<path fill="#00ADEF" d="M277.822,268.47h3.116v3.117h-3.116V268.47z"/>
<path fill="#00ADEF" d="M263.714,238.933c-4.26-4.26-11.167-4.261-15.427-0.001c0,0-0.001,0.001-0.001,0.001l2.204,2.204
	c3.043-3.043,7.977-3.043,11.02,0l0,0L263.714,238.933z"/>
<path fill="#00ADEF" d="M269.226,233.422c-7.309-7.292-19.142-7.292-26.451,0l2.204,2.204c6.092-6.077,15.952-6.077,22.043,0
	L269.226,233.422z"/>
<path fill="#00ADEF" d="M274.736,227.912c-10.347-10.348-27.123-10.349-37.47-0.002c-0.001,0.001-0.001,0.002-0.002,0.002
	l2.204,2.204c9.13-9.131,23.933-9.131,33.063-0.001c0.001,0,0.001,0,0.002,0.001L274.736,227.912z"/>
<path fill="#00ADEF" d="M251.324,248.207c0,2.583,2.094,4.676,4.676,4.676c2.583,0,4.676-2.094,4.676-4.676
	s-2.093-4.676-4.676-4.676C253.419,243.534,251.327,245.625,251.324,248.207z M257.559,248.207c0,0.861-0.698,1.559-1.559,1.559
	c-0.861,0-1.559-0.698-1.559-1.559s0.698-1.559,1.559-1.559C256.86,246.648,257.559,247.346,257.559,248.207z"/>
</svg>
