<?xml version="1.0" encoding="utf-8"?>
<!-- Generator: Adobe Illustrator 15.1.0, SVG Export Plug-In . SVG Version: 6.00 Build 0)  -->
<!DOCTYPE svg PUBLIC "-//W3C//DTD SVG 1.1//EN" "http://www.w3.org/Graphics/SVG/1.1/DTD/svg11.dtd">
<svg version="1.1" id="Capa_1" xmlns="http://www.w3.org/2000/svg" xmlns:xlink="http://www.w3.org/1999/xlink" x="0px" y="0px"
	 width="512px" height="512px" viewBox="0 0 512 512" enable-background="new 0 0 512 512" xml:space="preserve">
<g>
	<g>
		<path fill="#C4C3C3" d="M172.55,391.902c-0.13-0.641-0.32-1.271-0.57-1.881c-0.25-0.6-0.56-1.18-0.92-1.72
			c-0.359-0.55-0.78-1.061-1.24-1.521s-0.97-0.88-1.52-1.24c-0.54-0.359-1.12-0.67-1.73-0.92c-0.6-0.25-1.229-0.449-1.869-0.569
			c-1.29-0.261-2.62-0.261-3.9,0c-0.64,0.12-1.271,0.319-1.88,0.569c-0.601,0.25-1.18,0.561-1.72,0.92
			c-0.551,0.36-1.061,0.78-1.521,1.24s-0.88,0.971-1.24,1.521c-0.37,0.54-0.67,1.12-0.92,1.72c-0.25,0.61-0.45,1.24-0.569,1.881
			c-0.131,0.641-0.2,1.3-0.2,1.949c0,0.65,0.069,1.311,0.2,1.951c0.119,0.64,0.319,1.27,0.569,1.869
			c0.25,0.609,0.55,1.189,0.92,1.729c0.36,0.55,0.78,1.061,1.24,1.521s0.97,0.88,1.521,1.239c0.539,0.361,1.119,0.671,1.72,0.921
			c0.609,0.25,1.24,0.45,1.88,0.57c0.64,0.13,1.3,0.2,1.95,0.2c0.649,0,1.31-0.07,1.95-0.2c0.64-0.12,1.27-0.32,1.869-0.57
			c0.61-0.25,1.19-0.561,1.73-0.921c0.55-0.359,1.06-0.779,1.52-1.239s0.881-0.971,1.24-1.521c0.36-0.54,0.67-1.12,0.92-1.729
			c0.25-0.601,0.44-1.229,0.57-1.869c0.13-0.642,0.2-1.301,0.2-1.951C172.75,393.202,172.68,392.543,172.55,391.902z"/>
	</g>
</g>
<g>
	<g>
		<path fill="#C4C3C3" d="M459.992,394.982c-0.039-0.101-0.079-0.199-0.121-0.297c-9.203-21.537-30.79-29.498-56.336-20.772
			l-69.667,19.268c-4.028-12.199-14.075-22.578-28.281-27.852c-0.088-0.031-0.176-0.063-0.266-0.095l-76.58-25.991
			c-6.374-8.238-26.341-29.32-63.724-29.32c-26.125,0-49.235,17.922-62.458,37.457H10c-5.523,0-10,4.477-10,10v126.076
			c0,5.522,4.477,10,10,10h59.457c5.522,0,10-4.478,10-10v-8.634h27.883c5.522,0,10-4.478,10-10v-2.878
			c16.254,1.418,21.6,4.501,36.528,13.108c11.479,6.62,28.831,16.625,60.076,30.674c0.146,0.064,0.292,0.128,0.439,0.186
			c5.997,2.359,17.72,6.064,32.173,6.064c10.061,0,21.445-1.797,33.13-7.094l153.991-55.137c0.273-0.098,0.544-0.208,0.809-0.329
			C449.203,442.646,471.135,423.563,459.992,394.982z M59.457,473.455H20V367.379h39.457V473.455z M97.34,454.821H79.457v-87.442
			H97.34V454.821z M426.495,431.074l-153.921,55.11c-0.136,0.049-0.318,0.12-0.451,0.175c-0.136,0.055-0.271,0.112-0.402,0.174
			c-21.438,9.853-41.813,3.954-49.801,0.85c-30.183-13.581-46.291-22.87-58.062-29.657c-16.363-9.437-24.249-13.983-46.519-15.822
			V361.36c9.479-15.535,27.861-31.438,47.679-31.438c33.986,0,48.387,22.104,48.953,22.997c1.221,1.985,3.098,3.481,5.305,4.231
			l79.476,26.975c12.692,4.765,19.4,15.634,16.317,26.474c-1.424,5.006-4.711,9.158-9.258,11.691
			c-4.506,2.511-9.717,3.132-14.683,1.758l-89.593-28.394c-5.269-1.668-10.887,1.248-12.555,6.514
			c-1.669,5.265,1.247,10.885,6.513,12.554l89.749,28.44c0.095,0.03,0.188,0.06,0.284,0.087c3.584,1.019,7.231,1.522,10.857,1.522
			c6.639,0,13.203-1.691,19.161-5.012c9.213-5.133,15.875-13.547,18.759-23.691c0.23-0.811,0.435-1.62,0.611-2.431l75.082-20.8
			c10.845-3.704,25.079-5.039,31.417,9.559C447.978,419.533,430.928,428.961,426.495,431.074z"/>
	</g>
</g>
<g>
	<g>
		<path fill="#C4C3C3" d="M359.06,131.543c-0.13-0.64-0.318-1.27-0.579-1.88c-0.25-0.6-0.551-1.18-0.921-1.72
			c-0.358-0.55-0.779-1.061-1.239-1.521s-0.971-0.88-1.521-1.239c-0.54-0.36-1.12-0.67-1.72-0.92c-0.61-0.25-1.24-0.45-1.87-0.57
			c-1.29-0.26-2.62-0.26-3.91,0c-0.64,0.12-1.271,0.32-1.87,0.57c-0.609,0.25-1.188,0.56-1.729,0.92
			c-0.551,0.359-1.062,0.779-1.521,1.239s-0.88,0.971-1.239,1.521c-0.359,0.54-0.671,1.12-0.921,1.72
			c-0.25,0.61-0.449,1.24-0.568,1.88c-0.131,0.641-0.2,1.301-0.2,1.95c0,0.65,0.069,1.311,0.2,1.95
			c0.119,0.64,0.318,1.27,0.568,1.87c0.25,0.609,0.562,1.189,0.921,1.729c0.359,0.55,0.779,1.061,1.239,1.521s0.971,0.88,1.521,1.24
			c0.54,0.359,1.119,0.67,1.729,0.92c0.601,0.25,1.23,0.439,1.87,0.569c0.641,0.13,1.3,0.2,1.95,0.2c0.649,0,1.31-0.07,1.96-0.2
			c0.63-0.13,1.26-0.319,1.87-0.569c0.6-0.25,1.18-0.561,1.72-0.92c0.55-0.36,1.061-0.78,1.521-1.24s0.881-0.971,1.239-1.521
			c0.37-0.54,0.671-1.12,0.921-1.729c0.261-0.601,0.449-1.23,0.579-1.87c0.131-0.64,0.19-1.3,0.19-1.95
			C359.25,132.844,359.19,132.183,359.06,131.543z"/>
	</g>
</g>
<path fill="#C4C3C3" d="M502,33.891h-59.457c-5.523,0-10,4.477-10,10v8.634h-27.884c-5.522,0-9.999,4.477-9.999,10v2.878
	c-16.255-1.419-21.602-4.501-36.527-13.109c-11.479-6.62-28.831-16.625-60.078-30.674c-0.145-0.065-0.291-0.127-0.438-0.185
	c-10.173-4.002-36.828-11.876-65.3,1.026L192.077,36.87l-33.92-33.918c-3.905-3.905-10.237-3.905-14.143,0L32.657,114.309
	c-3.603,3.603-4.294,9.85,0,14.143l190.286,190.287c3.045,3.046,10.176,3.967,14.144,0l101.665-101.664
	c2.643,0.229,5.386,0.352,8.229,0.352c26.126,0,49.235-17.923,62.457-37.456H502c5.522,0,10-4.478,10-10V43.891
	C512,38.368,507.523,33.891,502,33.891z M151.085,24.165l22.792,22.792c-6.775,4.19-14.608,6.433-22.792,6.433
	c-8.186,0-16.018-2.241-22.792-6.433L151.085,24.165z M76.663,144.173L53.871,121.38l22.792-22.792
	c4.189,6.775,6.432,14.608,6.432,22.792C83.095,129.564,80.854,137.397,76.663,144.173z M230.016,297.525l-22.788-22.789
	c13.913-8.586,31.661-8.586,45.575,0L230.016,297.525z M267.211,260.331c-22.099-16.03-52.292-16.03-74.391,0L91.07,158.579
	c7.81-10.74,12.025-23.641,12.025-37.199S98.88,94.921,91.07,84.181l22.817-22.816c10.74,7.809,23.64,12.025,37.199,12.025
	c13.559,0,26.459-4.217,37.199-12.025l21.629,21.629c-4.667,0.689-9.219,2.228-13.462,4.592
	c-7.168,3.994-12.792,9.976-16.294,17.211c-11.28,2.09-21.724,7.551-29.915,15.741c-22.226,22.227-22.226,58.389,0.001,80.615
	c11.111,11.112,25.709,16.669,40.307,16.669c14.597,0,29.195-5.556,40.308-16.669c7.23-7.23,12.295-16.116,14.832-25.8
	l33.765,11.459c-3.802,17.607,0.092,36.132,10.593,50.682L267.211,260.331z M206.413,162.018c0.088,0.031,0.176,0.063,0.265,0.094
	l19.996,6.787c-1.51,6.814-4.927,13.081-9.957,18.112c-14.428,14.426-37.904,14.428-52.33,0c-14.428-14.428-14.428-37.902,0-52.33
	c3.48-3.482,7.587-6.203,12.063-8.049C178.295,141.995,189.356,155.688,206.413,162.018z M304.457,223.084
	c-3.859-6.29-6.044-13.469-6.39-20.796c4.789,3.463,10.645,6.856,17.637,9.549L304.457,223.084z M394.659,165.983
	c-9.479,15.538-27.86,31.44-47.679,31.44c-3.708,0-7.184-0.264-10.433-0.733c-0.013-0.002-0.025-0.004-0.039-0.006
	c-21.596-3.138-33.213-15.411-37.042-20.271c-0.204-0.3-1.073-1.437-1.202-1.626c-1.164-2.082-3.074-3.756-5.511-4.583
	l-79.508-26.984c-12.688-4.763-19.396-15.628-16.321-26.464c0.002-0.007,0.004-0.014,0.006-0.021
	c0.003-0.008,0.005-0.017,0.007-0.025c1.43-4.989,4.711-9.129,9.247-11.655c4.506-2.512,9.715-3.135,14.684-1.758l89.593,28.392
	c5.266,1.671,10.886-1.247,12.554-6.512c1.668-5.266-1.247-10.886-6.512-12.555l-71.255-22.58l-0.622-0.622
	c-0.006-0.006-0.013-0.013-0.02-0.019l-36.89-36.89l31.708-11.354c0.106-0.039,0.239-0.088,0.345-0.131
	c0.027-0.011,0.079-0.031,0.105-0.042c0.136-0.055,0.27-0.113,0.402-0.174c21.437-9.853,41.813-3.955,49.8-0.85
	c30.183,13.581,46.293,22.87,58.063,29.657c16.364,9.438,24.249,13.984,46.52,15.823V165.983z M432.543,159.969h-17.884V72.525
	h17.884V159.969z M492,159.969h-39.457V53.891H492V159.969z"/>
</svg>
