<?xml version="1.0" encoding="utf-8"?>
<!-- Generator: Adobe Illustrator 15.1.0, SVG Export Plug-In . SVG Version: 6.00 Build 0)  -->
<!DOCTYPE svg PUBLIC "-//W3C//DTD SVG 1.1//EN" "http://www.w3.org/Graphics/SVG/1.1/DTD/svg11.dtd">
<svg version="1.1" id="Capa_1" xmlns="http://www.w3.org/2000/svg" xmlns:xlink="http://www.w3.org/1999/xlink" x="0px" y="0px"
	 width="96px" height="96px" viewBox="208 208 96 96" enable-background="new 208 208 96 96" xml:space="preserve">
<g>
	<path fill="#003D55" d="M279.058,229.82l-19.363-19.364c-0.363-0.363-0.855-0.567-1.37-0.567h-40.663
		c-4.269,0-7.744,3.473-7.744,7.745v77.453c0,4.272,3.476,7.746,7.744,7.746h54.219c4.27,0,7.745-3.474,7.745-7.746v-63.899
		C279.625,230.675,279.421,230.184,279.058,229.82z M260.262,216.5l12.753,12.752h-8.88c-2.137,0-3.873-1.738-3.873-3.873V216.5z
		 M275.752,295.088c0,2.134-1.736,3.872-3.872,3.872h-54.219c-2.136,0-3.871-1.738-3.871-3.872v-77.453
		c0-2.135,1.735-3.873,3.871-3.873h38.728v11.618c0,4.272,3.476,7.745,7.746,7.745h11.617V295.088z"/>
	<path fill="#003D55" d="M266.07,260.706h-42.6c-1.07,0-1.935,0.866-1.935,1.937s0.865,1.938,1.935,1.938h42.6
		c1.071,0,1.937-0.867,1.937-1.938S267.142,260.706,266.07,260.706z"/>
	<path fill="#003D55" d="M266.07,249.088h-42.6c-1.07,0-1.935,0.866-1.935,1.937c0,1.07,0.865,1.936,1.935,1.936h42.6
		c1.071,0,1.937-0.866,1.937-1.936C268.007,249.955,267.142,249.088,266.07,249.088z"/>
	<path fill="#003D55" d="M266.07,272.324h-42.6c-1.07,0-1.935,0.866-1.935,1.937c0,1.069,0.865,1.938,1.935,1.938h42.6
		c1.071,0,1.937-0.868,1.937-1.938C268.007,273.19,267.142,272.324,266.07,272.324z"/>
	<path fill="#003D55" d="M246.707,283.941H223.47c-1.07,0-1.935,0.866-1.935,1.938c0,1.069,0.865,1.937,1.935,1.937h23.236
		c1.071,0,1.938-0.867,1.938-1.937C248.645,284.808,247.777,283.941,246.707,283.941z"/>
	<path fill="#003D55" d="M240.897,239.407c0,1.07,0.867,1.937,1.938,1.937h23.235c1.071,0,1.937-0.866,1.937-1.937
		c0-1.071-0.865-1.937-1.937-1.937h-23.235C241.765,237.47,240.897,238.336,240.897,239.407z"/>
	<path fill="#00ADEF" d="M227.344,240.871h-3.874c-1.07,0-1.935,0.866-1.935,1.937s0.865,1.937,1.935,1.937h1.938
		c0,1.07,0.865,1.936,1.936,1.936c1.07,0,1.935-0.866,1.935-1.936v-0.356c2.251-0.803,3.874-2.931,3.874-5.453
		c0-3.204-2.605-5.809-5.809-5.809c-1.068,0-1.936-0.868-1.936-1.937c0-1.068,0.868-1.936,1.936-1.936h3.874
		c1.07,0,1.935-0.866,1.935-1.937s-0.865-1.936-1.935-1.936h-1.938c0-1.071-0.865-1.937-1.935-1.937
		c-1.07,0-1.936,0.866-1.936,1.937v0.356c-2.251,0.802-3.874,2.931-3.874,5.453c0,3.203,2.605,5.809,5.809,5.809
		c1.067,0,1.935,0.868,1.935,1.937S228.412,240.871,227.344,240.871z"/>
	<g>
		<polygon fill="#00ADEF" points="266.12,285.167 258.467,285.167 262.284,277.506 250.626,289.234 258.278,289.234 
			254.462,296.896 		"/>
	</g>
</g>
</svg>
