<?xml version="1.0" encoding="utf-8"?>
<!-- Generator: Adobe Illustrator 15.1.0, SVG Export Plug-In . SVG Version: 6.00 Build 0)  -->
<!DOCTYPE svg PUBLIC "-//W3C//DTD SVG 1.1//EN" "http://www.w3.org/Graphics/SVG/1.1/DTD/svg11.dtd">
<svg version="1.1" id="Layer_1" xmlns="http://www.w3.org/2000/svg" xmlns:xlink="http://www.w3.org/1999/xlink" x="0px" y="0px"
	 width="96px" height="96px" viewBox="208 208 96 96" enable-background="new 208 208 96 96" xml:space="preserve">
<g>
	<g>
		<g>
			<path fill="#003D55" d="M287.513,208.829h-63.026c-2.552,0-4.628,2.076-4.628,4.628v85.085c0,2.554,2.077,4.629,4.628,4.629
				h48.847c0.391,0,0.767-0.154,1.044-0.432l17.332-17.333c0.277-0.277,0.433-0.652,0.433-1.044v-70.905
				C292.142,210.904,290.065,208.829,287.513,208.829z M274.809,298.128v-10.614c0-0.924,0.751-1.675,1.676-1.675h10.614
				L274.809,298.128z M289.188,282.885h-12.703c-2.554,0-4.629,2.076-4.629,4.629v12.704h-47.369c-0.923,0-1.674-0.751-1.674-1.676
				v-85.085c0-0.923,0.751-1.674,1.674-1.674h63.026c0.924,0,1.675,0.751,1.675,1.674V282.885L289.188,282.885z"/>
		</g>
	</g>
	<g>
		<g>
			<path fill="#003D55" d="M233.879,248.22h-3.151c-0.816,0-1.478,0.661-1.478,1.477c0,0.816,0.661,1.478,1.478,1.478h3.151
				c0.815,0,1.477-0.661,1.477-1.478C235.356,248.881,234.695,248.22,233.879,248.22z"/>
		</g>
	</g>
	<g>
		<g>
			<path fill="#003D55" d="M233.879,254.523h-3.151c-0.816,0-1.478,0.661-1.478,1.477c0,0.816,0.661,1.478,1.478,1.478h3.151
				c0.815,0,1.477-0.661,1.477-1.478C235.356,255.184,234.695,254.523,233.879,254.523z"/>
		</g>
	</g>
	<g>
		<g>
			<path fill="#003D55" d="M233.879,260.825h-3.151c-0.816,0-1.478,0.661-1.478,1.478s0.661,1.478,1.478,1.478h3.151
				c0.815,0,1.477-0.661,1.477-1.478S234.695,260.825,233.879,260.825z"/>
		</g>
	</g>
	<g>
		<g>
			<path fill="#003D55" d="M281.21,248.22h-3.151c-0.815,0-1.477,0.661-1.477,1.477c0,0.816,0.661,1.478,1.477,1.478h3.151
				c0.816,0,1.478-0.661,1.478-1.478C282.688,248.881,282.026,248.22,281.21,248.22z"/>
		</g>
	</g>
	<g>
		<g>
			<path fill="#003D55" d="M281.21,254.523h-3.151c-0.815,0-1.477,0.661-1.477,1.477c0,0.816,0.661,1.478,1.477,1.478h3.151
				c0.816,0,1.478-0.661,1.478-1.478C282.688,255.184,282.026,254.523,281.21,254.523z"/>
		</g>
	</g>
	<g>
		<g>
			<path fill="#003D55" d="M281.21,260.825h-3.151c-0.815,0-1.477,0.661-1.477,1.478s0.661,1.478,1.477,1.478h3.151
				c0.816,0,1.478-0.661,1.478-1.478S282.026,260.825,281.21,260.825z"/>
		</g>
	</g>
	<g>
		<g>
			<path fill="#003D55" d="M258.292,248.22h-18.909c-0.816,0-1.477,0.661-1.477,1.477c0,0.816,0.661,1.478,1.477,1.478h18.909
				c0.814,0,1.478-0.661,1.478-1.478C259.77,248.881,259.106,248.22,258.292,248.22z"/>
		</g>
	</g>
	<g>
		<g>
			<path fill="#003D55" d="M258.292,260.825h-18.909c-0.816,0-1.477,0.661-1.477,1.478s0.661,1.478,1.477,1.478h18.909
				c0.814,0,1.478-0.661,1.478-1.478S259.106,260.825,258.292,260.825z"/>
		</g>
	</g>
	<g>
		<g>
			<path fill="#00ADEF" d="M236.993,280.172v-5.134c1.089,0.357,1.773,1.075,1.773,1.741c0,0.815,0.661,1.477,1.477,1.477
				s1.477-0.661,1.477-1.477c0-2.355-1.984-4.275-4.727-4.789v-0.233c0-0.816-0.661-1.478-1.478-1.478
				c-0.816,0-1.477,0.661-1.477,1.478v0.233c-2.743,0.514-4.727,2.434-4.727,4.789c0,3.291,2.629,4.674,4.727,5.471v5.133
				c-1.088-0.355-1.772-1.074-1.772-1.74c0-0.816-0.661-1.478-1.478-1.478c-0.816,0-1.477,0.661-1.477,1.478
				c0,2.355,1.984,4.274,4.727,4.788v0.234c0,0.815,0.661,1.478,1.477,1.478s1.477-0.662,1.477-1.478v-0.234
				c2.743-0.514,4.727-2.433,4.727-4.788C241.72,282.351,239.092,280.968,236.993,280.172z M234.039,279.026
				c-1.473-0.721-1.773-1.352-1.773-2.247c0-0.666,0.684-1.384,1.773-1.741V279.026z M236.993,287.383v-3.988
				c1.473,0.722,1.773,1.352,1.773,2.248C238.766,286.309,238.081,287.027,236.993,287.383z"/>
		</g>
	</g>
	<g>
		<g>
			<path fill="#003D55" d="M257.576,273.431h-11.03c-0.816,0-1.478,0.661-1.478,1.478c0,0.815,0.661,1.478,1.478,1.478h11.03
				c0.814,0,1.478-0.662,1.478-1.478C259.054,274.092,258.391,273.431,257.576,273.431z"/>
		</g>
	</g>
	<g>
		<g>
			<path fill="#003D55" d="M252.849,286.036h-6.303c-0.816,0-1.478,0.661-1.478,1.478c0,0.815,0.661,1.477,1.478,1.477h6.303
				c0.816,0,1.477-0.661,1.477-1.477C254.326,286.697,253.665,286.036,252.849,286.036z"/>
		</g>
	</g>
	<g>
		<g>
			<path fill="#003D55" d="M262.303,286.036h-3.151c-0.816,0-1.478,0.661-1.478,1.478c0,0.815,0.661,1.477,1.478,1.477h3.151
				c0.815,0,1.478-0.661,1.478-1.477C263.779,286.697,263.118,286.036,262.303,286.036z"/>
		</g>
	</g>
	<g>
		<g>
			<path fill="#003D55" d="M267.03,279.733h-20.484c-0.816,0-1.478,0.661-1.478,1.478c0,0.815,0.661,1.478,1.478,1.478h20.484
				c0.814,0,1.476-0.662,1.476-1.478C268.506,280.395,267.845,279.733,267.03,279.733z"/>
		</g>
	</g>
	<g>
		<g>
			<circle fill="#003D55" cx="265.454" cy="256" r="1.477"/>
		</g>
	</g>
	<g>
		<g>
			<circle fill="#003D55" cx="271.756" cy="256" r="1.477"/>
		</g>
	</g>
	<g>
		<g>
			<circle fill="#003D55" cx="265.454" cy="249.697" r="1.477"/>
		</g>
	</g>
	<g>
		<g>
			<circle fill="#003D55" cx="271.756" cy="249.697" r="1.477"/>
		</g>
	</g>
	<g>
		<g>
			<circle fill="#003D55" cx="265.454" cy="262.303" r="1.478"/>
		</g>
	</g>
	<g>
		<g>
			<circle fill="#003D55" cx="271.756" cy="262.303" r="1.478"/>
		</g>
	</g>
	<g>
		<g>
			<g>
				<path fill="#00ADEF" d="M265.281,232.002l-0.021-0.287c-0.337-4.373-2.373-7.115-4.169-9.533
					c-1.663-2.239-3.101-4.173-3.101-7.026c0-0.229-0.129-0.438-0.332-0.543s-0.449-0.088-0.635,0.047
					c-2.698,1.931-4.948,5.185-5.735,8.29c-0.546,2.161-0.618,4.591-0.628,6.196c-2.491-0.532-3.056-4.259-3.062-4.3
					c-0.028-0.193-0.146-0.361-0.318-0.453c-0.173-0.091-0.377-0.098-0.554-0.011c-0.131,0.064-3.207,1.627-3.386,7.869
					c-0.013,0.207-0.013,0.415-0.013,0.623c0,6.063,4.934,10.997,10.997,10.997c6.064,0,10.998-4.934,10.998-10.997
					C265.323,232.569,265.302,232.286,265.281,232.002z M254.326,242.649c-2.021,0-3.666-1.752-3.666-3.905
					c0-0.073,0-0.147,0.005-0.238c0.024-0.908,0.197-1.528,0.386-1.94c0.354,0.761,0.988,1.461,2.017,1.461
					c0.338,0,0.611-0.273,0.611-0.61c0-0.871,0.019-1.874,0.235-2.78c0.192-0.804,0.653-1.657,1.236-2.342
					c0.26,0.889,0.766,1.608,1.259,2.311c0.708,1.004,1.439,2.043,1.566,3.815c0.009,0.104,0.016,0.21,0.016,0.323
					C257.991,240.897,256.347,242.649,254.326,242.649z M258.188,241.851c0.633-0.865,1.025-1.934,1.025-3.107
					c0-0.144-0.008-0.278-0.026-0.527c-0.146-1.995-1.013-3.227-1.778-4.314c-0.651-0.927-1.214-1.727-1.214-2.861
					c0-0.232-0.131-0.444-0.339-0.547c-0.206-0.104-0.456-0.081-0.64,0.06c-1.172,0.885-2.149,2.375-2.49,3.798
					c-0.174,0.729-0.235,1.519-0.257,2.168c-0.423-0.456-0.555-1.301-0.556-1.312c-0.027-0.196-0.148-0.368-0.324-0.458
					c-0.174-0.091-0.384-0.093-0.56-0.002c-0.154,0.079-1.507,0.854-1.584,3.708c-0.005,0.096-0.006,0.193-0.006,0.289
					c0,1.173,0.393,2.242,1.027,3.107c-3.475-1.5-5.915-4.958-5.915-8.977c0-0.183-0.001-0.366,0.012-0.569
					c0.105-3.662,1.277-5.478,2.042-6.279c0.533,1.909,1.931,4.404,4.667,4.404c0.338,0,0.611-0.272,0.611-0.61
					c0-2.045,0.046-4.407,0.592-6.571c0.621-2.451,2.32-5.098,4.372-6.889c0.34,2.617,1.766,4.536,3.264,6.552
					c1.782,2.397,3.623,4.876,3.931,8.89l0.021,0.292c0.02,0.254,0.039,0.508,0.039,0.78
					C264.102,236.893,261.662,240.351,258.188,241.851z"/>
			</g>
		</g>
	</g>
	<g>
		<g>
			<path fill="#003D55" d="M258.292,254.485h-18.909c-0.816,0-1.477,0.662-1.477,1.478c0,0.816,0.661,1.478,1.477,1.478h18.909
				c0.814,0,1.478-0.662,1.478-1.478C259.77,255.147,259.106,254.485,258.292,254.485z"/>
		</g>
	</g>
</g>
</svg>
