<?xml version="1.0" encoding="utf-8"?>
<!-- Generator: Adobe Illustrator 15.1.0, SVG Export Plug-In . SVG Version: 6.00 Build 0)  -->
<!DOCTYPE svg PUBLIC "-//W3C//DTD SVG 1.1//EN" "http://www.w3.org/Graphics/SVG/1.1/DTD/svg11.dtd">
<svg version="1.1" id="Capa_1" xmlns="http://www.w3.org/2000/svg" xmlns:xlink="http://www.w3.org/1999/xlink" x="0px" y="0px"
	 width="512px" height="512px" viewBox="0 0 512 512" enable-background="new 0 0 512 512" xml:space="preserve">
<path fill="#C4C3C3" d="M308.707,426.665c-16.471,0-29.867,13.397-29.867,29.867c0,16.471,13.396,29.867,29.867,29.867
	c16.47,0,29.867-13.396,29.867-29.867C338.574,440.062,325.168,426.665,308.707,426.665z M308.707,469.334
	c-7.058,0-12.802-5.743-12.802-12.802c0-7.057,5.744-12.8,12.802-12.8s12.8,5.743,12.8,12.8
	C321.507,463.591,315.765,469.334,308.707,469.334z"/>
<path fill="#C4C3C3" d="M347.107,315.73c18.825,0,34.135-15.311,34.135-34.135s-15.31-34.134-34.135-34.134
	c-18.823,0-34.134,15.31-34.134,34.134C312.974,300.421,328.274,315.73,347.107,315.73z M347.107,264.529
	c9.413,0,17.067,7.654,17.067,17.066s-7.654,17.066-17.067,17.066c-9.412,0-17.065-7.654-17.065-17.066
	C330.041,272.184,337.695,264.529,347.107,264.529z"/>
<path fill="#C4C3C3" d="M142.304,102.393c2.185,0,4.369-0.836,6.033-2.5l17.066-17.067c3.338-3.337,3.338-8.729,0-12.065
	c-3.336-3.338-8.729-3.338-12.065,0l-17.067,17.066c-3.336,3.336-3.336,8.729,0,12.066
	C137.935,101.557,140.12,102.393,142.304,102.393z"/>
<path fill="#C4C3C3" d="M449.51,253.845c0-7.51-2.929-14.566-8.235-19.875l-4.753-4.754c8.099-7.168,12.979-17.535,12.979-28.688
	c0-21.172-17.229-38.401-38.4-38.401c-1.554,0-3.09,0.154-4.608,0.342c0.188-1.527,0.342-3.047,0.342-4.608
	c0-21.171-17.229-38.401-38.4-38.401c-1.553,0-3.089,0.154-4.606,0.341c0.188-1.526,0.341-3.046,0.341-4.607
	c0-21.171-17.229-38.4-38.4-38.4c-1.554,0-3.089,0.153-4.607,0.341c0.188-1.527,0.342-3.046,0.342-4.607
	c0-21.171-17.229-38.4-38.401-38.4c-11.162,0-21.521,4.891-28.688,12.979l-6.776-6.776L215.521,8.219
	c-10.965-10.967-28.8-10.967-39.749,0L70.708,113.282c-10.949,10.966-10.949,28.792,0,39.758l32.11,32.111l41.899,41.898
	c-11.571,6.622-19.482,18.953-19.482,33.213c0,13.337,6.854,25.097,17.212,31.982c0.521,0.691,1.127,1.373,1.938,2.064
	l91.786,91.437v15.326h-17.067v110.937h153.604h68.268V401.073h-17.066v-25.855c16.324-13.832,25.602-33.726,25.602-55.221
	c0-14.849-4.635-29.271-13.107-41.405l4.872-4.871C446.581,268.412,449.51,261.355,449.51,253.845z M432.442,200.528
	c0,6.554-3.021,12.621-7.996,16.614l-29.961-29.961c3.994-4.976,10.069-7.996,16.615-7.996
	C422.867,179.194,432.442,188.761,432.442,200.528z M389.775,157.861c0,6.554-3.021,12.621-7.996,16.615l-29.961-29.961
	c3.993-4.976,10.069-7.996,16.614-7.996C380.2,136.527,389.775,146.094,389.775,157.861z M347.107,115.193
	c0,6.554-3.021,12.621-7.996,16.615l-29.961-29.961c3.994-4.976,10.07-7.996,16.615-7.996
	C337.533,93.86,347.107,103.426,347.107,115.193z M283.106,51.192c11.769,0,21.334,9.565,21.334,21.333
	c0,6.554-3.021,12.621-7.996,16.615l-29.961-29.96C270.477,54.213,276.553,51.192,283.106,51.192z M82.775,140.981
	c-4.301-4.31-4.301-11.315,0-15.625L187.839,20.292c1.066-1.065,2.313-1.869,3.635-2.405c0.597-0.248,1.271-0.239,1.903-0.375
	c1.519-0.324,3.021-0.324,4.54,0c0.631,0.137,1.306,0.128,1.902,0.375c1.323,0.537,2.561,1.34,3.636,2.405L223.5,40.338
	L102.82,161.018L82.775,140.981z M235.566,52.404l10.054,10.052l42.668,42.667l4.889,4.891l37.778,37.776l4.89,4.891l37.777,37.776
	l4.89,4.891l42.667,42.667l8.021,8.021c4.311,4.311,4.311,11.307,0,15.616l-3.729,3.737l0,0L324.145,366.727
	c-4.293,4.301-11.314,4.317-15.625,0l-68.055-68.063h8.5c21.171,0,38.401-17.229,38.401-38.399
	c0-21.173-17.229-38.401-38.401-38.401h-85.311l-48.776-48.777L235.566,52.404z M159.03,239.458l3.542-0.4
	c0.351-0.052,0.7-0.128,1.059-0.128h85.335c11.768,0,21.333,9.565,21.333,21.334c0,11.768-9.565,21.333-21.333,21.333h-25.566
	h-24.133H163.63c-11.769,0-21.333-9.565-21.333-21.333C142.304,250.082,149.481,241.574,159.03,239.458z M236.172,494.933v-76.801
	h71.903c26.224,0,47.565,21.342,47.565,47.564v29.235L236.172,494.933L236.172,494.933z M423.908,494.933h-51.2v-29.235
	c0-18.825-8.142-35.737-21.026-47.564h72.228L423.908,494.933L423.908,494.933z M424.121,290.881
	c5.41,8.714,8.32,18.792,8.32,29.116c0,17.536-8.09,33.674-22.204,44.298l-3.396,2.56v34.211h-98.774h-54.836v-23.193l-3.012-2.552
	c-0.384-0.333-0.794-0.64-1.536-1.193l-75.752-75.472h43.394l80.12,80.13c5.487,5.479,12.682,8.219,19.874,8.219
	c7.203,0,14.405-2.739,19.885-8.219L424.121,290.881z"/>
</svg>
