<?xml version="1.0" encoding="utf-8"?>
<!-- Generator: Adobe Illustrator 15.1.0, SVG Export Plug-In . SVG Version: 6.00 Build 0)  -->
<!DOCTYPE svg PUBLIC "-//W3C//DTD SVG 1.1//EN" "http://www.w3.org/Graphics/SVG/1.1/DTD/svg11.dtd">
<svg version="1.1" id="Layer_1" xmlns="http://www.w3.org/2000/svg" xmlns:xlink="http://www.w3.org/1999/xlink" x="0px" y="0px"
	 width="96px" height="96px" viewBox="208 208 96 96" enable-background="new 208 208 96 96" xml:space="preserve">
<path fill="#003D55" d="M245.797,298.527c0,1.365,1.108,2.473,2.473,2.473h15.46c1.366,0,2.472-1.107,2.472-2.473v-4.793
	c3.252-0.876,6.359-2.164,9.28-3.847l3.385,3.384c0.463,0.465,1.092,0.726,1.749,0.726c0.654,0,1.284-0.261,1.748-0.726
	l10.927-10.936c0.965-0.966,0.965-2.531,0-3.496l-3.38-3.381c1.683-2.92,2.972-6.028,3.846-9.279h4.775
	c1.365,0,2.473-1.107,2.473-2.473v-15.459c0-1.366-1.107-2.473-2.473-2.473h-4.776c-0.875-3.25-2.162-6.358-3.845-9.279l3.361-3.362
	c0.465-0.463,0.726-1.093,0.726-1.749c-0.001-0.656-0.262-1.285-0.726-1.749l-10.936-10.928c-0.966-0.965-2.531-0.965-3.497,0.001
	l-3.357,3.358c-2.921-1.682-6.028-2.971-9.28-3.846v-4.749c0-1.365-1.105-2.472-2.472-2.472h-15.46
	c-1.365,0-2.473,1.107-2.473,2.472v4.75c-3.25,0.874-6.358,2.162-9.279,3.844l-3.358-3.358c-0.965-0.965-2.531-0.966-3.497-0.001
	l-10.935,10.928c-0.465,0.464-0.726,1.092-0.726,1.748s0.261,1.286,0.724,1.749l3.363,3.362c-1.683,2.921-2.971,6.028-3.847,9.279
	h-4.766c-1.366,0-2.473,1.106-2.473,2.471l-0.008,15.46c-0.001,0.656,0.259,1.286,0.723,1.749c0.464,0.464,1.092,0.725,1.75,0.725
	h4.774c0.875,3.251,2.164,6.359,3.847,9.279l-3.381,3.381c-0.965,0.965-0.966,2.53,0,3.496l10.927,10.936
	c0.464,0.464,1.092,0.726,1.748,0.726h0.001c0.655,0,1.284-0.261,1.748-0.726l3.383-3.384c2.922,1.683,6.03,2.971,9.28,3.847
	V298.527z M237.487,284.688c-0.979-0.632-2.266-0.495-3.091,0.329l-3.01,3.01l-7.432-7.438l3.008-3.009
	c0.823-0.823,0.96-2.111,0.328-3.09c-2.242-3.469-3.818-7.271-4.683-11.302c-0.245-1.14-1.251-1.954-2.417-1.954h-4.247
	l0.006-10.515h4.241c1.166,0,2.172-0.813,2.417-1.953c0.865-4.031,2.441-7.833,4.683-11.302c0.633-0.979,0.496-2.266-0.328-3.089
	l-2.988-2.989l7.438-7.432l2.985,2.986c0.825,0.824,2.111,0.96,3.091,0.329c3.468-2.242,7.271-3.818,11.302-4.684
	c1.138-0.245,1.953-1.253,1.953-2.417v-4.223h10.515v4.222c0,1.166,0.813,2.173,1.953,2.417c4.03,0.866,7.834,2.441,11.303,4.683
	c0.978,0.633,2.265,0.497,3.09-0.328l2.985-2.985l7.438,7.432l-2.988,2.988c-0.824,0.824-0.96,2.112-0.328,3.09
	c2.242,3.469,3.816,7.271,4.683,11.302c0.245,1.14,1.253,1.953,2.418,1.953h4.249v10.515h-4.249c-1.165,0-2.172,0.814-2.418,1.954
	c-0.865,4.03-2.44,7.833-4.683,11.301c-0.632,0.979-0.495,2.268,0.328,3.091l3.008,3.008l-7.432,7.438l-3.011-3.009
	c-0.825-0.825-2.112-0.961-3.09-0.329c-3.47,2.242-7.272,3.817-11.303,4.684c-1.14,0.246-1.953,1.251-1.953,2.418v4.266h-10.515
	v-4.266c0-1.166-0.814-2.172-1.953-2.418C244.759,288.506,240.956,286.93,237.487,284.688z"/>
<path fill="#00ADEF" d="M276.431,256c0-11.266-9.165-20.43-20.431-20.43s-20.43,9.165-20.43,20.43s9.165,20.431,20.43,20.431
	S276.431,267.266,276.431,256z M240.515,256c0-8.539,6.946-15.485,15.485-15.485s15.485,6.947,15.485,15.485
	s-6.946,15.485-15.485,15.485S240.515,264.539,240.515,256z"/>
</svg>
