<?xml version="1.0" encoding="utf-8"?>
<!-- Generator: Adobe Illustrator 15.1.0, SVG Export Plug-In . SVG Version: 6.00 Build 0)  -->
<!DOCTYPE svg PUBLIC "-//W3C//DTD SVG 1.1//EN" "http://www.w3.org/Graphics/SVG/1.1/DTD/svg11.dtd">
<svg version="1.1" id="Layer_1" xmlns="http://www.w3.org/2000/svg" xmlns:xlink="http://www.w3.org/1999/xlink" x="0px" y="0px"
	 width="96px" height="96px" viewBox="0 0 96 96" enable-background="new 0 0 96 96" xml:space="preserve">
<g>
	<g>
		<polyline fill="#02797E" points="94.649,58.979 22.39,81.657 1.333,24.334 77.191,20.105 94.649,58.979 		"/>
	</g>
	<path fill="#FFFFFF" d="M40.028,47.46c0,1.44-0.359,2.7-0.99,3.87c-0.629,1.08-1.529,2.07-2.7,2.792
		c-1.169,0.719-2.609,1.258-4.229,1.618c-1.621,0.36-3.42,0.539-5.489,0.539h-1.44v7.379h-9.358V39.092h10.978
		c4.14,0,7.379,0.719,9.719,2.069C38.858,42.511,40.028,44.671,40.028,47.46 M31.03,47.55c0-2.159-1.621-3.239-4.771-3.239H25.09
		v6.569h1.08c1.53,0,2.789-0.271,3.6-0.812C30.579,49.62,31.03,48.721,31.03,47.55z"/>
	<path fill="#FFFFFF" d="M63.244,63.658c-1.439,0.27-3.06,0.451-4.949,0.451c-2.609,0-4.95-0.271-6.929-0.901
		c-2.07-0.629-3.779-1.438-5.219-2.518c-1.439-1.081-2.52-2.431-3.24-3.961c-0.72-1.62-1.08-3.329-1.08-5.22
		c0-1.89,0.36-3.599,1.17-5.219c0.81-1.529,1.89-2.879,3.33-4.05c1.438-1.08,3.148-1.979,5.128-2.609
		c1.98-0.629,4.139-0.9,6.479-0.9c1.801,0,3.51,0.09,5.038,0.361c1.53,0.359,1.53,0.359,2.7,0.81v6.57
		c-0.898-0.541-1.979-0.99-3.149-1.261c-1.17-0.36-2.43-0.54-3.688-0.54c-2.161,0-3.869,0.631-5.22,1.709
		c-1.35,1.17-1.98,2.791-1.98,5.04c0,1.081,0.181,2.068,0.631,2.971c0.449,0.81,0.988,1.528,1.71,2.069
		c0.719,0.539,1.529,0.989,2.519,1.26c0.99,0.271,1.98,0.449,3.06,0.449c1.08,0,2.25-0.09,3.33-0.36
		c1.079-0.269,2.25-0.539,3.42-1.079v6.21C64.865,63.298,64.684,63.39,63.244,63.658"/>
	<rect x="70.174" y="39.092" fill="#FFFFFF" width="9.447" height="24.657"/>
	<path fill="#FFFFFF" d="M80.611,31.353c0,1.621-0.538,2.97-1.619,3.871c-1.08,0.898-2.43,1.439-4.048,1.439
		c-1.622,0-2.971-0.45-4.052-1.439c-1.079-0.9-1.618-2.25-1.618-3.871c0-1.709,0.539-2.969,1.618-3.959
		c1.081-0.99,2.43-1.44,4.052-1.44c1.618,0,2.968,0.45,4.048,1.44C80.073,28.293,80.611,29.643,80.611,31.353"/>
</g>
</svg>
