<?xml version="1.0" encoding="utf-8"?>
<!-- Generator: Adobe Illustrator 15.1.0, SVG Export Plug-In . SVG Version: 6.00 Build 0)  -->
<!DOCTYPE svg PUBLIC "-//W3C//DTD SVG 1.1//EN" "http://www.w3.org/Graphics/SVG/1.1/DTD/svg11.dtd">
<svg version="1.1"
	 id="Layer_1" inkscape:version="0.91 r13725" sodipodi:docname="Visa_2006.svg" xmlns:dc="http://purl.org/dc/elements/1.1/" xmlns:cc="http://creativecommons.org/ns#" xmlns:rdf="http://www.w3.org/1999/02/22-rdf-syntax-ns#" xmlns:svg="http://www.w3.org/2000/svg" xmlns:sodipodi="http://sodipodi.sourceforge.net/DTD/sodipodi-0.dtd" xmlns:inkscape="http://www.inkscape.org/namespaces/inkscape"
	 xmlns="http://www.w3.org/2000/svg" xmlns:xlink="http://www.w3.org/1999/xlink" x="0px" y="0px" width="109px" height="77px"
	 viewBox="439.023 123.493 109 77" enable-background="new 439.023 123.493 109 77" xml:space="preserve">
<sodipodi:namedview  id="namedview19" inkscape:current-layer="Layer_1" inkscape:window-y="-8" inkscape:window-x="-8" inkscape:window-height="705" inkscape:window-width="1366" inkscape:pageshadow="2" inkscape:pageopacity="0" pagecolor="#ffffff" inkscape:cy="131.15483" inkscape:cx="34.690897" guidetolerance="10" inkscape:zoom="0.35355339" gridtolerance="10" objecttolerance="10" showgrid="false" borderopacity="1" bordercolor="#666666" inkscape:window-maximized="1">
	</sodipodi:namedview>
<g id="g4158" transform="matrix(4.4299631,0,0,4.4299631,-81.165783,-105.04783)">
	<polygon id="polygon9" fill="#00579F" points="128.049,63.976 126.105,63.976 127.321,56.459 129.264,56.459 	"/>
	<path id="path11" inkscape:connector-curvature="0" fill="#00579F" d="M135.095,56.643c-0.384-0.152-0.992-0.32-1.744-0.32
		c-1.92,0-3.271,1.024-3.28,2.487c-0.016,1.08,0.968,1.679,1.704,2.039c0.752,0.368,1.007,0.608,1.007,0.936
		c-0.007,0.503-0.608,0.736-1.167,0.736c-0.776,0-1.192-0.12-1.824-0.4l-0.256-0.12l-0.272,1.688c0.456,0.208,1.296,0.392,2.168,0.4
		c2.04,0,3.368-1.008,3.383-2.568c0.007-0.855-0.512-1.511-1.632-2.047c-0.68-0.344-1.096-0.576-1.096-0.928
		c0.008-0.32,0.352-0.648,1.119-0.648c0.632-0.016,1.096,0.136,1.448,0.288l0.176,0.08L135.095,56.643L135.095,56.643z"/>
	<path id="path13" inkscape:connector-curvature="0" fill="#00579F" d="M137.679,61.313c0.16-0.432,0.776-2.103,0.776-2.103
		c-0.008,0.016,0.16-0.44,0.255-0.72l0.136,0.648c0,0,0.368,1.799,0.448,2.175C138.991,61.313,138.063,61.313,137.679,61.313
		L137.679,61.313z M140.078,56.459h-1.503c-0.463,0-0.816,0.136-1.016,0.624l-2.887,6.894h2.04c0,0,0.336-0.928,0.408-1.128
		c0.224,0,2.208,0,2.496,0c0.056,0.264,0.232,1.128,0.232,1.128h1.8L140.078,56.459L140.078,56.459L140.078,56.459z"/>
	<path id="path15" inkscape:connector-curvature="0" fill="#00579F" d="M124.481,56.459l-1.903,5.126l-0.208-1.04
		c-0.352-1.199-1.456-2.503-2.688-3.151l1.744,6.574h2.055l3.056-7.509H124.481L124.481,56.459L124.481,56.459z"/>
	<path id="path17" inkscape:connector-curvature="0" fill="#FAA61A" d="M120.81,56.459h-3.128l-0.032,0.152
		c2.44,0.624,4.055,2.128,4.719,3.935l-0.68-3.455C121.578,56.611,121.234,56.475,120.81,56.459L120.81,56.459z"/>
</g>
</svg>
