<svg width="32" height="32" viewBox="0 0 32 32" xmlns="http://www.w3.org/2000/svg"><title>icon-apple</title><g fill="none" fill-rule="evenodd"><path d="M27.07 10.862c-1.734-2.497-4.422-2.838-5.367-2.865-2.258-.234-4.449 1.334-5.599 1.334-1.173 0-2.944-1.311-4.853-1.273-2.457.038-4.755 1.442-6.016 3.622-2.601 4.445-.66 10.978 1.831 14.57 1.247 1.762 2.704 3.725 4.61 3.656 1.866-.074 2.563-1.174 4.814-1.174 2.23 0 2.885 1.174 4.83 1.129 2.001-.03 3.262-1.767 4.465-3.543 1.44-2.015 2.02-4.004 2.042-4.106-.046-.014-3.887-1.461-3.926-5.839-.033-3.652 3.03-5.429 3.17-5.511zm-6.842-5.229C21.23 4.395 21.918 2.71 21.727 1c-1.452.063-3.268.991-4.314 2.203-.925 1.067-1.752 2.817-1.538 4.462 1.63.12 3.306-.812 4.353-2.032z" fill="#2F4662"/></g></svg>