<svg width="32" height="33" viewBox="0 0 32 33" xmlns="http://www.w3.org/2000/svg" xmlns:xlink="http://www.w3.org/1999/xlink"><title>icon-googleplay</title><defs><linearGradient x1="50%" y1="0%" x2="50%" y2="38.913%" id="b"><stop stop-color="#FBDA09" offset="0%"/><stop stop-color="#FFBC00" offset="100%"/></linearGradient><path d="M23.887 11.965c1.428.8 1.435 2.095 0 2.9l-20.45 11.47c-1.428.801-2.586.122-2.586-1.517V2.012C.851.374 2.001-.31 3.437.495l20.45 11.47z" id="a"/><linearGradient x1="0%" y1="58.476%" x2="69.306%" y2="39.083%" id="c"><stop stop-color="#01E2FF" offset="0%"/><stop stop-color="#01C4FF" offset="100%"/></linearGradient><linearGradient x1="20.281%" y1="20.102%" x2="83.82%" y2="83.621%" id="e"><stop stop-color="#28D781" offset="0%"/><stop stop-color="#02F076" offset="100%"/></linearGradient><linearGradient x1="74.488%" y1="17.43%" x2="10.108%" y2="91.184%" id="f"><stop stop-color="#F2414E" offset="0%"/><stop stop-color="#E02554" offset="100%"/></linearGradient></defs><g fill="none" fill-rule="evenodd"><g transform="translate(3 3)"><mask id="d" fill="#fff"><use xlink:href="#a"/></mask><use fill="url(#b)" xlink:href="#a"/><path fill="url(#c)" mask="url(#d)" d="M1-.01L14.105 13.2.831 26.93z"/><path fill="url(#e)" mask="url(#d)" d="M-1.695-2.729l15.798 15.932L18.8 8.66z"/><path fill="url(#f)" mask="url(#d)" d="M14.106 13.2l7.19 7.35L-.185 27.9z"/></g></g></svg>