<?xml version="1.0" encoding="utf-8"?>
<!-- Generator: Adobe Illustrator 15.1.0, SVG Export Plug-In . SVG Version: 6.00 Build 0)  -->
<!DOCTYPE svg PUBLIC "-//W3C//DTD SVG 1.1//EN" "http://www.w3.org/Graphics/SVG/1.1/DTD/svg11.dtd">
<svg version="1.1" id="Capa_1" xmlns="http://www.w3.org/2000/svg" xmlns:xlink="http://www.w3.org/1999/xlink" x="0px" y="0px"
	 width="512px" height="512px" viewBox="0 0 512 512" enable-background="new 0 0 512 512" xml:space="preserve">
<path fill="#00ADEF" d="M307.719,466.341c-4.223,1.052-8.527,1.986-12.799,2.773c-11.17,2.076-18.553,12.818-16.487,23.997
	c1.021,5.5,4.144,10.08,8.384,13.071c4.371,3.076,9.934,4.465,15.602,3.41c5.088-0.944,10.216-2.055,15.248-3.311
	c11.028-2.745,17.748-13.918,14.996-24.941C329.918,470.307,318.754,463.594,307.719,466.341z"/>
<path fill="#00ADEF" d="M459.927,190.456c1.442,4.345,4.195,7.892,7.672,10.343c5.155,3.631,11.9,4.853,18.338,2.724
	c10.793-3.583,16.64-15.222,13.069-26.008c-1.626-4.917-3.432-9.851-5.354-14.654c-4.223-10.555-16.194-15.693-26.755-11.471
	c-10.55,4.22-15.69,16.195-11.465,26.753C457.048,182.181,458.562,186.324,459.927,190.456z"/>
<path fill="#00ADEF" d="M374.601,436.953c-3.631,2.397-7.378,4.718-11.153,6.891c-9.85,5.682-13.223,18.271-7.543,28.116
	c1.541,2.678,3.595,4.867,5.96,6.54c6.35,4.467,14.973,5.137,22.152,1c4.488-2.588,8.951-5.342,13.275-8.201
	c9.48-6.264,12.09-19.034,5.823-28.519C396.85,433.292,384.085,430.686,374.601,436.953z"/>
<path fill="#00ADEF" d="M511.804,247.942c-0.447-11.36-10.017-20.203-21.38-19.759c-11.35,0.448-20.198,10.02-19.753,21.375
	c0.171,4.342,0.215,8.75,0.115,13.086c-0.16,7.124,3.324,13.475,8.739,17.292c3.227,2.271,7.141,3.646,11.386,3.742
	c11.36,0.252,20.775-8.758,21.027-20.124C512.052,258.373,512.009,253.122,511.804,247.942z"/>
<path fill="#00ADEF" d="M456.568,382.807c-9.109-6.834-21.998-4.979-28.82,4.114c-2.613,3.482-5.364,6.922-8.182,10.233
	c-7.363,8.65-6.323,21.645,2.327,29.013c0.493,0.419,0.992,0.803,1.509,1.164c8.601,6.063,20.553,4.67,27.507-3.49
	c3.364-3.951,6.644-8.06,9.767-12.219C467.499,402.528,465.652,389.632,456.568,382.807z"/>
<path fill="#00ADEF" d="M486.824,308.402c-10.847-3.4-22.397,2.638-25.796,13.484c-1.302,4.144-2.743,8.307-4.3,12.385
	c-3.417,8.977-0.143,18.854,7.363,24.146c1.377,0.967,2.894,1.787,4.541,2.41c10.62,4.053,22.512-1.275,26.56-11.9
	c1.849-4.848,3.563-9.801,5.113-14.728C503.701,323.352,497.668,311.804,486.824,308.402z"/>
<path fill="#003D55" d="M217.918,469.299c-18.402-3.304-36.055-8.931-52.793-16.777c-0.198-0.104-0.375-0.222-0.583-0.316
	c-3.944-1.856-7.882-3.845-11.699-5.923c-0.013-0.016-0.038-0.025-0.059-0.034c-7.003-3.856-13.838-8.124-20.478-12.798
	C35.483,365.246,12.204,230.985,80.412,134.165c14.832-21.046,32.78-38.604,52.791-52.52c0.247-0.172,0.493-0.342,0.737-0.515
	c70.512-48.585,166.257-51.859,241.129-1.934l-16.08,23.235c-4.471,6.467-1.721,11.18,6.105,10.476l69.853-6.253
	c7.836-0.705,12.522-7.483,10.415-15.051l-18.758-67.583c-2.101-7.577-7.477-8.483-11.952-2.018l-16.118,23.29
	C343.588,8.406,277.686-5.658,212.273,5.685c-6.588,1.14-13.084,2.536-19.49,4.16c-0.05,0.009-0.089,0.015-0.129,0.023
	c-0.248,0.061-0.499,0.141-0.74,0.208C135.508,24.561,86.295,57.459,51.178,104.397c-0.296,0.351-0.601,0.695-0.881,1.077
	c-1.167,1.573-2.327,3.182-3.461,4.791c-1.855,2.637-3.685,5.34-5.435,8.043c-0.219,0.326-0.386,0.657-0.578,0.986
	C11.845,164.2-2.133,216.115,0.264,268.969c0.005,0.174-0.004,0.349,0,0.527c0.232,5.162,0.642,10.396,1.197,15.55
	c0.03,0.333,0.104,0.647,0.16,0.979c0.575,5.182,1.295,10.375,2.199,15.568c9.183,52.98,34.176,100.655,71.626,137.751
	c0.087,0.087,0.177,0.182,0.265,0.272c0.031,0.033,0.065,0.051,0.095,0.083c10.062,9.924,21.006,19.104,32.79,27.403
	c30.839,21.729,65.179,36.094,102.058,42.712c11.189,2.011,21.879-5.438,23.886-16.622
	C236.547,482.001,229.104,471.303,217.918,469.299z"/>
<path fill="#00ADEF" d="M243.37,91.568c-9.205,0-16.66,7.462-16.66,16.653v165.912l151.74,78.441c2.442,1.265,5.058,1.86,7.631,1.86
	c6.027,0,11.848-3.282,14.808-9.009c4.221-8.173,1.026-18.213-7.146-22.435l-133.73-69.137V108.221
	C260.01,99.03,252.563,91.568,243.37,91.568z"/>
</svg>
