<?xml version="1.0" encoding="utf-8"?>
<!-- Generator: Adobe Illustrator 15.1.0, SVG Export Plug-In . SVG Version: 6.00 Build 0)  -->
<!DOCTYPE svg PUBLIC "-//W3C//DTD SVG 1.1//EN" "http://www.w3.org/Graphics/SVG/1.1/DTD/svg11.dtd">
<svg version="1.1" id="Capa_1" xmlns="http://www.w3.org/2000/svg" xmlns:xlink="http://www.w3.org/1999/xlink" x="0px" y="0px"
	 width="512px" height="512px" viewBox="0 0 512 512" enable-background="new 0 0 512 512" xml:space="preserve">
<g>
	<g>
		<path fill="#003D55" d="M238.934,273.066c-13.125,0-25.063,5.001-34.134,13.142V230.4c0-14.114-11.486-25.6-25.6-25.6H59.733
			c-14.114,0-25.6,11.486-25.6,25.6v69.836c-2.679-0.955-5.53-1.57-8.533-1.57c-14.114,0-25.6,11.486-25.6,25.601
			c0,6.579,2.568,12.527,6.656,17.066C2.568,345.873,0,351.821,0,358.4s2.568,12.526,6.656,17.066
			C2.568,380.007,0,385.954,0,392.533s2.568,12.527,6.656,17.066C2.568,414.14,0,420.088,0,426.667c0,14.114,11.486,25.6,25.6,25.6
			c3.003,0,5.854-0.614,8.533-1.57v1.57c0,14.114,11.486,25.601,25.6,25.601H76.8V512h17.067v-34.133H179.2
			c14.114,0,25.6-11.486,25.6-25.601V349.867v-25.601c0-15.872,10.897-29.252,25.6-33.058V512h17.067V281.6
			C247.467,276.89,243.644,273.066,238.934,273.066z M25.6,435.2c-4.702,0-8.534-3.832-8.534-8.533c0-4.702,3.832-8.533,8.534-8.533
			s8.533,3.831,8.533,8.533C34.133,431.368,30.302,435.2,25.6,435.2z M25.6,401.066c-4.702,0-8.534-3.831-8.534-8.533
			S20.898,384,25.6,384s8.533,3.831,8.533,8.533S30.302,401.066,25.6,401.066z M25.6,366.934c-4.702,0-8.534-3.832-8.534-8.533
			c0-4.702,3.832-8.533,8.534-8.533s8.533,3.831,8.533,8.533C34.133,363.102,30.302,366.934,25.6,366.934z M25.6,332.8
			c-4.702,0-8.534-3.831-8.534-8.533s3.832-8.533,8.534-8.533s8.533,3.831,8.533,8.533S30.302,332.8,25.6,332.8z M187.733,452.267
			c0,4.702-3.832,8.533-8.533,8.533H59.733c-4.702,0-8.533-3.831-8.533-8.533V435.2h136.533V452.267z M187.733,324.267v25.601
			v68.267H51.2V264.533h136.533V324.267z M187.733,247.467H51.2V230.4c0-4.702,3.831-8.533,8.533-8.533H179.2
			c4.702,0,8.533,3.832,8.533,8.533V247.467z"/>
	</g>
</g>
<g>
	<g>
		<path fill="#003D55" d="M503.467,273.066c-13.124,0-25.063,5.001-34.134,13.142V230.4c0-14.114-11.485-25.6-25.6-25.6H324.267
			c-14.114,0-25.601,11.486-25.601,25.6v69.836c-2.679-0.955-5.529-1.57-8.533-1.57c-14.113,0-25.6,11.486-25.6,25.601
			c0,6.579,2.568,12.527,6.656,17.066c-4.096,4.54-6.656,10.488-6.656,17.067s2.568,12.526,6.656,17.066
			c-4.096,4.54-6.656,10.487-6.656,17.066s2.568,12.527,6.656,17.066c-4.096,4.54-6.656,10.488-6.656,17.067
			c0,14.114,11.486,25.6,25.6,25.6c3.004,0,5.854-0.614,8.533-1.57v1.57c0,14.114,11.486,25.601,25.601,25.601h17.067V512H358.4
			v-34.133h85.333c14.114,0,25.6-11.486,25.6-25.601V349.867v-25.601c0-15.872,10.897-29.252,25.601-33.058V512H512V281.6
			C512,276.89,508.177,273.066,503.467,273.066z M290.133,435.2c-4.701,0-8.533-3.832-8.533-8.533c0-4.702,3.832-8.533,8.533-8.533
			c4.702,0,8.533,3.831,8.533,8.533C298.666,431.368,294.835,435.2,290.133,435.2z M290.133,401.066
			c-4.701,0-8.533-3.831-8.533-8.533s3.832-8.533,8.533-8.533c4.702,0,8.533,3.831,8.533,8.533S294.835,401.066,290.133,401.066z
			 M290.133,366.934c-4.701,0-8.533-3.832-8.533-8.533c0-4.702,3.832-8.533,8.533-8.533c4.702,0,8.533,3.831,8.533,8.533
			C298.666,363.102,294.835,366.934,290.133,366.934z M290.133,332.8c-4.701,0-8.533-3.831-8.533-8.533s3.832-8.533,8.533-8.533
			c4.702,0,8.533,3.831,8.533,8.533S294.835,332.8,290.133,332.8z M452.267,452.267c0,4.702-3.831,8.533-8.533,8.533H324.267
			c-4.702,0-8.533-3.831-8.533-8.533V435.2h136.533V452.267z M452.267,324.267v25.601v68.267H315.733V264.533h136.533V324.267z
			 M452.267,247.467H315.733V230.4c0-4.702,3.831-8.533,8.533-8.533h119.467c4.702,0,8.533,3.832,8.533,8.533V247.467z"/>
	</g>
</g>
<g>
	<g>
		<path fill="#00ADEF" d="M375.467,0H136.533C131.823,0,128,3.823,128,8.533v136.533c0,4.711,3.823,8.534,8.533,8.534h238.934
			c4.711,0,8.533-3.823,8.533-8.534V8.533C384,3.823,380.178,0,375.467,0z M145.066,17.066h24.389
			c-3.106,11.938-12.45,21.282-24.389,24.389V17.066z M145.066,136.533v-24.388c11.938,3.106,21.282,12.45,24.389,24.388H145.066z
			 M366.934,136.533h-24.389c3.106-11.938,12.45-21.282,24.389-24.388V136.533z M366.934,94.643
			c-21.394,3.61-38.281,20.506-41.898,41.899h-138.07c-3.61-21.393-20.505-38.281-41.899-41.899V58.965
			c21.394-3.618,38.281-20.505,41.899-41.899h138.07c3.609,21.394,20.505,38.281,41.898,41.899V94.643z M366.934,41.455
			c-11.938-3.106-21.282-12.45-24.389-24.389h24.389V41.455z"/>
	</g>
</g>
<g>
	<g>
		<g>
			<rect x="59.733" y="170.667" fill="#003D55" width="17.066" height="17.067"/>
		</g>
	</g>
	<g>
		<g>
			<rect x="59.733" y="136.533" fill="#003D55" width="17.066" height="17.067"/>
		</g>
	</g>
	<g>
		<g>
			<rect x="59.733" y="102.4" fill="#003D55" width="17.066" height="17.067"/>
		</g>
	</g>
	<g>
		<g>
			<rect x="59.733" y="68.267" fill="#003D55" width="17.066" height="17.067"/>
		</g>
	</g>
	<g>
		<g>
			<rect x="435.2" y="170.667" fill="#003D55" width="17.066" height="17.067"/>
		</g>
	</g>
	<g>
		<g>
			<rect x="435.2" y="136.533" fill="#003D55" width="17.066" height="17.067"/>
		</g>
	</g>
	<g>
		<g>
			<rect x="435.2" y="102.4" fill="#003D55" width="17.066" height="17.067"/>
		</g>
	</g>
	<g>
		<g>
			<rect x="435.2" y="68.267" fill="#003D55" width="17.066" height="17.067"/>
		</g>
	</g>
	<g>
		<g>
			<rect x="401.066" y="68.267" fill="#003D55" width="17.066" height="17.067"/>
		</g>
	</g>
	<g>
		<g>
			<rect x="93.867" y="68.267" fill="#003D55" width="17.067" height="17.067"/>
		</g>
	</g>
</g>
<g>
	<g>
		<path fill="#00ADEF" d="M256,42.667c-18.824,0-34.133,15.309-34.133,34.133c0,18.825,15.309,34.134,34.133,34.134
			s34.133-15.309,34.133-34.134C290.133,57.976,274.824,42.667,256,42.667z M256,93.867c-9.412,0-17.066-7.654-17.066-17.067
			c0-9.412,7.654-17.066,17.066-17.066s17.066,7.654,17.066,17.066C273.066,86.212,265.412,93.867,256,93.867z"/>
	</g>
</g>
<g>
	<g>
		<path fill="#00ADEF" d="M125.5,292.634c-3.337-3.337-8.73-3.337-12.066,0L79.3,326.767l12.066,12.066l19.567-19.566v73.267H128
			v-73.267l19.567,19.566l12.066-12.066L125.5,292.634z"/>
	</g>
</g>
<g>
	<g>
		<path fill="#00ADEF" d="M412.101,343.834L392.533,363.4v-73.268h-17.066V363.4L355.9,343.834l-12.066,12.065l34.133,34.134
			c1.664,1.664,3.849,2.5,6.033,2.5s4.369-0.836,6.033-2.5l34.133-34.134L412.101,343.834z"/>
	</g>
</g>
</svg>
