<?xml version="1.0" encoding="utf-8"?>
<!-- Generator: Adobe Illustrator 15.1.0, SVG Export Plug-In . SVG Version: 6.00 Build 0)  -->
<!DOCTYPE svg PUBLIC "-//W3C//DTD SVG 1.1//EN" "http://www.w3.org/Graphics/SVG/1.1/DTD/svg11.dtd">
<svg version="1.1" id="Capa_1" xmlns="http://www.w3.org/2000/svg" xmlns:xlink="http://www.w3.org/1999/xlink" x="0px" y="0px"
	 width="512px" height="512px" viewBox="0 0 512 512" enable-background="new 0 0 512 512" xml:space="preserve">
<path fill="#00ADEF" d="M16.934,251.02c5.509,0,9.961-4.453,9.961-9.961c0-60.414,49.158-109.572,109.572-109.572h239.066v89.291
	L512,121.525L375.533,22.273v89.292H136.467c-71.401,0-129.494,58.093-129.494,129.494C6.973,246.567,11.425,251.02,16.934,251.02z
	 M395.455,61.4l82.678,60.125l-82.678,60.125V61.4z"/>
<path fill="#003D55" d="M495.066,260.98c-5.509,0-9.961,4.453-9.961,9.961c0,60.414-49.158,109.572-109.572,109.572H136.467v-89.291
	L0,390.475l136.467,99.252v-89.291h239.066c71.4,0,129.494-58.093,129.494-129.494C505.027,265.434,500.574,260.98,495.066,260.98z
	 M116.545,450.6l-82.677-60.125l82.677-60.125V450.6z"/>
</svg>
