<?xml version="1.0" encoding="utf-8"?>
<!-- Generator: Adobe Illustrator 15.1.0, SVG Export Plug-In . SVG Version: 6.00 Build 0)  -->
<!DOCTYPE svg PUBLIC "-//W3C//DTD SVG 1.1//EN" "http://www.w3.org/Graphics/SVG/1.1/DTD/svg11.dtd">
<svg version="1.1" id="Capa_1" xmlns="http://www.w3.org/2000/svg" xmlns:xlink="http://www.w3.org/1999/xlink" x="0px" y="0px"
	 width="512px" height="512px" viewBox="0 0 512 512" enable-background="new 0 0 512 512" xml:space="preserve">
<path fill="#003D55" d="M73.143,375.588V18.286c0-5.056-4.096-9.143-9.143-9.143s-9.143,4.086-9.143,9.143v357.302
	C23.89,380.051,0,406.684,0,438.857c0,35.282,28.708,64,64,64s64-28.718,64-64C128,406.684,104.11,380.051,73.143,375.588z
	 M64,484.571c-25.207,0-45.714-20.507-45.714-45.714S38.793,393.143,64,393.143s45.714,20.508,45.714,45.715
	S89.207,484.571,64,484.571z"/>
<path fill="#00ADEF" d="M265.143,189.211V18.286c0-5.056-4.096-9.143-9.143-9.143s-9.143,4.086-9.143,9.143v170.35
	c-32.932,3.621-58.642,31.598-58.642,65.472c0,33.875,25.71,61.852,58.642,65.473v174.134c0,5.057,4.096,9.144,9.143,9.144
	s9.143-4.087,9.143-9.144v-174.71c31.086-5.275,54.857-32.33,54.857-64.896C320,221.541,296.229,194.487,265.143,189.211z
	 M254.107,301.715c-26.249,0-47.607-21.358-47.607-47.607s21.349-47.607,47.607-47.607c26.258,0,47.607,21.358,47.607,47.607
	S280.356,301.715,254.107,301.715z"/>
<path fill="#003D55" d="M512,73.143c0-35.283-28.709-64-64-64s-64,28.717-64,64c0,32.173,23.891,58.807,54.857,63.269v357.302
	c0,5.057,4.096,9.144,9.143,9.144s9.143-4.087,9.143-9.144V136.412C488.109,131.95,512,105.316,512,73.143z M448,118.857
	c-25.207,0-45.714-20.508-45.714-45.714c0-25.207,20.507-45.714,45.714-45.714s45.714,20.507,45.714,45.714
	C493.714,98.35,473.207,118.857,448,118.857z"/>
</svg>
