<?xml version="1.0" encoding="utf-8"?>
<!-- Generator: Adobe Illustrator 15.1.0, SVG Export Plug-In . SVG Version: 6.00 Build 0)  -->
<!DOCTYPE svg PUBLIC "-//W3C//DTD SVG 1.1//EN" "http://www.w3.org/Graphics/SVG/1.1/DTD/svg11.dtd">
<svg version="1.1" id="Capa_1" xmlns="http://www.w3.org/2000/svg" xmlns:xlink="http://www.w3.org/1999/xlink" x="0px" y="0px"
	 width="512px" height="512px" viewBox="0 0 512 512" enable-background="new 0 0 512 512" xml:space="preserve">
<path fill="#00ADEF" d="M308.707,426.665c-16.47,0-29.867,13.397-29.867,29.867s13.397,29.867,29.867,29.867
	s29.867-13.397,29.867-29.867S325.168,426.665,308.707,426.665z M308.707,469.333c-7.057,0-12.801-5.743-12.801-12.801
	c0-7.057,5.744-12.8,12.801-12.8c7.058,0,12.8,5.743,12.8,12.8C321.507,463.59,315.765,469.333,308.707,469.333z"/>
<path fill="#00ADEF" d="M347.107,315.73c18.825,0,34.134-15.31,34.134-34.135c0-18.824-15.309-34.133-34.134-34.133
	c-18.824,0-34.134,15.309-34.134,34.133C312.974,300.421,328.274,315.73,347.107,315.73z M347.107,264.529
	c9.413,0,17.067,7.654,17.067,17.066c0,9.413-7.654,17.067-17.067,17.067c-9.412,0-17.066-7.654-17.066-17.067
	C330.041,272.184,337.695,264.529,347.107,264.529z"/>
<path fill="#00ADEF" d="M142.304,102.393c2.185,0,4.369-0.836,6.033-2.5l17.067-17.067c3.337-3.337,3.337-8.73,0-12.066
	c-3.336-3.337-8.729-3.337-12.066,0l-17.067,17.067c-3.336,3.336-3.336,8.729,0,12.066
	C137.935,101.557,140.12,102.393,142.304,102.393z"/>
<path fill="#003D55" d="M449.51,253.845c0-7.509-2.928-14.566-8.235-19.875l-4.753-4.753c8.099-7.168,12.979-17.536,12.979-28.689
	c0-21.172-17.229-38.401-38.4-38.401c-1.554,0-3.09,0.154-4.608,0.341c0.188-1.527,0.341-3.046,0.341-4.608
	c0-21.171-17.229-38.401-38.4-38.401c-1.553,0-3.089,0.154-4.607,0.341c0.188-1.527,0.341-3.046,0.341-4.608
	c0-21.171-17.229-38.4-38.4-38.4c-1.554,0-3.089,0.153-4.608,0.341c0.188-1.528,0.342-3.046,0.342-4.608
	c0-21.171-17.229-38.4-38.401-38.4c-11.162,0-21.521,4.89-28.689,12.979l-6.776-6.776L215.521,8.218
	c-10.965-10.966-28.8-10.966-39.749,0L70.708,113.282c-10.949,10.966-10.949,28.792,0,39.758l32.111,32.111l41.899,41.899
	c-11.571,6.622-19.482,18.953-19.482,33.212c0,13.337,6.853,25.097,17.212,31.983c0.521,0.691,1.126,1.373,1.937,2.064
	l91.786,91.437v15.326h-17.067v110.936h153.603h68.268V401.073h-17.066v-25.856c16.324-13.832,25.601-33.725,25.601-55.22
	c0-14.849-4.634-29.271-13.107-41.405l4.872-4.872C446.582,268.412,449.51,261.355,449.51,253.845z M432.442,200.528
	c0,6.554-3.021,12.621-7.996,16.614l-29.961-29.961c3.994-4.975,10.069-7.996,16.615-7.996
	C422.868,179.194,432.442,188.761,432.442,200.528z M389.775,157.861c0,6.554-3.021,12.621-7.996,16.615l-29.961-29.961
	c3.993-4.975,10.069-7.996,16.614-7.996C380.2,136.527,389.775,146.093,389.775,157.861z M347.107,115.193
	c0,6.554-3.021,12.621-7.996,16.615l-29.961-29.961c3.994-4.975,10.07-7.996,16.615-7.996
	C337.533,93.86,347.107,103.426,347.107,115.193z M283.106,51.192c11.768,0,21.334,9.566,21.334,21.333
	c0,6.554-3.021,12.621-7.996,16.615L266.483,59.18C270.477,54.213,276.553,51.192,283.106,51.192z M82.775,140.981
	c-4.301-4.309-4.301-11.315,0-15.625L187.839,20.292c1.067-1.066,2.313-1.869,3.635-2.406c0.597-0.248,1.271-0.239,1.903-0.375
	c1.519-0.324,3.021-0.324,4.54,0c0.631,0.137,1.306,0.128,1.903,0.375c1.323,0.538,2.56,1.34,3.635,2.406L223.5,40.338
	l-120.68,120.68L82.775,140.981z M235.566,52.404l10.053,10.052l42.668,42.667l4.889,4.89l37.778,37.777l4.89,4.89l37.777,37.777
	l4.89,4.89l42.667,42.667l8.021,8.021c4.31,4.31,4.31,11.307,0,15.616l-3.729,3.737l0,0L324.145,366.727
	c-4.293,4.301-11.315,4.317-15.625,0l-68.055-68.063h8.5c21.171,0,38.401-17.229,38.401-38.4c0-21.172-17.229-38.401-38.401-38.401
	h-85.31l-48.777-48.777L235.566,52.404z M159.03,239.458l3.542-0.401c0.35-0.051,0.7-0.128,1.058-0.128h85.335
	c11.768,0,21.333,9.566,21.333,21.334c0,11.768-9.565,21.333-21.333,21.333h-25.566h-24.133h-35.636
	c-11.768,0-21.333-9.565-21.333-21.333C142.304,250.082,149.481,241.574,159.03,239.458z M236.172,494.933v-76.801h71.903
	c26.224,0,47.566,21.342,47.566,47.565v29.235H236.172z M423.909,494.933h-51.201v-29.235c0-18.825-8.141-35.738-21.026-47.565
	h72.228V494.933z M424.122,290.881c5.41,8.713,8.32,18.791,8.32,29.116c0,17.536-8.09,33.673-22.204,44.297l-3.396,2.56v34.211
	h-98.774h-54.836v-23.193l-3.012-2.552c-0.384-0.333-0.794-0.64-1.536-1.194l-75.752-75.471h43.393l80.121,80.13
	c5.487,5.478,12.681,8.218,19.874,8.218c7.203,0,14.405-2.739,19.884-8.218L424.122,290.881z"/>
</svg>
