<?xml version="1.0" encoding="utf-8"?>
<!-- Generator: Adobe Illustrator 15.1.0, SVG Export Plug-In . SVG Version: 6.00 Build 0)  -->
<!DOCTYPE svg PUBLIC "-//W3C//DTD SVG 1.1//EN" "http://www.w3.org/Graphics/SVG/1.1/DTD/svg11.dtd">
<svg version="1.1" id="Capa_1" xmlns="http://www.w3.org/2000/svg" xmlns:xlink="http://www.w3.org/1999/xlink" x="0px" y="0px"
	 width="512px" height="512px" viewBox="-208 -208 512 512" enable-background="new -208 -208 512 512" xml:space="preserve">
<title class="active-path">Airtime Top-up</title>
<g>
	<g>
		<g>
			<path fill="#003D55" d="M90.483-181.424H5.521c-4.698,0-8.499,3.807-8.499,8.5c0,4.687,3.801,8.494,8.499,8.494h84.963
				c4.693,0,8.5-3.807,8.5-8.494C98.983-177.617,95.172-181.424,90.483-181.424z"/>
		</g>
	</g>
	<g>
		<g>
			<path fill="#003D55" d="M58.549,226.449H37.451c-12.922,0-23.442,10.509-23.442,23.436v4.104
				c0,12.922,10.514,23.436,23.431,23.436h21.098c12.923,0,23.437-10.514,23.437-23.436v-4.104
				C81.985,236.958,71.465,226.449,58.549,226.449z M64.99,253.989c0,3.553-2.888,6.441-6.436,6.441H37.451
				c-3.559,0-6.453-2.889-6.453-6.441v-4.104c0-3.563,2.889-6.447,6.453-6.447h21.092c3.56,0,6.447,2.884,6.447,6.447V253.989z"/>
		</g>
	</g>
	<g>
		<g>
			<path fill="#003D55" d="M161.743-206.912h-227.48c-16.935,0-30.715,13.781-30.715,30.715v448.396
				c0,16.934,13.78,30.715,30.715,30.715h227.47c16.934,0,30.714-13.781,30.714-30.705v-448.405
				C192.453-193.131,178.671-206.912,161.743-206.912z M175.453,272.198c0,7.56-6.14,13.726-13.71,13.726h-227.47
				c-7.571,0-13.727-6.166-13.727-13.716v-448.405c0-7.565,6.156-13.727,13.727-13.727h227.459c7.57,0,13.721,6.162,13.721,13.727
				V272.198L175.453,272.198z"/>
		</g>
	</g>
	<g>
		<g>
			<path fill="#003D55" d="M183.953-155.931H-87.954c-4.687,0-8.499,3.807-8.499,8.5V209.45c0,4.692,3.801,8.499,8.499,8.499
				h271.907c4.693,0,8.5-3.807,8.5-8.499v-356.881C192.453-152.124,188.646-155.931,183.953-155.931z M175.453,200.95H-79.459
				v-339.887h254.912V200.95z"/>
		</g>
	</g>
	<g>
		<path fill="#00ADEF" d="M162.467,2.679c3.163-8.181,1.015-17.286-5.563-23.269l-94.738-84.213
			c-8.078-7.349-20.271-7.344-28.263-0.07l-94.895,84.375c-6.491,5.897-8.645,15.007-5.48,23.193
			c3.169,8.175,10.875,13.468,19.655,13.468h15.784v105.37c0,11.627,9.45,21.076,21.076,21.076h115.905
			c11.622,0,21.078-9.449,21.078-21.076V16.162h15.782C151.581,16.156,159.302,10.87,162.467,2.679z M-9.956,16.156
			c0-11.626-9.449-21.076-21.07-21.076l-15.87,0.075l94.98-84.289L142.8-4.919h-15.779c-11.62,0-21.081,9.45-21.081,21.076v105.37
			H-9.956"/>
	</g>
</g>
</svg>
