<?xml version="1.0" encoding="utf-8"?>
<!-- Generator: Adobe Illustrator 15.1.0, SVG Export Plug-In . SVG Version: 6.00 Build 0)  -->
<!DOCTYPE svg PUBLIC "-//W3C//DTD SVG 1.1//EN" "http://www.w3.org/Graphics/SVG/1.1/DTD/svg11.dtd">
<svg version="1.1" id="Capa_1" xmlns="http://www.w3.org/2000/svg" xmlns:xlink="http://www.w3.org/1999/xlink" x="0px" y="0px"
	 width="512px" height="512px" viewBox="0 0 512 512" enable-background="new 0 0 512 512" xml:space="preserve">
<path fill="#003D55" d="M511.992,255.856c0,141.153-114.838,256.004-255.994,256.004c-141.159,0-255.993-114.852-255.993-256.004
	C0.005,114.707,114.846-0.14,255.999-0.14C397.154-0.14,511.992,114.707,511.992,255.856z M483.919,255.856
	c0-125.666-102.241-227.914-227.92-227.914S28.081,130.189,28.081,255.856c0,125.691,102.247,227.917,227.917,227.917
	C381.678,483.774,483.919,381.547,483.919,255.856z"/>
<path fill="#00ADEF" d="M395.283,253.815c0,1.488-0.462,2.962-1.411,4.232c-1.898,2.515-5.253,3.45-8.184,2.296l-87.572-34.595
	V428.49c0,3.867-3.143,7.024-7.03,7.024h-70.17c-3.883,0-7.016-3.149-7.022-7.03V225.749l-87.573,34.608
	c-2.934,1.142-6.291,0.205-8.19-2.322c-1.896-2.514-1.896-5.99,0.047-8.491L250.436,77.506c1.327-1.735,9.806-1.735,11.141,0
	C261.577,77.506,395.283,252.309,395.283,253.815z"/>
</svg>
