<?xml version="1.0" encoding="utf-8"?>
<!-- Generator: Adobe Illustrator 15.1.0, SVG Export Plug-In . SVG Version: 6.00 Build 0)  -->
<!DOCTYPE svg PUBLIC "-//W3C//DTD SVG 1.1//EN" "http://www.w3.org/Graphics/SVG/1.1/DTD/svg11.dtd">
<svg version="1.1" id="Capa_1" xmlns="http://www.w3.org/2000/svg" xmlns:xlink="http://www.w3.org/1999/xlink" x="0px" y="0px"
	 width="512px" height="512px" viewBox="0 0 512 512" enable-background="new 0 0 512 512" xml:space="preserve">
<path fill="#003D55" d="M503.467,81.067H409.6V12.8c0-4.712-3.82-8.533-8.533-8.533H110.934c-4.713,0-8.534,3.821-8.534,8.533
	v119.467H8.533C3.821,132.267,0,136.087,0,140.8v349.867c0,4.712,3.821,8.533,8.533,8.533c4.713,0,8.533-3.821,8.533-8.533V149.333
	H102.4V499.2c0,4.712,3.821,8.533,8.534,8.533h290.133c4.713,0,8.533-3.821,8.533-8.533V98.133h85.334v392.534
	c0,4.712,3.82,8.533,8.533,8.533s8.533-3.821,8.533-8.533V89.6C512,84.888,508.18,81.067,503.467,81.067z M247.467,490.667h-34.133
	v-76.801h34.133V490.667z M298.666,490.667h-34.133v-76.801h34.133V490.667z M392.533,490.667h-76.8v-85.334
	c0-4.712-3.821-8.533-8.533-8.533H204.8c-4.712,0-8.533,3.821-8.533,8.533v85.334h-76.8V21.333h273.066V490.667z"/>
<path fill="#00ADEF" d="M196.267,38.4h-51.2c-4.712,0-8.533,3.821-8.533,8.534v51.2c0,4.712,3.821,8.533,8.533,8.533h51.2
	c4.713,0,8.533-3.821,8.533-8.533v-51.2C204.8,42.221,200.979,38.4,196.267,38.4z M187.733,89.6H153.6V55.467h34.133V89.6z"/>
<path fill="#00ADEF" d="M281.6,38.4h-51.2c-4.712,0-8.533,3.821-8.533,8.534v51.2c0,4.712,3.821,8.533,8.533,8.533h51.2
	c4.713,0,8.533-3.821,8.533-8.533v-51.2C290.133,42.221,286.313,38.4,281.6,38.4z M273.066,89.6h-34.133V55.467h34.133V89.6z"/>
<path fill="#00ADEF" d="M366.934,38.4h-51.2c-4.712,0-8.533,3.821-8.533,8.534v51.2c0,4.712,3.821,8.533,8.533,8.533h51.2
	c4.713,0,8.533-3.821,8.533-8.533v-51.2C375.467,42.221,371.646,38.4,366.934,38.4z M358.4,89.6h-34.134V55.467H358.4V89.6z"/>
<path fill="#00ADEF" d="M196.267,123.733h-51.2c-4.712,0-8.533,3.821-8.533,8.533v51.2c0,4.712,3.821,8.533,8.533,8.533h51.2
	c4.713,0,8.533-3.821,8.533-8.533v-51.2C204.8,127.554,200.979,123.733,196.267,123.733z M187.733,174.934H153.6V140.8h34.133
	V174.934z"/>
<path fill="#00ADEF" d="M281.6,123.733h-51.2c-4.712,0-8.533,3.821-8.533,8.533v51.2c0,4.712,3.821,8.533,8.533,8.533h51.2
	c4.713,0,8.533-3.821,8.533-8.533v-51.2C290.133,127.554,286.313,123.733,281.6,123.733z M273.066,174.934h-34.133V140.8h34.133
	V174.934z"/>
<path fill="#00ADEF" d="M366.934,123.733h-51.2c-4.712,0-8.533,3.821-8.533,8.533v51.2c0,4.712,3.821,8.533,8.533,8.533h51.2
	c4.713,0,8.533-3.821,8.533-8.533v-51.2C375.467,127.554,371.646,123.733,366.934,123.733z M358.4,174.934h-34.134V140.8H358.4
	V174.934z"/>
<path fill="#00ADEF" d="M196.267,209.067h-51.2c-4.712,0-8.533,3.821-8.533,8.533v51.2c0,4.713,3.821,8.534,8.533,8.534h51.2
	c4.713,0,8.533-3.821,8.533-8.534v-51.2C204.8,212.888,200.979,209.067,196.267,209.067z M187.733,260.267H153.6v-34.133h34.133
	V260.267z"/>
<path fill="#00ADEF" d="M281.6,209.067h-51.2c-4.712,0-8.533,3.821-8.533,8.533v51.2c0,4.713,3.821,8.534,8.533,8.534h51.2
	c4.713,0,8.533-3.821,8.533-8.534v-51.2C290.133,212.888,286.313,209.067,281.6,209.067z M273.066,260.267h-34.133v-34.133h34.133
	V260.267z"/>
<path fill="#00ADEF" d="M366.934,209.067h-51.2c-4.712,0-8.533,3.821-8.533,8.533v51.2c0,4.713,3.821,8.534,8.533,8.534h51.2
	c4.713,0,8.533-3.821,8.533-8.534v-51.2C375.467,212.888,371.646,209.067,366.934,209.067z M358.4,260.267h-34.134v-34.133H358.4
	V260.267z"/>
<path fill="#00ADEF" d="M196.267,294.4h-51.2c-4.712,0-8.533,3.82-8.533,8.533v51.2c0,4.712,3.821,8.533,8.533,8.533h51.2
	c4.713,0,8.533-3.821,8.533-8.533v-51.2C204.8,298.221,200.979,294.4,196.267,294.4z M187.733,345.6H153.6v-34.133h34.133V345.6z"/>
<path fill="#00ADEF" d="M281.6,294.4h-51.2c-4.712,0-8.533,3.82-8.533,8.533v51.2c0,4.712,3.821,8.533,8.533,8.533h51.2
	c4.713,0,8.533-3.821,8.533-8.533v-51.2C290.133,298.221,286.313,294.4,281.6,294.4z M273.066,345.6h-34.133v-34.133h34.133V345.6z"
	/>
<path fill="#00ADEF" d="M366.934,294.4h-51.2c-4.712,0-8.533,3.82-8.533,8.533v51.2c0,4.712,3.821,8.533,8.533,8.533h51.2
	c4.713,0,8.533-3.821,8.533-8.533v-51.2C375.467,298.221,371.646,294.4,366.934,294.4z M358.4,345.6h-34.134v-34.133H358.4V345.6z"
	/>
<path fill="#00ADEF" d="M51.2,166.4h-8.534c-4.712,0-8.533,3.821-8.533,8.534v8.533c0,4.712,3.821,8.533,8.533,8.533H51.2
	c4.712,0,8.533-3.821,8.533-8.533v-8.533C59.733,170.221,55.913,166.4,51.2,166.4z"/>
<path fill="#00ADEF" d="M85.333,166.4H76.8c-4.712,0-8.533,3.821-8.533,8.534v8.533c0,4.712,3.821,8.533,8.533,8.533h8.534
	c4.712,0,8.533-3.821,8.533-8.533v-8.533C93.867,170.221,90.046,166.4,85.333,166.4z"/>
<path fill="#00ADEF" d="M51.2,200.533h-8.534c-4.712,0-8.533,3.821-8.533,8.534v8.533c0,4.712,3.821,8.533,8.533,8.533H51.2
	c4.712,0,8.533-3.821,8.533-8.533v-8.533C59.733,204.354,55.913,200.533,51.2,200.533z"/>
<path fill="#00ADEF" d="M85.333,200.533H76.8c-4.712,0-8.533,3.821-8.533,8.534v8.533c0,4.712,3.821,8.533,8.533,8.533h8.534
	c4.712,0,8.533-3.821,8.533-8.533v-8.533C93.867,204.354,90.046,200.533,85.333,200.533z"/>
<path fill="#00ADEF" d="M51.2,234.667h-8.534c-4.712,0-8.533,3.821-8.533,8.534v8.533c0,4.712,3.821,8.533,8.533,8.533H51.2
	c4.712,0,8.533-3.821,8.533-8.533V243.2C59.733,238.487,55.913,234.667,51.2,234.667z"/>
<path fill="#00ADEF" d="M85.333,234.667H76.8c-4.712,0-8.533,3.821-8.533,8.534v8.533c0,4.712,3.821,8.533,8.533,8.533h8.534
	c4.712,0,8.533-3.821,8.533-8.533V243.2C93.867,238.487,90.046,234.667,85.333,234.667z"/>
<path fill="#00ADEF" d="M51.2,268.8h-8.534c-4.712,0-8.533,3.821-8.533,8.534v8.533c0,4.712,3.821,8.533,8.533,8.533H51.2
	c4.712,0,8.533-3.821,8.533-8.533v-8.533C59.733,272.621,55.913,268.8,51.2,268.8z"/>
<path fill="#00ADEF" d="M85.333,268.8H76.8c-4.712,0-8.533,3.821-8.533,8.534v8.533c0,4.712,3.821,8.533,8.533,8.533h8.534
	c4.712,0,8.533-3.821,8.533-8.533v-8.533C93.867,272.621,90.046,268.8,85.333,268.8z"/>
<path fill="#00ADEF" d="M51.2,302.934h-8.534c-4.712,0-8.533,3.82-8.533,8.533V320c0,4.713,3.821,8.533,8.533,8.533H51.2
	c4.712,0,8.533-3.82,8.533-8.533v-8.533C59.733,306.754,55.913,302.934,51.2,302.934z"/>
<path fill="#00ADEF" d="M85.333,302.934H76.8c-4.712,0-8.533,3.82-8.533,8.533V320c0,4.713,3.821,8.533,8.533,8.533h8.534
	c4.712,0,8.533-3.82,8.533-8.533v-8.533C93.867,306.754,90.046,302.934,85.333,302.934z"/>
<path fill="#00ADEF" d="M51.2,337.066h-8.534c-4.712,0-8.533,3.821-8.533,8.533v8.534c0,4.712,3.821,8.533,8.533,8.533H51.2
	c4.712,0,8.533-3.821,8.533-8.533V345.6C59.733,340.888,55.913,337.066,51.2,337.066z"/>
<path fill="#00ADEF" d="M85.333,337.066H76.8c-4.712,0-8.533,3.821-8.533,8.533v8.534c0,4.712,3.821,8.533,8.533,8.533h8.534
	c4.712,0,8.533-3.821,8.533-8.533V345.6C93.867,340.888,90.046,337.066,85.333,337.066z"/>
<path fill="#00ADEF" d="M51.2,371.2h-8.534c-4.712,0-8.533,3.82-8.533,8.533v8.533c0,4.713,3.821,8.533,8.533,8.533H51.2
	c4.712,0,8.533-3.82,8.533-8.533v-8.533C59.733,375.021,55.913,371.2,51.2,371.2z"/>
<path fill="#00ADEF" d="M85.333,371.2H76.8c-4.712,0-8.533,3.82-8.533,8.533v8.533c0,4.713,3.821,8.533,8.533,8.533h8.534
	c4.712,0,8.533-3.82,8.533-8.533v-8.533C93.867,375.021,90.046,371.2,85.333,371.2z"/>
<path fill="#00ADEF" d="M51.2,405.333h-8.534c-4.712,0-8.533,3.821-8.533,8.533v8.534c0,4.712,3.821,8.533,8.533,8.533H51.2
	c4.712,0,8.533-3.821,8.533-8.533v-8.534C59.733,409.154,55.913,405.333,51.2,405.333z"/>
<path fill="#00ADEF" d="M85.333,405.333H76.8c-4.712,0-8.533,3.821-8.533,8.533v8.534c0,4.712,3.821,8.533,8.533,8.533h8.534
	c4.712,0,8.533-3.821,8.533-8.533v-8.534C93.867,409.154,90.046,405.333,85.333,405.333z"/>
<path fill="#00ADEF" d="M51.2,439.467h-8.534c-4.712,0-8.533,3.82-8.533,8.533v8.533c0,4.713,3.821,8.533,8.533,8.533H51.2
	c4.712,0,8.533-3.82,8.533-8.533V448C59.733,443.287,55.913,439.467,51.2,439.467z"/>
<path fill="#00ADEF" d="M85.333,439.467H76.8c-4.712,0-8.533,3.82-8.533,8.533v8.533c0,4.713,3.821,8.533,8.533,8.533h8.534
	c4.712,0,8.533-3.82,8.533-8.533V448C93.867,443.287,90.046,439.467,85.333,439.467z"/>
<path fill="#00ADEF" d="M469.333,115.2H435.2c-4.713,0-8.533,3.821-8.533,8.533v34.133c0,4.712,3.82,8.533,8.533,8.533h34.133
	c4.713,0,8.534-3.821,8.534-8.533v-34.133C477.867,119.021,474.046,115.2,469.333,115.2z M460.8,149.333h-17.066v-17.067H460.8
	V149.333z"/>
<path fill="#00ADEF" d="M469.333,183.467H435.2c-4.713,0-8.533,3.821-8.533,8.533v34.133c0,4.712,3.82,8.533,8.533,8.533h34.133
	c4.713,0,8.534-3.821,8.534-8.533V192C477.867,187.288,474.046,183.467,469.333,183.467z M460.8,217.6h-17.066v-17.067H460.8V217.6z
	"/>
<path fill="#00ADEF" d="M469.333,251.733H435.2c-4.713,0-8.533,3.821-8.533,8.533V294.4c0,4.712,3.82,8.533,8.533,8.533h34.133
	c4.713,0,8.534-3.821,8.534-8.533v-34.134C477.867,255.554,474.046,251.733,469.333,251.733z M460.8,285.867h-17.066V268.8H460.8
	V285.867z"/>
<path fill="#00ADEF" d="M469.333,320H435.2c-4.713,0-8.533,3.821-8.533,8.533v34.134c0,4.712,3.82,8.533,8.533,8.533h34.133
	c4.713,0,8.534-3.821,8.534-8.533v-34.134C477.867,323.821,474.046,320,469.333,320z M460.8,354.134h-17.066v-17.067H460.8V354.134z
	"/>
<path fill="#00ADEF" d="M469.333,388.267H435.2c-4.713,0-8.533,3.821-8.533,8.533v34.134c0,4.712,3.82,8.533,8.533,8.533h34.133
	c4.713,0,8.534-3.821,8.534-8.533V396.8C477.867,392.088,474.046,388.267,469.333,388.267z M460.8,422.4h-17.066v-17.067H460.8
	V422.4z"/>
</svg>
