<?xml version="1.0" encoding="utf-8"?>
<!-- Generator: Adobe Illustrator 15.1.0, SVG Export Plug-In . SVG Version: 6.00 Build 0)  -->
<!DOCTYPE svg PUBLIC "-//W3C//DTD SVG 1.1//EN" "http://www.w3.org/Graphics/SVG/1.1/DTD/svg11.dtd">
<svg version="1.1" id="Layer_1" xmlns="http://www.w3.org/2000/svg" xmlns:xlink="http://www.w3.org/1999/xlink" x="0px" y="0px"
	 width="512px" height="512px" viewBox="0 0 512 512" enable-background="new 0 0 512 512" xml:space="preserve">
<path fill="#003D55" d="M437.02,74.98C388.668,26.629,324.379,0,256,0c-29.859,0-59.016,5.074-86.801,15.098l-5.691-9.801
	c-1.789-3.078-5.082-4.977-8.645-4.977c-0.008,0-0.02,0-0.027,0c-3.57,0.012-6.867,1.926-8.645,5.023L106.645,74.27
	c-1.777,3.102-1.766,6.914,0.027,10c1.789,3.082,5.086,4.977,8.645,4.977h0.027l79.465-0.215c3.574-0.012,6.871-1.926,8.648-5.023
	s1.766-6.91-0.027-10l-3.418-5.883C218.117,62.73,236.902,60,256,60c108.074,0,196,87.926,196,196s-87.926,196-196,196
	S60,364.074,60,256c0-5.523-4.477-10-10-10H10c-5.523,0-10,4.477-10,10c0,68.379,26.629,132.668,74.98,181.02S187.621,512,256,512
	s132.668-26.629,181.02-74.98S512,324.379,512,256S485.371,123.332,437.02,74.98z M256,492C129.223,492,25.469,391.508,20.211,266
	h20.016c2.441,53.941,24.605,104.305,63.039,142.734C144.063,449.531,198.305,472,256,472s111.938-22.469,152.734-63.266
	S472,313.695,472,256s-22.469-111.938-63.266-152.734S313.695,40,256,40c-25.488,0-50.473,4.414-74.254,13.121
	c-2.777,1.016-4.961,3.211-5.965,5.992c-1.008,2.781-0.73,5.863,0.758,8.422l0.895,1.543l-44.824,0.121l22.305-38.879l1.258,2.16
	c2.488,4.289,7.75,6.105,12.352,4.262C196.348,25.633,225.777,20,256,20c130.133,0,236,105.867,236,236S386.133,492,256,492z"/>
<path fill="#00ADEF" d="M379.035,132.965c-3.898-3.898-10.195-3.887-14.102,0.008c-3.91,3.891-3.906,10.234-0.023,14.148
	c0.012,0.012,0.066,0.066,0.074,0.074c1.949,1.945,4.492,2.918,7.039,2.918c2.555,0,5.109-0.977,7.066-2.926
	c3.91-3.891,3.906-10.234,0.023-14.152C379.102,133.027,379.047,132.973,379.035,132.965z"/>
<path fill="#00ADEF" d="M344.555,117.559c2.688-4.824,0.957-10.914-3.867-13.605c-32.402-18.07-70.609-25.328-107.586-20.449
	c-38.199,5.047-72.828,22.148-100.137,49.461C100.098,165.828,82,209.523,82,256s18.098,90.172,50.965,123.035
	C165.828,411.902,209.523,430,256,430s90.172-18.098,123.035-50.965c56.543-56.539,67.367-143.875,26.32-212.379
	c-2.836-4.738-8.98-6.273-13.719-3.438c-4.738,2.84-6.277,8.98-3.438,13.719c36.324,60.621,26.738,137.914-23.305,187.957
	C335.809,393.98,297.137,410,256,410s-79.809-16.02-108.895-45.105S102,297.137,102,256s16.02-79.809,45.105-108.895
	c48.461-48.461,124.059-59.02,183.844-25.684C335.773,124.109,341.863,122.379,344.555,117.559z"/>
<path fill="#00ADEF" d="M266.129,136.5V129c0-5.523-4.48-10-10-10c-5.523,0-10,4.477-10,10v7.5c0,5.523,4.477,10,10,10
	C261.648,146.5,266.129,142.023,266.129,136.5z"/>
<path fill="#00ADEF" d="M245.871,375.5v7.5c0,5.523,4.48,10,10,10c5.523,0,10-4.477,10-10v-7.5c0-5.523-4.477-10-10-10
	C250.352,365.5,245.871,369.977,245.871,375.5z"/>
<path fill="#00ADEF" d="M365.5,256.129c0,5.52,4.477,10,10,10h7.5c5.523,0,10-4.48,10-10c0-5.523-4.477-10-10-10h-7.5
	C369.977,246.129,365.5,250.605,365.5,256.129z"/>
<path fill="#00ADEF" d="M129,245.871c-5.523,0-10,4.48-10,10c0,5.523,4.477,10,10,10h7.5c5.523,0,10-4.477,10-10
	c0-5.52-4.477-10-10-10H129z"/>
<path fill="#00ADEF" d="M316,256c0-5.523-4.477-10-10-10h-45.859l-74.973-74.973c-3.902-3.906-10.234-3.906-14.141,0
	c-3.906,3.902-3.906,10.234,0,14.141l77.902,77.902c1.875,1.875,4.418,2.93,7.07,2.93h50C311.523,266,316,261.523,316,256z"/>
</svg>
