<?xml version="1.0" encoding="utf-8"?>
<!-- Generator: Adobe Illustrator 15.1.0, SVG Export Plug-In . SVG Version: 6.00 Build 0)  -->
<!DOCTYPE svg PUBLIC "-//W3C//DTD SVG 1.1//EN" "http://www.w3.org/Graphics/SVG/1.1/DTD/svg11.dtd">
<svg version="1.1" id="Layer_1" xmlns="http://www.w3.org/2000/svg" xmlns:xlink="http://www.w3.org/1999/xlink" x="0px" y="0px"
	 width="512px" height="512px" viewBox="0 0 512 512" enable-background="new 0 0 512 512" xml:space="preserve">
<path fill="#003D55" d="M458,381.113V163.668c0-3.199-1.531-6.207-4.117-8.09l-24.688-17.949l19.438-12.148
	c2.789-1.742,4.543-4.746,4.691-8.031c0.145-3.285-1.332-6.434-3.953-8.418l-18.039-13.668V89H448c5.523,0,10-4.477,10-10V59
	c0-32.531-26.469-59-59-59H58c-0.102,0-0.195,0.012-0.293,0.016C57.477,0.012,57.254,0,57.023,0
	C41.277,0,26.648,7.777,15.832,21.902C5.621,35.234,0,52.813,0,71.398C0,104.813,21.871,132,48.754,132h55.324v158.5
	c0,3.391,1.715,6.547,4.559,8.391l19.605,12.711l-20.828,18.609c-2.121,1.895-3.336,4.609-3.336,7.457v86.664
	c0,0.539,0.055,1.066,0.137,1.582c-0.082,0.52-0.137,1.047-0.137,1.586c0,25.441,6.57,46.855,18.996,61.926
	C135.078,503.98,152.148,512,171.137,512H446c36.395,0,66-29.605,66-66C512,413.707,488.68,386.773,458,381.113z M82.074,112
	c2.945-5.551,4.613-11.957,4.613-18.84c0-23.055-14.934-39.16-36.32-39.16c-5.523,0-10,4.477-10,10s4.477,10,10,10
	c10.219,0,16.32,7.164,16.32,19.16c0,12.238-9.242,18.84-17.934,18.84C33.168,112,20,93.406,20,71.398
	C20,43.059,36.609,20,57.023,20c14.141,0,25.195,4.395,32.848,13.059c9.43,10.668,14.207,27.977,14.207,51.441V112H82.074z
	 M138.504,476.699c-9.438-11.445-14.426-28.457-14.426-49.199c0-0.539-0.055-1.066-0.137-1.586c0.082-0.516,0.137-1.043,0.137-1.582
	v-82.191l27.25-24.352c2.324-2.074,3.551-5.117,3.309-8.227c-0.238-3.105-1.914-5.926-4.527-7.621l-26.031-16.875V84.5
	c0-28.371-6.418-50.066-19.063-64.5H399c21.504,0,39,17.496,39,39v10h-16.668c-5.52,0-10,4.477-10,10v21.332
	c0,3.133,1.469,6.082,3.965,7.973l10.434,7.906l-19.695,12.309c-2.82,1.762-4.578,4.809-4.695,8.129s1.426,6.484,4.113,8.438
	L438,168.758V380H183.766c-0.492,0-0.977,0.047-1.453,0.117c-0.961-0.07-1.93-0.117-2.91-0.117c-21.27,0-37.934,17.063-37.934,38.84
	c0,23.059,14.934,39.16,36.32,39.16c5.523,0,10-4.477,10-10s-4.477-10-10-10c-10.219,0-16.32-7.164-16.32-19.16
	c0-12.238,9.242-18.84,17.934-18.84c15.586,0,28.754,18.594,28.754,40.602c0,28.34-16.605,51.398-37.02,51.398
	C158.043,492,146.758,486.711,138.504,476.699z M446,492H210.793c0.516-0.625,1.031-1.25,1.531-1.902
	c9.586-12.516,15.125-28.777,15.77-46.098H384c5.523,0,10-4.477,10-10s-4.477-10-10-10H226.281c-2.07-9.031-5.781-17.215-10.719-24
	H446c25.363,0,46,20.637,46,46S471.363,492,446,492z"/>
<path fill="#00ADEF" d="M189.359,98c2.629,0,5.199-1.07,7.07-2.93c1.859-1.859,2.93-4.441,2.93-7.07s-1.07-5.211-2.93-7.07
	c-1.871-1.859-4.441-2.93-7.07-2.93c-2.641,0-5.211,1.07-7.07,2.93s-2.93,4.441-2.93,7.07s1.07,5.211,2.93,7.07
	S186.719,98,189.359,98z"/>
<path fill="#00ADEF" d="M232,98h144.355c5.523,0,10-4.477,10-10s-4.477-10-10-10H232c-5.523,0-10,4.477-10,10S226.477,98,232,98z"/>
<path fill="#00ADEF" d="M189.355,154h187c5.523,0,10-4.477,10-10s-4.477-10-10-10h-187c-5.52,0-10,4.477-10,10
	S183.836,154,189.355,154z"/>
<path fill="#00ADEF" d="M189.355,210h187c5.523,0,10-4.477,10-10s-4.477-10-10-10h-187c-5.52,0-10,4.477-10,10
	S183.836,210,189.355,210z"/>
<path fill="#00ADEF" d="M189.355,266h187c5.523,0,10-4.477,10-10s-4.477-10-10-10h-187c-5.52,0-10,4.477-10,10
	S183.836,266,189.355,266z"/>
<path fill="#00ADEF" d="M189.355,322h187c5.523,0,10-4.477,10-10s-4.477-10-10-10h-187c-5.52,0-10,4.477-10,10
	S183.836,322,189.355,322z"/>
<path fill="#00ADEF" d="M422.871,424c-2.633,0-5.211,1.07-7.07,2.93s-2.93,4.441-2.93,7.07s1.066,5.211,2.93,7.07
	c1.859,1.859,4.438,2.93,7.07,2.93c2.629,0,5.207-1.07,7.066-2.93c1.863-1.859,2.934-4.441,2.934-7.07s-1.07-5.211-2.934-7.07
	C428.078,425.07,425.5,424,422.871,424z"/>
</svg>
