<?xml version="1.0" encoding="utf-8"?>
<!-- Generator: Adobe Illustrator 15.1.0, SVG Export Plug-In . SVG Version: 6.00 Build 0)  -->
<!DOCTYPE svg PUBLIC "-//W3C//DTD SVG 1.1//EN" "http://www.w3.org/Graphics/SVG/1.1/DTD/svg11.dtd">
<svg version="1.1" id="Layer_1" xmlns="http://www.w3.org/2000/svg" xmlns:xlink="http://www.w3.org/1999/xlink" x="0px" y="0px"
	 width="96px" height="96px" viewBox="208 208 96 96" enable-background="new 208 208 96 96" xml:space="preserve">
<title  class="active-path" style="">033 - Insurance</title>
<desc  class="active-path">Created with Sketch.</desc>
<path id="Shape" fill="#00ADEF" d="M279.371,220.679l-22.691-9.933c-0.386-0.168-0.824-0.168-1.21,0l-22.691,9.933
	c-0.551,0.24-0.907,0.785-0.908,1.386v23.75c0.008,5.337,2.573,10.348,6.899,13.475l15.683,11.313c0.968,0.7,2.278,0.7,3.246,0
	l15.683-11.311c4.326-3.127,6.891-8.138,6.899-13.476v-23.752C280.278,221.463,279.922,220.919,279.371,220.679z M277.254,245.816
	c-0.008,4.366-2.106,8.463-5.643,11.021l-15.537,11.206l-15.536-11.206c-3.538-2.558-5.636-6.656-5.643-11.021v-22.763l21.179-9.271
	l21.18,9.271V245.816z"/>
<path id="Shape_1_" fill="#00ADEF" d="M255.469,217.351l-16.64,7.286c-0.551,0.24-0.908,0.784-0.908,1.385v19.795
	c0.005,3.394,1.637,6.581,4.387,8.568l12.881,9.291c0.528,0.382,1.242,0.382,1.77,0l12.882-9.291
	c2.751-1.988,4.383-5.174,4.387-8.568v-19.795c0-0.601-0.356-1.145-0.907-1.385l-16.641-7.286
	C256.293,217.182,255.855,217.182,255.469,217.351z M271.202,227.01v18.807c-0.005,2.422-1.169,4.695-3.132,6.115l-11.996,8.653
	l-11.996-8.653c-1.963-1.419-3.127-3.693-3.132-6.115V227.01l15.128-6.622L271.202,227.01z"/>
<path id="Shape_2_" fill="#003D55" d="M223.225,260.842l-3.272-7.645c-0.696-1.577-2.18-2.662-3.892-2.847
	c-1.714-0.186-3.396,0.557-4.413,1.948c-1.017,1.391-1.215,3.218-0.519,4.795l5.929,13.042c0.799,1.766,1.913,3.372,3.284,4.74
	l9.324,9.325c-0.525,0.556-0.818,1.292-0.82,2.058v12.103c0,1.67,1.355,3.025,3.025,3.025h16.641c1.671,0,3.026-1.355,3.026-3.025
	v-12.103c0-1.671-1.354-3.025-3.026-3.025v-2.816c0.047-3.583-1.122-7.074-3.316-9.908c-1.286-1.691-3.038-2.97-5.042-3.678
	c-3.187-1.338-6.117-3.219-8.661-5.558C229.13,259.328,225.775,259.153,223.225,260.842z M248.51,298.36H231.87v-12.103h16.641
	V298.36z M242.833,272.396c1.763,2.298,2.698,5.124,2.652,8.02v2.816h-12.509l-10.495-10.496c-1.115-1.113-2.02-2.419-2.67-3.854
	l-5.929-13.041c-0.253-0.557-0.206-1.204,0.125-1.718c0.331-0.515,0.9-0.825,1.512-0.826c0.719,0,1.37,0.429,1.652,1.091
	l3.384,7.892c0.898,2.106,2.193,4.019,3.815,5.636l6.911,6.911c0.38,0.393,0.942,0.551,1.471,0.413
	c0.529-0.139,0.942-0.553,1.081-1.081c0.138-0.529-0.02-1.091-0.413-1.471l-6.91-6.912c-0.695-0.693-1.32-1.454-1.865-2.27
	c1.453-1.118,3.485-1.084,4.899,0.082c2.829,2.596,6.097,4.665,9.652,6.111C240.643,270.229,241.908,271.165,242.833,272.396z"/>
<path id="Shape_3_" fill="#00ADEF" d="M243.972,290.796h-1.513c-0.836,0-1.513,0.677-1.513,1.513c0,0.835,0.677,1.513,1.513,1.513
	h1.513c0.835,0,1.513-0.678,1.513-1.513C245.485,291.473,244.808,290.796,243.972,290.796z"/>
<path id="Shape_4_" fill="#003D55" d="M295.092,270.135l5.929-13.042c0.729-1.582,0.549-3.434-0.472-4.845s-2.723-2.163-4.453-1.966
	c-1.729,0.197-3.22,1.311-3.898,2.915l-3.265,7.617c-2.559-1.683-5.915-1.498-8.275,0.453c-2.545,2.339-5.475,4.22-8.661,5.559
	c-2.003,0.707-3.756,1.985-5.042,3.677c-2.194,2.835-3.363,6.329-3.316,9.913v2.816c-1.67,0-3.025,1.354-3.025,3.025v12.103
	c0,1.67,1.355,3.025,3.025,3.025h16.642c1.671,0,3.025-1.355,3.025-3.025v-12.103c-0.002-0.766-0.296-1.502-0.821-2.058l9.324-9.325
	C293.18,273.507,294.292,271.9,295.092,270.135z M280.279,298.36h-16.642v-12.103h16.642V298.36z M279.173,283.232h-12.51v-2.816
	c-0.045-2.895,0.89-5.72,2.652-8.018c0.924-1.231,2.185-2.169,3.631-2.697c3.556-1.446,6.825-3.516,9.653-6.111
	c1.413-1.174,3.451-1.214,4.908-0.096c-0.546,0.822-1.174,1.588-1.874,2.285l-6.91,6.911c-0.572,0.594-0.565,1.538,0.019,2.121
	c0.583,0.583,1.526,0.591,2.121,0.019l6.91-6.912c1.621-1.617,2.917-3.529,3.814-5.636l3.385-7.893
	c0.282-0.661,0.933-1.09,1.652-1.089c0.611,0,1.18,0.311,1.511,0.825s0.378,1.161,0.125,1.718l-5.928,13.042
	c-0.651,1.435-1.556,2.739-2.671,3.853L279.173,283.232z"/>
<path id="Shape_5_" fill="#00ADEF" d="M269.688,290.796h-1.512c-0.836,0-1.514,0.677-1.514,1.513c0,0.835,0.678,1.513,1.514,1.513
	h1.512c0.837,0,1.514-0.678,1.514-1.513C271.202,291.473,270.525,290.796,269.688,290.796z"/>
</svg>
