<?xml version="1.0" encoding="utf-8"?>
<!-- Generator: Adobe Illustrator 15.1.0, SVG Export Plug-In . SVG Version: 6.00 Build 0)  -->
<!DOCTYPE svg PUBLIC "-//W3C//DTD SVG 1.1//EN" "http://www.w3.org/Graphics/SVG/1.1/DTD/svg11.dtd">
<svg version="1.1"
	 id="svg2985" inkscape:version="0.91 r13725" sodipodi:docname="MasterCard_early_1990s_logo.svg" xmlns:dc="http://purl.org/dc/elements/1.1/" xmlns:cc="http://creativecommons.org/ns#" xmlns:rdf="http://www.w3.org/1999/02/22-rdf-syntax-ns#" xmlns:svg="http://www.w3.org/2000/svg" xmlns:sodipodi="http://sodipodi.sourceforge.net/DTD/sodipodi-0.dtd" xmlns:inkscape="http://www.inkscape.org/namespaces/inkscape"
	 xmlns="http://www.w3.org/2000/svg" xmlns:xlink="http://www.w3.org/1999/xlink" x="0px" y="0px" width="96px" height="96px"
	 viewBox="582.949 258.125 96 96" enable-background="new 582.949 258.125 96 96" xml:space="preserve">
<sodipodi:namedview  id="namedview2987" inkscape:current-layer="svg2985" inkscape:window-y="-8" inkscape:window-x="-8" inkscape:window-height="705" inkscape:window-width="1366" inkscape:pageshadow="2" inkscape:pageopacity="0" fit-margin-top="0" fit-margin-left="0" pagecolor="#ffffff" inkscape:cy="328.16526" inkscape:cx="169.58914" guidetolerance="10" inkscape:zoom="0.49176063" gridtolerance="10" objecttolerance="10" showgrid="false" borderopacity="1" bordercolor="#666666" inkscape:window-maximized="1" fit-margin-bottom="0" fit-margin-right="0" inkscape:object-paths="false">
	</sodipodi:namedview>
<g>
	<g id="g3478" transform="translate(-21.53125,-20.125)">
		<g id="g3456">
			<g id="g3159">
				<path id="path3086" inkscape:connector-curvature="0" fill="#FF0018" d="M633.519,297.546
					c-15.753,0-28.521,12.696-28.521,28.356c0,15.662,12.769,28.357,28.521,28.357c7.278,0,13.92-2.713,18.96-7.174
					c0.401-0.354,0.79-0.721,1.17-1.097c0.126-0.125,0.251-0.251,0.376-0.379h-3.092c0.125,0.128,0.25,0.254,0.377,0.379
					c-0.127-0.125-0.253-0.252-0.377-0.379c-0.544-0.56-1.063-1.141-1.56-1.742c-0.109-0.133-0.221-0.268-0.327-0.403
					c0.106,0.136,0.217,0.27,0.327,0.403h6.209c0.439-0.534,0.861-1.082,1.262-1.647h-8.73c0.2,0.282,0.403,0.562,0.613,0.836
					c-0.21-0.274-0.413-0.554-0.613-0.836c-0.489-0.689-0.948-1.403-1.375-2.137c-0.554-0.95-1.053-1.934-1.494-2.95
					c-0.121-0.278-0.237-0.558-0.35-0.842c-0.112-0.281-0.218-0.567-0.321-0.854c-0.206-0.572-0.396-1.153-0.564-1.743h16.942
					c0.16-0.557,0.303-1.123,0.429-1.693h-17.8c0.095,0.428,0.199,0.853,0.313,1.273c-0.115-0.421-0.219-0.845-0.313-1.273
					c-0.186-0.842-0.335-1.697-0.442-2.564c-0.012-0.09-0.021-0.18-0.032-0.27c0.011,0.091,0.02,0.18,0.032,0.27
					c0.035,0.274,0.073,0.55,0.115,0.822h18.454c0.085-0.546,0.155-1.095,0.208-1.649h-18.87c-0.055-0.575-0.091-1.156-0.11-1.741
					c-0.005-0.16-0.009-0.32-0.012-0.482c-0.002-0.162-0.006-0.322-0.006-0.484c0,0.163,0.004,0.322,0.006,0.484
					c0.003,0.16,0.007,0.322,0.012,0.482h19.091c0.005-0.143,0.009-0.287,0.012-0.43c0-0.018,0-0.035,0-0.053
					c0-0.006,0-0.012,0-0.018c0.002-0.155,0.006-0.311,0.006-0.467c0-0.262-0.004-0.525-0.012-0.787
					c-0.027-0.967-0.104-1.922-0.227-2.862h-18.649c-0.078,0.597-0.138,1.2-0.178,1.809c-0.009,0.152-0.018,0.304-0.025,0.458
					c-0.007,0.127-0.013,0.254-0.018,0.382c0.005-0.128,0.011-0.255,0.018-0.382c0.008-0.153,0.017-0.305,0.025-0.458
					c0.116-1.799,0.401-3.553,0.84-5.245c0.152-0.589,0.324-1.169,0.513-1.743c0.044-0.135,0.089-0.271,0.136-0.405
					c0.046-0.133,0.095-0.267,0.142-0.399c-0.047,0.133-0.095,0.265-0.142,0.399s-0.092,0.27-0.136,0.405h16.3
					c-0.178-0.541-0.37-1.075-0.579-1.601h-15.142c-0.052,0.131-0.104,0.264-0.153,0.396c0.05-0.132,0.102-0.265,0.153-0.396
					c0.235-0.592,0.49-1.171,0.765-1.743c0.074-0.156,0.15-0.312,0.228-0.466c0.078-0.155,0.157-0.309,0.237-0.463
					c-0.08,0.153-0.159,0.308-0.237,0.463c-0.077,0.155-0.153,0.31-0.228,0.466h13.612c-0.102-0.212-0.205-0.422-0.313-0.631
					c-0.05-0.099-0.098-0.197-0.149-0.295c-0.014-0.025-0.027-0.05-0.041-0.075c-0.015-0.029-0.03-0.058-0.046-0.087
					c-0.077-0.144-0.153-0.287-0.232-0.429c-0.059-0.108-0.12-0.214-0.183-0.321h-11.685c0.34-0.595,0.703-1.176,1.085-1.743
					c0.09-0.133,0.18-0.265,0.272-0.396c0.091-0.13,0.185-0.262,0.277-0.391c0.188-0.259,0.377-0.514,0.573-0.767
					c0.465-0.599,0.954-1.18,1.465-1.74h4.336c-0.171-0.188-0.345-0.373-0.521-0.556c-0.528-0.548-1.077-1.075-1.647-1.581
					C647.438,300.258,640.797,297.546,633.519,297.546z M648.846,308.596c-0.195,0.252-0.387,0.508-0.573,0.767
					c-0.093,0.13-0.187,0.26-0.277,0.391c-0.092,0.131-0.184,0.264-0.272,0.396h9.512c-0.357-0.53-0.731-1.05-1.123-1.554H648.846z
					 M643.817,318.817c-0.145,0.558-0.271,1.123-0.382,1.693h18.089c-0.11-0.571-0.238-1.135-0.382-1.693H643.817z M644.573,335.438
					c0.104,0.287,0.209,0.571,0.321,0.854c0.112,0.283,0.229,0.564,0.35,0.842h14.472c0.241-0.557,0.465-1.121,0.671-1.695H644.573z
					 M646.738,340.084c0.077,0.132,0.156,0.264,0.234,0.394h11.015c0.315-0.522,0.615-1.056,0.897-1.601h-12.81
					C646.286,339.285,646.507,339.688,646.738,340.084z M655.063,307.322c0.068,0.079,0.138,0.158,0.206,0.237
					C655.201,307.479,655.132,307.401,655.063,307.322z M657.498,310.543c0.056,0.085,0.11,0.169,0.165,0.255
					C657.608,310.713,657.554,310.628,657.498,310.543z M657.892,311.169c0.051,0.083,0.102,0.166,0.15,0.249
					C657.993,311.334,657.942,311.251,657.892,311.169z M659.46,314.098c0.053,0.113,0.104,0.226,0.154,0.339
					C659.563,314.324,659.513,314.211,659.46,314.098z M658.63,339.36c-0.033,0.062-0.067,0.122-0.102,0.183
					C658.563,339.482,658.597,339.422,658.63,339.36z M657.646,341.031c-0.049,0.077-0.098,0.154-0.147,0.231
					C657.548,341.186,657.597,341.108,657.646,341.031z M655.27,344.246c-0.068,0.08-0.138,0.159-0.206,0.238
					C655.132,344.405,655.201,344.326,655.27,344.246z M654.82,344.759c-0.082,0.091-0.163,0.183-0.246,0.272
					C654.657,344.941,654.738,344.85,654.82,344.759z M654.262,345.367c-0.063,0.066-0.127,0.131-0.19,0.196
					C654.135,345.498,654.198,345.434,654.262,345.367z"/>
				<path id="path3155" inkscape:connector-curvature="0" fill="#FFAA18" d="M671.441,297.546c-7.277,0-13.92,2.712-18.96,7.173
					c0.76,0.673,1.481,1.388,2.165,2.137h-4.336c-0.511,0.559-0.997,1.141-1.462,1.74h7.263c0.392,0.504,0.766,1.024,1.123,1.554
					h-9.512c-0.382,0.567-0.745,1.148-1.085,1.743h11.685c0.345,0.599,0.665,1.213,0.964,1.838h-13.612
					c-0.274,0.57-0.53,1.151-0.765,1.743h15.142c0.209,0.525,0.401,1.06,0.579,1.601h-16.3c-0.367,1.116-0.668,2.264-0.895,3.436
					c0.11-0.571,0.237-1.135,0.382-1.693h17.325c0.144,0.558,0.271,1.123,0.382,1.693h-18.089c-0.14,0.722-0.253,1.451-0.336,2.191
					c0.018-0.15,0.036-0.3,0.056-0.449h18.649c0.155,1.195,0.238,2.413,0.238,3.649c0,0.324-0.007,0.646-0.018,0.967h-19.091
					c0.02,0.586,0.058,1.165,0.112,1.741h18.868c-0.053,0.555-0.123,1.104-0.208,1.649h-18.454c0.092,0.587,0.201,1.167,0.327,1.742
					h17.8c-0.126,0.57-0.269,1.137-0.429,1.693h-16.942c0.169,0.59,0.358,1.17,0.564,1.743h15.813
					c-0.206,0.574-0.43,1.139-0.671,1.695h-14.472c0.503,1.157,1.082,2.273,1.729,3.344c-0.315-0.522-0.615-1.056-0.897-1.601h12.81
					c-0.282,0.545-0.582,1.078-0.897,1.601h-11.015c0.359,0.595,0.74,1.178,1.141,1.743h8.73c-0.4,0.565-0.822,1.113-1.262,1.647
					h-6.209c0.496,0.602,1.016,1.184,1.56,1.742h3.092c-0.496,0.511-1.01,1.004-1.543,1.476c5.04,4.461,11.683,7.174,18.96,7.174
					c15.753,0,28.522-12.695,28.522-28.357C699.964,310.242,687.194,297.546,671.441,297.546z M648.113,342.221
					c0.1,0.141,0.202,0.28,0.305,0.419C648.315,342.501,648.214,342.362,648.113,342.221z M645.244,337.134
					c-0.241-0.557-0.465-1.121-0.671-1.695C644.779,336.013,645.003,336.577,645.244,337.134z M642.935,326.869
					c-0.005-0.16-0.009-0.322-0.012-0.482C642.926,326.547,642.93,326.71,642.935,326.869z M642.923,326.387
					c-0.002-0.162-0.006-0.321-0.006-0.484C642.917,326.065,642.921,326.225,642.923,326.387z M643.1,322.702
					c-0.034,0.3-0.063,0.603-0.087,0.906C643.038,323.305,643.065,323.001,643.1,322.702z M643.013,323.607
					c-0.009,0.116-0.018,0.233-0.026,0.351C642.995,323.841,643.003,323.724,643.013,323.607z M644.33,317.074
					c0.044-0.135,0.089-0.271,0.136-0.405C644.419,316.803,644.374,316.939,644.33,317.074z M644.909,315.474
					c-0.043,0.107-0.083,0.216-0.125,0.324C644.826,315.689,644.866,315.581,644.909,315.474z M647.723,310.15
					c0.089-0.133,0.181-0.265,0.272-0.396C647.903,309.885,647.813,310.017,647.723,310.15z M647.995,309.753
					c0.091-0.131,0.185-0.261,0.277-0.391C648.179,309.492,648.086,309.623,647.995,309.753z M646.139,312.802
					c-0.073,0.139-0.144,0.279-0.214,0.419C645.995,313.082,646.065,312.94,646.139,312.802z M644.735,315.925
					c-0.043,0.115-0.086,0.229-0.128,0.345C644.649,316.154,644.692,316.039,644.735,315.925z M642.952,324.52
					c-0.007,0.146-0.016,0.29-0.021,0.437C642.937,324.811,642.945,324.665,642.952,324.52z M643.138,329.438
					c0.011,0.088,0.022,0.176,0.035,0.263C643.16,329.613,643.148,329.525,643.138,329.438z M643.583,332.017
					c0.03,0.138,0.063,0.276,0.096,0.414C643.646,332.294,643.613,332.154,643.583,332.017z M643.783,332.853
					c0.033,0.136,0.068,0.271,0.104,0.406C643.852,333.124,643.816,332.988,643.783,332.853z M650.967,345.645
					c0.113,0.116,0.228,0.231,0.343,0.345C651.194,345.876,651.08,345.761,650.967,345.645z"/>
			</g>
			<g id="g3442">
				<path id="text9407" inkscape:connector-curvature="0" fill="#FFAA18" d="M696.825,342.099c0.226,0,0.448,0.059,0.662,0.176
					c0.216,0.114,0.385,0.282,0.505,0.498c0.121,0.217,0.18,0.44,0.18,0.676c0,0.232-0.059,0.456-0.178,0.671
					c-0.118,0.214-0.284,0.382-0.498,0.5c-0.215,0.118-0.438,0.177-0.671,0.177c-0.234,0-0.458-0.059-0.673-0.177
					c-0.214-0.119-0.38-0.286-0.498-0.5c-0.12-0.215-0.18-0.438-0.18-0.671c0-0.235,0.061-0.459,0.181-0.676
					c0.122-0.216,0.29-0.383,0.506-0.498C696.378,342.157,696.6,342.099,696.825,342.099 M696.825,342.321
					c-0.188,0-0.373,0.049-0.553,0.147c-0.18,0.096-0.319,0.234-0.422,0.416c-0.101,0.18-0.151,0.367-0.151,0.563
					s0.05,0.382,0.147,0.56c0.101,0.177,0.239,0.317,0.42,0.417c0.178,0.098,0.363,0.147,0.559,0.147c0.194,0,0.382-0.05,0.56-0.147
					c0.178-0.1,0.317-0.24,0.416-0.417c0.1-0.18,0.148-0.364,0.148-0.56s-0.051-0.383-0.151-0.562
					c-0.101-0.183-0.24-0.321-0.421-0.417C697.198,342.371,697.015,342.321,696.825,342.321 M696.235,344.192v-1.451h0.499
					c0.17,0,0.294,0.015,0.37,0.042c0.075,0.026,0.135,0.072,0.182,0.14c0.046,0.067,0.069,0.138,0.069,0.212
					c0,0.106-0.038,0.199-0.115,0.277c-0.074,0.078-0.174,0.123-0.3,0.132c0.05,0.021,0.092,0.048,0.124,0.076
					c0.057,0.058,0.129,0.154,0.214,0.289l0.178,0.283h-0.287l-0.128-0.229c-0.102-0.181-0.183-0.292-0.245-0.338
					c-0.043-0.033-0.105-0.05-0.188-0.05h-0.138v0.617L696.235,344.192 M696.47,343.376h0.283c0.137,0,0.229-0.02,0.277-0.061
					c0.05-0.04,0.075-0.094,0.075-0.16c0-0.044-0.012-0.082-0.035-0.115c-0.024-0.034-0.058-0.059-0.1-0.076
					c-0.044-0.018-0.12-0.025-0.234-0.025h-0.267V343.376"/>
			</g>
		</g>
		<g id="g3463">
			<g id="g3340">
			</g>
			<g id="g3445" transform="translate(0,-125.06085)">
				<path id="path3447" inkscape:connector-curvature="0" fill="#FFFFFF" d="M696.825,455.576c0.226,0,0.448,0.058,0.662,0.175
					c0.216,0.115,0.385,0.282,0.505,0.499c0.121,0.216,0.18,0.44,0.18,0.676c0,0.231-0.059,0.455-0.178,0.67
					c-0.118,0.215-0.284,0.382-0.498,0.5c-0.215,0.118-0.438,0.178-0.671,0.178c-0.234,0-0.458-0.06-0.673-0.178
					c-0.214-0.119-0.38-0.285-0.498-0.5c-0.12-0.215-0.18-0.438-0.18-0.67c0-0.235,0.061-0.46,0.181-0.676
					c0.122-0.217,0.29-0.383,0.506-0.499C696.378,455.633,696.6,455.576,696.825,455.576 M696.825,455.797
					c-0.188,0-0.373,0.05-0.553,0.147c-0.18,0.096-0.319,0.235-0.422,0.417c-0.101,0.18-0.151,0.367-0.151,0.563
					c0,0.194,0.05,0.381,0.147,0.559c0.101,0.178,0.239,0.317,0.42,0.417c0.178,0.099,0.363,0.147,0.559,0.147
					c0.194,0,0.382-0.049,0.56-0.147c0.178-0.1,0.317-0.239,0.416-0.417c0.1-0.18,0.148-0.364,0.148-0.559
					c0-0.195-0.051-0.383-0.151-0.563c-0.101-0.182-0.24-0.321-0.421-0.417C697.198,455.847,697.015,455.797,696.825,455.797
					 M696.235,457.67v-1.452h0.499c0.17,0,0.294,0.014,0.37,0.041c0.075,0.026,0.135,0.072,0.182,0.141
					c0.046,0.066,0.069,0.137,0.069,0.212c0,0.105-0.038,0.198-0.115,0.276c-0.074,0.078-0.174,0.123-0.3,0.132
					c0.05,0.022,0.092,0.048,0.124,0.077c0.057,0.058,0.129,0.153,0.214,0.288l0.178,0.284h-0.287l-0.128-0.229
					c-0.102-0.181-0.183-0.293-0.245-0.338c-0.043-0.034-0.105-0.051-0.188-0.051h-0.138v0.618H696.235 M696.47,456.853h0.283
					c0.137,0,0.229-0.021,0.277-0.061c0.05-0.04,0.075-0.095,0.075-0.161c0-0.043-0.012-0.082-0.035-0.114
					c-0.024-0.035-0.058-0.06-0.1-0.077c-0.044-0.017-0.12-0.024-0.234-0.024h-0.267V456.853"/>
			</g>
		</g>
	</g>
	<g id="layer1" transform="matrix(3.4122136,0,0,2.9147516,-1.3007845,49.652982)">
		<g id="g10305">
		</g>
		<g id="g16480">
			<g id="g13802" transform="translate(-13.74405,15.9939)">
				<g id="use14699" transform="translate(845.3001,0)">
				</g>
			</g>
			<g id="g10289">
				<path id="path4157" inkscape:connector-curvature="0" fill="#FFFFFF" d="M182.68,90.194l0.11-0.743
					c-0.06,0-0.148,0.025-0.225,0.025c-0.304,0-0.338-0.161-0.319-0.281l0.246-1.516h0.463l0.111-0.822h-0.436l0.089-0.511h-0.874
					c-0.019,0.019-0.516,2.874-0.516,3.221c0,0.515,0.289,0.744,0.696,0.74C182.344,90.306,182.593,90.218,182.68,90.194z"/>
				<path id="path4155" inkscape:connector-curvature="0" fill="#FFFFFF" d="M182.957,88.778c0,1.235,0.815,1.528,1.509,1.528
					c0.641,0,0.923-0.143,0.923-0.143l0.154-0.843c0,0-0.488,0.215-0.928,0.215c-0.938,0-0.774-0.7-0.774-0.7h1.776
					c0,0,0.115-0.566,0.115-0.797c0-0.576-0.287-1.277-1.246-1.277C183.608,86.761,182.957,87.708,182.957,88.778L182.957,88.778z
					 M184.489,87.543c0.493,0,0.402,0.554,0.402,0.599h-0.97C183.921,88.086,184.013,87.543,184.489,87.543z"/>
				<path id="path4151" inkscape:connector-curvature="0" fill="#FFFFFF" d="M190.023,90.194l0.157-0.953
					c0,0-0.429,0.215-0.723,0.215c-0.62,0-0.868-0.473-0.868-0.982c0-1.031,0.533-1.599,1.127-1.599c0.445,0,0.802,0.25,0.802,0.25
					l0.143-0.926c0,0-0.53-0.214-0.984-0.214c-1.009,0-1.99,0.875-1.99,2.519c0,1.09,0.53,1.81,1.573,1.81
					C189.554,90.314,190.023,90.194,190.023,90.194L190.023,90.194z"/>
				<path id="path4149" inkscape:connector-curvature="0" fill="#FFFFFF" d="M177.874,86.774c-0.599,0-1.059,0.192-1.059,0.192
					l-0.127,0.753c0,0,0.379-0.154,0.952-0.154c0.325,0,0.564,0.036,0.564,0.301c0,0.16-0.029,0.22-0.029,0.22
					s-0.257-0.021-0.375-0.021c-0.756,0-1.55,0.322-1.55,1.295c0,0.766,0.521,0.942,0.844,0.942c0.616,0,0.882-0.4,0.896-0.401
					l-0.029,0.334h0.77l0.343-2.407C179.074,86.807,178.183,86.774,177.874,86.774z M178.061,88.734
					c0.017,0.147-0.092,0.836-0.618,0.836c-0.271,0-0.342-0.207-0.342-0.33c0-0.239,0.13-0.526,0.77-0.526
					C178.02,88.714,178.036,88.73,178.061,88.734L178.061,88.734z"/>
				<path id="path4145" inkscape:connector-curvature="0" fill="#FFFFFF" d="M179.892,90.285c0.197,0,1.322,0.05,1.322-1.111
					c0-1.086-1.042-0.871-1.042-1.307c0-0.217,0.17-0.285,0.48-0.285c0.123,0,0.597,0.039,0.597,0.039l0.11-0.772
					c0,0-0.307-0.069-0.806-0.069c-0.647,0-1.302,0.258-1.302,1.141c0,1.001,1.094,0.9,1.094,1.322c0,0.281-0.306,0.304-0.541,0.304
					c-0.408,0-0.775-0.14-0.776-0.133l-0.117,0.764C178.932,90.184,179.159,90.285,179.892,90.285L179.892,90.285z"/>
				<path id="path4139" inkscape:connector-curvature="0" fill="#FFFFFF" d="M197.262,86.082l-0.189,1.17
					c0,0-0.329-0.454-0.844-0.454c-0.8,0-1.468,0.965-1.468,2.075c0,0.716,0.356,1.418,1.084,1.418c0.524,0,0.814-0.365,0.814-0.365
					l-0.038,0.312h0.85l0.668-4.156L197.262,86.082z M196.856,88.363c0,0.461-0.229,1.078-0.702,1.078
					c-0.315,0-0.462-0.264-0.462-0.678c0-0.678,0.304-1.125,0.688-1.125C196.695,87.638,196.856,87.854,196.856,88.363z"/>
				<path id="path4133" inkscape:connector-curvature="0" fill="#FFFFFF" d="M173.142,90.24l0.532-3.138l0.078,3.138h0.602
					l1.123-3.138l-0.497,3.138h0.895l0.689-4.161h-1.383l-0.862,2.553l-0.045-2.553h-1.275L172.3,90.24H173.142L173.142,90.24z"/>
				<path id="path4131" inkscape:connector-curvature="0" fill="#FFFFFF" d="M186.606,90.246c0.254-1.446,0.301-2.621,0.908-2.406
					c0.106-0.56,0.209-0.776,0.325-1.013c0,0-0.054-0.011-0.169-0.011c-0.391,0-0.681,0.535-0.681,0.535l0.078-0.491h-0.814
					l-0.545,3.387H186.606L186.606,90.246z"/>
				<g id="use8523" transform="translate(847.0062,0)">
					<path id="path4149_1_" inkscape:connector-curvature="0" fill="#FFFFFF" d="M-654.967,86.774c-0.599,0-1.058,0.192-1.058,0.192
						l-0.127,0.753c0,0,0.379-0.154,0.952-0.154c0.325,0,0.564,0.036,0.564,0.301c0,0.16-0.029,0.22-0.029,0.22
						s-0.257-0.021-0.375-0.021c-0.756,0-1.55,0.322-1.55,1.295c0,0.766,0.521,0.942,0.844,0.942c0.617,0,0.882-0.4,0.896-0.401
						l-0.029,0.334c0,0,0.77,0,0.77,0l0.343-2.407C-653.766,86.807-654.657,86.774-654.967,86.774L-654.967,86.774z
						 M-654.779,88.734c0.017,0.147-0.092,0.836-0.619,0.836c-0.271,0-0.342-0.207-0.342-0.33c0-0.239,0.13-0.526,0.77-0.526
						C-654.82,88.714-654.804,88.73-654.779,88.734L-654.779,88.734z"/>
				</g>
				<g id="use8525" transform="translate(442.2857,0)">
					<path id="path4131_1_" inkscape:connector-curvature="0" fill="#FFFFFF" d="M-248.343,90.246
						c0.254-1.446,0.302-2.621,0.908-2.406c0.106-0.56,0.209-0.776,0.325-1.013c0,0-0.054-0.011-0.168-0.011
						c-0.392,0-0.681,0.535-0.681,0.535l0.078-0.491h-0.814l-0.545,3.387H-248.343L-248.343,90.246z"/>
				</g>
			</g>
		</g>
	</g>
</g>
</svg>
