<?xml version="1.0" encoding="utf-8"?>
<!-- Generator: Adobe Illustrator 15.1.0, SVG Export Plug-In . SVG Version: 6.00 Build 0)  -->
<!DOCTYPE svg PUBLIC "-//W3C//DTD SVG 1.1//EN" "http://www.w3.org/Graphics/SVG/1.1/DTD/svg11.dtd">
<svg version="1.1" id="Layer_1" xmlns="http://www.w3.org/2000/svg" xmlns:xlink="http://www.w3.org/1999/xlink" x="0px" y="0px"
	 width="512px" height="512px" viewBox="0 0 512 512" enable-background="new 0 0 512 512" xml:space="preserve">
<path fill="#003D55" d="M370.667,0H131.733c-0.163,0-0.316,0.083-0.479,0.096c-0.784,0.038-1.554,0.196-2.296,0.458
	c-0.25,0.075-0.5,0.163-0.742,0.267c-0.95,0.408-1.817,0.988-2.559,1.704L94.067,34.133H46.4C22.846,34.163,3.763,53.246,3.733,76.8
	v392.533C3.763,492.888,22.846,511.971,46.4,512h273.067c23.555-0.029,42.638-19.112,42.666-42.667v-17.066H379.2
	c9.425,0,17.066-7.642,17.066-17.066V25.6C396.267,11.462,384.805,0,370.667,0z M103.633,48.7L123.2,29.133v39.133H84.067
	L103.633,48.7z M345.066,469.333c0,14.138-11.462,25.601-25.6,25.601H46.4c-14.137,0-25.6-11.463-25.6-25.601V76.8
	c0-14.137,11.463-25.6,25.6-25.6H77L57.434,70.767c-0.717,0.725-1.292,1.571-1.708,2.5c-0.117,0.267-0.188,0.529-0.279,0.804
	c-0.246,0.704-0.392,1.446-0.438,2.192c0,0.188-0.108,0.35-0.108,0.537v358.4c0,9.425,7.642,17.066,17.067,17.066h273.1V469.333z
	 M72,435.2V85.333h51.2c9.425,0,17.066-7.642,17.066-17.067v-51.2h230.4c4.712,0,8.533,3.821,8.533,8.534v409.6H72z"/>
<path fill="#00ADEF" d="M97.6,384h51.2v17.066H97.6V384z"/>
<path fill="#00ADEF" d="M182.934,51.2h85.333v17.066h-85.333V51.2z"/>
<path fill="#00ADEF" d="M218.5,102.4H200V85.333h51.2V102.4H218.5"/>
<path fill="#00ADEF" d="M353.6,119.467h-256c-4.712,0-8.533,3.821-8.533,8.533v221.867c0,4.712,3.821,8.533,8.533,8.533h179.2V384
	c0,4.713,3.821,8.533,8.534,8.533H353.6c4.713,0,8.533-3.82,8.533-8.533V128C362.133,123.288,358.313,119.467,353.6,119.467z
	 M345.066,341.333h-51.199v-17.066h51.199V341.333z M276.8,187.733V204.8H157.333v-17.066H276.8z M345.066,204.8h-51.199v-17.066
	h51.199V204.8z M345.066,238.934h-51.199v-17.067h51.199V238.934z M345.066,273.066h-51.199V256h51.199V273.066z M106.133,256
	h34.133v17.066h-34.133V256z M106.133,221.867h34.133v17.067h-34.133V221.867z M157.333,221.867H276.8v17.067H157.333V221.867z
	 M157.333,256H276.8v17.066H157.333V256z M140.267,204.8h-34.133v-17.066h34.133V204.8z M106.133,290.133h34.133V307.2h-34.133
	V290.133z M157.333,290.133H276.8V307.2H157.333V290.133z M293.867,290.133h51.199V307.2h-51.199V290.133z M106.133,136.533h238.933
	v34.133H106.133V136.533z M106.133,341.333v-17.066h34.133v17.066H106.133z M157.333,341.333v-17.066H276.8v17.066H157.333z
	 M293.867,358.4h51.199v17.066h-51.199V358.4z"/>
</svg>
