<?xml version="1.0" encoding="utf-8"?>
<!-- Generator: Adobe Illustrator 23.0.0, SVG Export Plug-In . SVG Version: 6.00 Build 0)  -->
<svg version="1.1" id="Layer_1" xmlns="http://www.w3.org/2000/svg" xmlns:xlink="http://www.w3.org/1999/xlink" x="0px" y="0px"
	 viewBox="0 0 512 512" style="enable-background:new 0 0 512 512;" xml:space="preserve">
<style type="text/css">
	.st0{fill:#00ADEF;}
	.st1{fill:#003D55;}
</style>
<path class="st0" d="M450.3,114.3l11.3,11.3l32-32c3.1-3.1,3.1-8.2,0-11.3l-32-32l-11.3,11.3L468.7,80H376v16h92.7L450.3,114.3z"/>
<path class="st0" d="M402.3,189.7l11.3-11.3L395.3,160H488v-16h-92.7l18.3-18.3l-11.3-11.3l-32,32c-3.1,3.1-3.1,8.2,0,11.3
	L402.3,189.7z"/>
<path class="st1" d="M486.6,249.4c-11.8-11.8-30.6-12.5-43.3-1.7C437.7,238,427.3,232,416,232c-3.6-0.1-7.1,0.6-10.5,1.8
	c-3.7,1.3-7.1,3.3-10.1,5.9C389.7,230,379.3,224,368,224c-5.6,0-11.2,1.5-16,4.4V96c0-17.7-14.3-32-32-32c-5.6,0-11.2,1.5-16,4.4V40
	c0-13.2-10.8-24-24-24H88c-13.2,0-24,10.8-24,24v160h-8c-22.1,0-40,17.9-40,40v32.7l16,167.7V488c0,4.4,3.6,8,8,8h176
	c4.4,0,8-3.6,8-8v-45.4l29.8-42.6H271l9,25.4V488c0,4.4,3.6,8,8,8h160c4.4,0,8-3.6,8-8v-62.6l36.7-102.9c2.2-6,3.3-12.4,3.3-18.8
	V272C496,263.5,492.6,255.4,486.6,249.4z M208,480H48v-32h160V480z M211.8,432H47.3L32,272v-32c0-13.2,10.8-24,24-24h56
	c13.3,0,24,10.7,24,24s-10.7,24-24,24H72c-4.4,0-8,3.6-8,8v104c0,13.2,10.8,24,24,24h146.2L211.8,432z M88,384c-4.4,0-8-3.6-8-8v-24
	h144v-16H80v-56h32c22.1,0,40-17.9,40-40s-17.9-40-40-40H80V40c0-4.4,3.6-8,8-8h192c4.4,0,8,3.6,8,8v164.5
	c-4.9-2.9-10.4-4.5-16.1-4.5c-17.6,0-31.9,14.3-31.9,31.9v71.8c0,6.4,1.1,12.8,3.3,18.9l21.9,61.4H88z M320,480h-24v-48h24V480z
	 M360,480h-24v-48h24V480z M400,480h-24v-48h24V480z M440,480h-24v-48h24V480z M480,303.7c0,4.6-0.8,9.1-2.3,13.4L442.4,416H293.6
	l-35.3-98.8c-1.5-4.3-2.3-8.9-2.3-13.5v-71.8c0-8.8,7.2-16,16-16c8.8,0,16,7.2,16,16l0,0v64h16V96c0.1-8.8,7.2-15.9,16-16
	c8.8,0,16,7.2,16,16v200h16v-40c0.1-8.8,7.2-15.9,16-16c8.8,0,16,7.2,16,16v40h16v-32c0-4.2,1.7-8.3,4.7-11.3
	c1.7-1.8,3.8-3.1,6.2-3.8c1.6-0.6,3.4-0.9,5.1-0.9c8.8,0,16,7.2,16,16v40h16v-32c0-8.8,7.2-16,16-16c8.8,0.1,15.9,7.2,16,16V303.7z"
	/>
<path class="st0" d="M184,48c-44.2,0-80,35.8-80,80s35.8,80,80,80s80-35.8,80-80C263.9,83.8,228.2,48.1,184,48z M184,192
	c-35.3,0-64-28.7-64-64s28.7-64,64-64s64,28.7,64,64C248,163.3,219.3,192,184,192z"/>
<path class="st0" d="M208,144c-0.1,10.1-6.4,19.2-16,22.6v9.4h-16v-9.4c-9.6-3.4-15.9-12.4-16-22.6h16c0,4.4,3.6,8,8,8s8-3.6,8-8
	s-3.6-8-8-8c-13.3-0.1-23.9-10.9-23.8-24.2c0.1-10,6.4-19,15.8-22.4V80h16v9.4c9.6,3.4,15.9,12.4,16,22.6h-16c0-4.4-3.6-8-8-8
	s-8,3.6-8,8s3.6,8,8,8C197.2,120,208,130.8,208,144z"/>
</svg>
