<?xml version="1.0" encoding="utf-8"?>
<!-- Generator: Adobe Illustrator 15.1.0, SVG Export Plug-In . SVG Version: 6.00 Build 0)  -->
<!DOCTYPE svg PUBLIC "-//W3C//DTD SVG 1.1//EN" "http://www.w3.org/Graphics/SVG/1.1/DTD/svg11.dtd">
<svg version="1.1" id="Layer_1" xmlns="http://www.w3.org/2000/svg" xmlns:xlink="http://www.w3.org/1999/xlink" x="0px" y="0px"
	 width="512px" height="512px" viewBox="0 0 512 512" enable-background="new 0 0 512 512" xml:space="preserve">
<title  class="active-path" style="">Atm</title>
<path fill="#003D55" d="M488.925,48H23.075C18.657,48,15,52.014,15,56.432v227.75c0.05,4.369,3.633,7.87,8.003,7.819
	c0.024,0,0.048-0.001,0.072-0.001H127v163.568c0,4.418,3.58,8.432,8,8.432h242c4.419,0,8-4.014,8-8.432V292h103.925
	c4.369,0.09,7.983-3.378,8.074-7.746c0-0.025,0.001-0.049,0.001-0.072V56.432C497,52.014,493.343,48,488.925,48z M127,201H83v-62h44
	V201z M369,448H143V139h7v296.174c0.017,1.046,0.25,2.076,0.684,3.027c1.286,2.947,4.211,4.838,7.427,4.8h198.5
	c4.418,0,8.392-3.407,8.392-7.826V139h4L369,448z M341.2,374c-26.4,0-48.2,21.177-48.2,47.579V427h-74v-4.968
	c0.045-26.435-21.312-47.92-47.746-48.032H166V139h183v235H341.2z M349,390v37h-40v-5.421C309,404,323.62,390,341.2,390H349z
	 M171.254,390c17.602,0.103,31.802,14.43,31.746,32.032V427h-37v-37H171.254z M481,276h-96v-59h52.164
	c4.147,0.176,7.653-3.043,7.83-7.191c0.005-0.131,0.007-0.263,0.006-0.394V131.2c0.093-4.425-3.411-8.092-7.836-8.2H74.836
	c-4.425,0.108-7.929,3.775-7.836,8.2v78.217c-0.04,4.151,3.292,7.549,7.444,7.589c0.131,0.001,0.261-0.001,0.392-0.006H127v59H31V64
	h450V276z M385,201v-62h44v62H385z"/>
<path fill="#00ADEF" d="M256,154.185c-46.561,0-84.305,37.745-84.305,84.305s37.745,84.305,84.305,84.305
	s84.305-37.744,84.305-84.305l0,0C340.253,191.951,302.539,154.237,256,154.185z M256,306.795
	c-37.724,0-68.305-30.581-68.305-68.305c0-37.724,30.582-68.305,68.305-68.305s68.305,30.581,68.305,68.305l0,0
	c-0.039,37.708-30.597,68.268-68.305,68.31V306.795z"/>
</svg>
